{
  "claimBoundary": "Mathematical/model fixtures drive an authored musical receiver. WAV parameters are not intrinsic E8 or qutrit properties.",
  "createdUtc": "2026-07-20T13:52:04.954Z",
  "eventPreview": [
    {
      "curvature": -2,
      "cutoff": 11410.18181818182,
      "degree": 42,
      "degreePotential": 0.39798257679963317,
      "duration": 0.10403225806451613,
      "endFrequency": 116.54094037952248,
      "frequency": 116.54094037952248,
      "midi": 46,
      "pan": 0,
      "phase": 0,
      "role": "stab",
      "source": "ETQ orbit 6, q=1",
      "stateIndex": 21,
      "time": 0,
      "velocity": 0.6703030303030304,
      "waveform": "triangle"
    },
    {
      "pan": 0,
      "source": "ETQ orbit 6, q=1",
      "time": 0,
      "velocity": 0.5027272727272728,
      "voice": "snare"
    },
    {
      "curvature": 0,
      "cutoff": 15905.4,
      "degree": 55,
      "degreePotential": 1,
      "duration": 0.10403225806451613,
      "endFrequency": 195.99771799087463,
      "frequency": 195.99771799087463,
      "midi": 55,
      "pan": 0,
      "phase": 0,
      "role": "lead",
      "source": "ETQ singlet 1",
      "stateIndex": 1,
      "time": 0.12096774193548387,
      "velocity": 0.66,
      "waveform": "triangle"
    },
    {
      "curvature": 1,
      "cutoff": 12954.49090909091,
      "degree": 43,
      "degreePotential": 0.4442916093535076,
      "duration": 0.10403225806451613,
      "endFrequency": 116.54094037952248,
      "frequency": 116.54094037952248,
      "midi": 46,
      "pan": -0.49679999999999996,
      "phase": 0,
      "role": "lead",
      "source": "ETQ orbit 1, q=0",
      "stateIndex": 5,
      "time": 0.24193548387096775,
      "velocity": 0.6018181818181818,
      "waveform": "triangle"
    },
    {
      "curvature": 1,
      "cutoff": 12216.763636363634,
      "degree": 40,
      "degreePotential": 0.30536451169188444,
      "duration": 0.10403225806451613,
      "endFrequency": 110,
      "frequency": 110,
      "midi": 45,
      "pan": -0.49679999999999996,
      "phase": 0,
      "role": "lead",
      "source": "ETQ orbit 7, q=0",
      "stateIndex": 23,
      "time": 0.3629032258064516,
      "velocity": 0.5672727272727273,
      "waveform": "triangle"
    },
    {
      "curvature": 1,
      "cutoff": 9757.672727272728,
      "degree": 30,
      "degreePotential": -0.15772581384685924,
      "duration": 0.10403225806451613,
      "endFrequency": 73.41619197935188,
      "frequency": 73.41619197935188,
      "midi": 38,
      "pan": -0.49679999999999996,
      "phase": 0,
      "role": "stab",
      "source": "ETQ orbit 17, q=0",
      "stateIndex": 53,
      "time": 0.4838709677419355,
      "velocity": 0.4521212121212122,
      "waveform": "triangle"
    },
    {
      "pan": -0.17387999999999998,
      "source": "ETQ orbit 17, q=0",
      "time": 0.4838709677419355,
      "velocity": 0.33909090909090916,
      "voice": "kick"
    },
    {
      "curvature": 1,
      "cutoff": 10741.30909090909,
      "degree": 34,
      "degreePotential": 0.027510316368638238,
      "duration": 0.10403225806451613,
      "endFrequency": 82.4068892282175,
      "frequency": 82.4068892282175,
      "midi": 40,
      "pan": 0.49679999999999996,
      "phase": 0,
      "role": "lead",
      "source": "ETQ orbit 9, q=2",
      "stateIndex": 31,
      "time": 0.6048387096774194,
      "velocity": 0.4981818181818182,
      "waveform": "triangle"
    },
    {
      "curvature": 0,
      "cutoff": 15905.4,
      "degree": 55,
      "degreePotential": 1,
      "duration": 0.10403225806451613,
      "endFrequency": 48.999429497718666,
      "frequency": 48.999429497718666,
      "midi": 31,
      "pan": 0,
      "phase": 0,
      "role": "lead",
      "source": "ETQ singlet 0",
      "stateIndex": 0,
      "time": 0.7258064516129032,
      "velocity": 0.66,
      "waveform": "triangle"
    },
    {
      "curvature": 1,
      "cutoff": 10741.30909090909,
      "degree": 34,
      "degreePotential": 0.027510316368638238,
      "duration": 0.10403225806451613,
      "endFrequency": 82.4068892282175,
      "frequency": 82.4068892282175,
      "midi": 40,
      "pan": 0.49679999999999996,
      "phase": 0,
      "role": "lead",
      "source": "ETQ orbit 9, q=2",
      "stateIndex": 31,
      "time": 0.8467741935483871,
      "velocity": 0.4981818181818182,
      "waveform": "triangle"
    },
    {
      "curvature": 1,
      "cutoff": 10249.49090909091,
      "degree": 32,
      "degreePotential": -0.0651077487391105,
      "duration": 0.10403225806451613,
      "endFrequency": 73.41619197935188,
      "frequency": 73.41619197935188,
      "midi": 38,
      "pan": 0.49679999999999996,
      "phase": 0,
      "role": "stab",
      "source": "ETQ orbit 16, q=2",
      "stateIndex": 52,
      "time": 0.967741935483871,
      "velocity": 0.4751515151515152,
      "waveform": "triangle"
    },
    {
      "pan": 0.17387999999999998,
      "source": "ETQ orbit 16, q=2",
      "time": 0.967741935483871,
      "velocity": 0.35636363636363644,
      "voice": "kick"
    },
    {
      "curvature": 1,
      "cutoff": 7790.4,
      "degree": 22,
      "degreePotential": -0.5281980742778541,
      "duration": 0.10403225806451613,
      "endFrequency": 48.999429497718666,
      "frequency": 48.999429497718666,
      "midi": 31,
      "pan": 0.49679999999999996,
      "phase": 0,
      "role": "lead",
      "source": "ETQ orbit 31, q=2",
      "stateIndex": 97,
      "time": 1.088709677419355,
      "velocity": 0.36000000000000004,
      "waveform": "triangle"
    },
    {
      "curvature": 1,
      "cutoff": 8036.309090909091,
      "degree": 23,
      "degreePotential": -0.48188904172397984,
      "duration": 0.10403225806451613,
      "endFrequency": 48.999429497718666,
      "frequency": 48.999429497718666,
      "midi": 31,
      "pan": 0.49679999999999996,
      "phase": 0,
      "role": "lead",
      "source": "ETQ orbit 28, q=2",
      "stateIndex": 88,
      "time": 1.2096774193548387,
      "velocity": 0.3715151515151516,
      "waveform": "triangle"
    },
    {
      "curvature": -2,
      "cutoff": 11656.090909090908,
      "degree": 43,
      "degreePotential": 0.4442916093535076,
      "duration": 0.10403225806451613,
      "endFrequency": 116.54094037952248,
      "frequency": 116.54094037952248,
      "midi": 46,
      "pan": 0,
      "phase": 0,
      "role": "lead",
      "source": "ETQ orbit 2, q=1",
      "stateIndex": 9,
      "time": 1.3306451612903225,
      "velocity": 0.6818181818181819,
      "waveform": "triangle"
    },
    {
      "curvature": -2,
      "cutoff": 11410.18181818182,
      "degree": 42,
      "degreePotential": 0.39798257679963317,
      "duration": 0.10403225806451613,
      "endFrequency": 116.54094037952248,
      "frequency": 116.54094037952248,
      "midi": 46,
      "pan": 0,
      "phase": 0,
      "role": "stab",
      "source": "ETQ orbit 3, q=1",
      "stateIndex": 12,
      "time": 1.4516129032258065,
      "velocity": 0.6703030303030304,
      "waveform": "triangle"
    },
    {
      "pan": 0,
      "source": "ETQ orbit 3, q=1",
      "time": 1.4516129032258065,
      "velocity": 0.5027272727272728,
      "voice": "snare"
    },
    {
      "curvature": -2,
      "cutoff": 8459.272727272728,
      "degree": 30,
      "degreePotential": -0.15772581384685924,
      "duration": 0.10403225806451613,
      "endFrequency": 73.41619197935188,
      "frequency": 73.41619197935188,
      "midi": 38,
      "pan": 0,
      "phase": 0,
      "role": "lead",
      "source": "ETQ orbit 25, q=1",
      "stateIndex": 78,
      "time": 1.5725806451612905,
      "velocity": 0.5321212121212122,
      "waveform": "triangle"
    },
    {
      "curvature": -2,
      "cutoff": 11410.18181818182,
      "degree": 42,
      "degreePotential": 0.39798257679963317,
      "duration": 0.10403225806451613,
      "endFrequency": 116.54094037952248,
      "frequency": 116.54094037952248,
      "midi": 46,
      "pan": 0,
      "phase": 0,
      "role": "lead",
      "source": "ETQ orbit 5, q=1",
      "stateIndex": 18,
      "time": 1.6935483870967742,
      "velocity": 0.6703030303030304,
      "waveform": "triangle"
    },
    {
      "pan": 0,
      "source": "ETQ orbit 5, q=1",
      "time": 1.6935483870967742,
      "velocity": 0.5027272727272728,
      "voice": "snare"
    },
    {
      "curvature": -2,
      "cutoff": 6492,
      "degree": 22,
      "degreePotential": -0.5281980742778541,
      "duration": 0.10403225806451613,
      "endFrequency": 48.999429497718666,
      "frequency": 48.999429497718666,
      "midi": 31,
      "pan": 0,
      "phase": 0,
      "role": "lead",
      "source": "ETQ orbit 31, q=1",
      "stateIndex": 96,
      "time": 1.814516129032258,
      "velocity": 0.44000000000000006,
      "waveform": "triangle"
    },
    {
      "curvature": 1,
      "cutoff": 12708.581818181818,
      "degree": 42,
      "degreePotential": 0.39798257679963317,
      "duration": 0.10403225806451613,
      "endFrequency": 116.54094037952248,
      "frequency": 116.54094037952248,
      "midi": 46,
      "pan": -0.49679999999999996,
      "phase": 0,
      "role": "stab",
      "source": "ETQ orbit 4, q=0",
      "stateIndex": 14,
      "time": 1.935483870967742,
      "velocity": 0.5903030303030303,
      "waveform": "triangle"
    },
    {
      "pan": -0.17387999999999998,
      "source": "ETQ orbit 4, q=0",
      "time": 1.935483870967742,
      "velocity": 0.44272727272727275,
      "voice": "kick"
    },
    {
      "curvature": 1,
      "cutoff": 10249.49090909091,
      "degree": 32,
      "degreePotential": -0.0651077487391105,
      "duration": 0.10403225806451613,
      "endFrequency": 73.41619197935188,
      "frequency": 73.41619197935188,
      "midi": 38,
      "pan": -0.49679999999999996,
      "phase": 0,
      "role": "lead",
      "source": "ETQ orbit 15, q=0",
      "stateIndex": 47,
      "time": 2.056451612903226,
      "velocity": 0.4751515151515152,
      "waveform": "triangle"
    },
    {
      "curvature": 1,
      "cutoff": 10249.49090909091,
      "degree": 32,
      "degreePotential": -0.0651077487391105,
      "duration": 0.10403225806451613,
      "endFrequency": 73.41619197935188,
      "frequency": 73.41619197935188,
      "midi": 38,
      "pan": -0.49679999999999996,
      "phase": 0,
      "role": "lead",
      "source": "ETQ orbit 16, q=0",
      "stateIndex": 50,
      "time": 2.17741935483871,
      "velocity": 0.4751515151515152,
      "waveform": "triangle"
    },
    {
      "curvature": 1,
      "cutoff": 10249.49090909091,
      "degree": 32,
      "degreePotential": -0.0651077487391105,
      "duration": 0.10403225806451613,
      "endFrequency": 73.41619197935188,
      "frequency": 73.41619197935188,
      "midi": 38,
      "pan": 0.49679999999999996,
      "phase": 0,
      "role": "lead",
      "source": "ETQ orbit 16, q=2",
      "stateIndex": 52,
      "time": 2.2983870967741935,
      "velocity": 0.4751515151515152,
      "waveform": "triangle"
    },
    {
      "curvature": 1,
      "cutoff": 10249.49090909091,
      "degree": 32,
      "degreePotential": -0.0651077487391105,
      "duration": 0.10403225806451613,
      "endFrequency": 73.41619197935188,
      "frequency": 73.41619197935188,
      "midi": 38,
      "pan": -0.49679999999999996,
      "phase": 0,
      "role": "stab",
      "source": "ETQ orbit 16, q=0",
      "stateIndex": 50,
      "time": 2.4193548387096775,
      "velocity": 0.4751515151515152,
      "waveform": "triangle"
    },
    {
      "pan": -0.17387999999999998,
      "source": "ETQ orbit 16, q=0",
      "time": 2.4193548387096775,
      "velocity": 0.35636363636363644,
      "voice": "kick"
    },
    {
      "curvature": 1,
      "cutoff": 12708.581818181818,
      "degree": 42,
      "degreePotential": 0.39798257679963317,
      "duration": 0.10403225806451613,
      "endFrequency": 116.54094037952248,
      "frequency": 116.54094037952248,
      "midi": 46,
      "pan": 0.49679999999999996,
      "phase": 0,
      "role": "lead",
      "source": "ETQ orbit 6, q=2",
      "stateIndex": 22,
      "time": 2.5403225806451615,
      "velocity": 0.5903030303030303,
      "waveform": "triangle"
    },
    {
      "curvature": 1,
      "cutoff": 12954.49090909091,
      "degree": 43,
      "degreePotential": 0.4442916093535076,
      "duration": 0.10403225806451613,
      "endFrequency": 116.54094037952248,
      "frequency": 116.54094037952248,
      "midi": 46,
      "pan": 0.49679999999999996,
      "phase": 0,
      "role": "lead",
      "source": "ETQ orbit 1, q=2",
      "stateIndex": 7,
      "time": 2.661290322580645,
      "velocity": 0.6018181818181818,
      "waveform": "triangle"
    },
    {
      "curvature": 1,
      "cutoff": 10249.49090909091,
      "degree": 32,
      "degreePotential": -0.0651077487391105,
      "duration": 0.10403225806451613,
      "endFrequency": 73.41619197935188,
      "frequency": 73.41619197935188,
      "midi": 38,
      "pan": 0.49679999999999996,
      "phase": 0,
      "role": "lead",
      "source": "ETQ orbit 14, q=2",
      "stateIndex": 46,
      "time": 2.782258064516129,
      "velocity": 0.4751515151515152,
      "waveform": "triangle"
    },
    {
      "curvature": 1,
      "cutoff": 10249.49090909091,
      "degree": 32,
      "degreePotential": -0.0651077487391105,
      "duration": 0.10403225806451613,
      "endFrequency": 73.41619197935188,
      "frequency": 73.41619197935188,
      "midi": 38,
      "pan": -0.49679999999999996,
      "phase": 0,
      "role": "stab",
      "source": "ETQ orbit 15, q=0",
      "stateIndex": 47,
      "time": 2.903225806451613,
      "velocity": 0.4751515151515152,
      "waveform": "triangle"
    },
    {
      "pan": -0.17387999999999998,
      "source": "ETQ orbit 15, q=0",
      "time": 2.903225806451613,
      "velocity": 0.35636363636363644,
      "voice": "kick"
    },
    {
      "curvature": -2,
      "cutoff": 8459.272727272728,
      "degree": 30,
      "degreePotential": -0.15772581384685924,
      "duration": 0.10403225806451613,
      "endFrequency": 73.41619197935188,
      "frequency": 73.41619197935188,
      "midi": 38,
      "pan": 0,
      "phase": 0,
      "role": "lead",
      "source": "ETQ orbit 17, q=1",
      "stateIndex": 54,
      "time": 3.024193548387097,
      "velocity": 0.5321212121212122,
      "waveform": "triangle"
    },
    {
      "curvature": -2,
      "cutoff": 8951.09090909091,
      "degree": 32,
      "degreePotential": -0.0651077487391105,
      "duration": 0.10403225806451613,
      "endFrequency": 73.41619197935188,
      "frequency": 73.41619197935188,
      "midi": 38,
      "pan": 0,
      "phase": 0,
      "role": "lead",
      "source": "ETQ orbit 13, q=1",
      "stateIndex": 42,
      "time": 3.145161290322581,
      "velocity": 0.5551515151515152,
      "waveform": "triangle"
    },
    {
      "pan": 0,
      "source": "ETQ orbit 13, q=1",
      "time": 3.145161290322581,
      "velocity": 0.4163636363636364,
      "voice": "snare"
    },
    {
      "curvature": 1,
      "cutoff": 12708.581818181818,
      "degree": 42,
      "degreePotential": 0.39798257679963317,
      "duration": 0.10403225806451613,
      "endFrequency": 116.54094037952248,
      "frequency": 116.54094037952248,
      "midi": 46,
      "pan": -0.49679999999999996,
      "phase": 0,
      "role": "lead",
      "source": "ETQ orbit 3, q=0",
      "stateIndex": 11,
      "time": 3.2661290322580645,
      "velocity": 0.5903030303030303,
      "waveform": "triangle"
    },
    {
      "curvature": -2,
      "cutoff": 8951.09090909091,
      "degree": 32,
      "degreePotential": -0.0651077487391105,
      "duration": 0.10403225806451613,
      "endFrequency": 73.41619197935188,
      "frequency": 73.41619197935188,
      "midi": 38,
      "pan": 0,
      "phase": 0,
      "role": "stab",
      "source": "ETQ orbit 21, q=1",
      "stateIndex": 66,
      "time": 3.3870967741935485,
      "velocity": 0.5551515151515152,
      "waveform": "triangle"
    },
    {
      "pan": 0,
      "source": "ETQ orbit 21, q=1",
      "time": 3.3870967741935485,
      "velocity": 0.4163636363636364,
      "voice": "snare"
    },
    {
      "curvature": -2,
      "cutoff": 9197,
      "degree": 33,
      "degreePotential": -0.01879871618523613,
      "duration": 0.10403225806451613,
      "endFrequency": 82.4068892282175,
      "frequency": 82.4068892282175,
      "midi": 40,
      "pan": 0,
      "phase": 0,
      "role": "lead",
      "source": "ETQ orbit 19, q=1",
      "stateIndex": 60,
      "time": 3.5080645161290325,
      "velocity": 0.5666666666666667,
      "waveform": "triangle"
    },
    {
      "curvature": -2,
      "cutoff": 8459.272727272728,
      "degree": 30,
      "degreePotential": -0.15772581384685924,
      "duration": 0.10403225806451613,
      "endFrequency": 73.41619197935188,
      "frequency": 73.41619197935188,
      "midi": 38,
      "pan": 0,
      "phase": 0,
      "role": "lead",
      "source": "ETQ orbit 25, q=1",
      "stateIndex": 78,
      "time": 3.629032258064516,
      "velocity": 0.5321212121212122,
      "waveform": "triangle"
    },
    {
      "pan": 0,
      "source": "ETQ orbit 25, q=1",
      "time": 3.629032258064516,
      "velocity": 0.39909090909090916,
      "voice": "snare"
    },
    {
      "curvature": 1,
      "cutoff": 10249.49090909091,
      "degree": 32,
      "degreePotential": -0.0651077487391105,
      "duration": 0.10403225806451613,
      "endFrequency": 73.41619197935188,
      "frequency": 73.41619197935188,
      "midi": 38,
      "pan": -0.49679999999999996,
      "phase": 0,
      "role": "lead",
      "source": "ETQ orbit 23, q=0",
      "stateIndex": 71,
      "time": 3.75,
      "velocity": 0.4751515151515152,
      "waveform": "triangle"
    },
    {
      "curvature": 1,
      "cutoff": 10249.49090909091,
      "degree": 32,
      "degreePotential": -0.0651077487391105,
      "duration": 0.10403225806451613,
      "endFrequency": 73.41619197935188,
      "frequency": 73.41619197935188,
      "midi": 38,
      "pan": -0.49679999999999996,
      "phase": 0,
      "role": "stab",
      "source": "ETQ orbit 15, q=0",
      "stateIndex": 47,
      "time": 3.870967741935484,
      "velocity": 0.4751515151515152,
      "waveform": "triangle"
    },
    {
      "pan": -0.17387999999999998,
      "source": "ETQ orbit 15, q=0",
      "time": 3.870967741935484,
      "velocity": 0.35636363636363644,
      "voice": "kick"
    },
    {
      "curvature": 1,
      "cutoff": 10741.30909090909,
      "degree": 34,
      "degreePotential": 0.027510316368638238,
      "duration": 0.10403225806451613,
      "endFrequency": 82.4068892282175,
      "frequency": 82.4068892282175,
      "midi": 40,
      "pan": -0.49679999999999996,
      "phase": 0,
      "role": "lead",
      "source": "ETQ orbit 9, q=0",
      "stateIndex": 29,
      "time": 3.991935483870968,
      "velocity": 0.4981818181818182,
      "waveform": "triangle"
    },
    {
      "curvature": 1,
      "cutoff": 8036.309090909091,
      "degree": 23,
      "degreePotential": -0.48188904172397984,
      "duration": 0.10403225806451613,
      "endFrequency": 48.999429497718666,
      "frequency": 48.999429497718666,
      "midi": 31,
      "pan": -0.49679999999999996,
      "phase": 0,
      "role": "lead",
      "source": "ETQ orbit 28, q=0",
      "stateIndex": 86,
      "time": 4.112903225806452,
      "velocity": 0.3715151515151516,
      "waveform": "triangle"
    },
    {
      "curvature": 1,
      "cutoff": 10741.30909090909,
      "degree": 34,
      "degreePotential": 0.027510316368638238,
      "duration": 0.10403225806451613,
      "endFrequency": 82.4068892282175,
      "frequency": 82.4068892282175,
      "midi": 40,
      "pan": -0.49679999999999996,
      "phase": 0,
      "role": "lead",
      "source": "ETQ orbit 9, q=0",
      "stateIndex": 29,
      "time": 4.233870967741936,
      "velocity": 0.4981818181818182,
      "waveform": "triangle"
    },
    {
      "curvature": 1,
      "cutoff": 12954.49090909091,
      "degree": 43,
      "degreePotential": 0.4442916093535076,
      "duration": 0.10403225806451613,
      "endFrequency": 116.54094037952248,
      "frequency": 116.54094037952248,
      "midi": 46,
      "pan": -0.49679999999999996,
      "phase": 0,
      "role": "stab",
      "source": "ETQ orbit 1, q=0",
      "stateIndex": 5,
      "time": 4.35483870967742,
      "velocity": 0.6018181818181818,
      "waveform": "triangle"
    },
    {
      "pan": -0.17387999999999998,
      "source": "ETQ orbit 1, q=0",
      "time": 4.35483870967742,
      "velocity": 0.45136363636363636,
      "voice": "kick"
    },
    {
      "curvature": 1,
      "cutoff": 12954.49090909091,
      "degree": 43,
      "degreePotential": 0.4442916093535076,
      "duration": 0.10403225806451613,
      "endFrequency": 116.54094037952248,
      "frequency": 116.54094037952248,
      "midi": 46,
      "pan": -0.49679999999999996,
      "phase": 0,
      "role": "lead",
      "source": "ETQ orbit 2, q=0",
      "stateIndex": 8,
      "time": 4.475806451612903,
      "velocity": 0.6018181818181818,
      "waveform": "triangle"
    },
    {
      "curvature": 1,
      "cutoff": 10741.30909090909,
      "degree": 34,
      "degreePotential": 0.027510316368638238,
      "duration": 0.10403225806451613,
      "endFrequency": 82.4068892282175,
      "frequency": 82.4068892282175,
      "midi": 40,
      "pan": -0.49679999999999996,
      "phase": 0,
      "role": "lead",
      "source": "ETQ orbit 10, q=0",
      "stateIndex": 32,
      "time": 4.596774193548387,
      "velocity": 0.4981818181818182,
      "waveform": "triangle"
    },
    {
      "curvature": 1,
      "cutoff": 12954.49090909091,
      "degree": 43,
      "degreePotential": 0.4442916093535076,
      "duration": 0.10403225806451613,
      "endFrequency": 116.54094037952248,
      "frequency": 116.54094037952248,
      "midi": 46,
      "pan": -0.49679999999999996,
      "phase": 0,
      "role": "lead",
      "source": "ETQ orbit 1, q=0",
      "stateIndex": 5,
      "time": 4.717741935483871,
      "velocity": 0.6018181818181818,
      "waveform": "triangle"
    },
    {
      "curvature": 1,
      "cutoff": 10741.30909090909,
      "degree": 34,
      "degreePotential": 0.027510316368638238,
      "duration": 0.10403225806451613,
      "endFrequency": 82.4068892282175,
      "frequency": 82.4068892282175,
      "midi": 40,
      "pan": -0.49679999999999996,
      "phase": 0,
      "role": "stab",
      "source": "ETQ orbit 9, q=0",
      "stateIndex": 29,
      "time": 4.838709677419355,
      "velocity": 0.4981818181818182,
      "waveform": "triangle"
    },
    {
      "pan": -0.17387999999999998,
      "source": "ETQ orbit 9, q=0",
      "time": 4.838709677419355,
      "velocity": 0.37363636363636366,
      "voice": "kick"
    },
    {
      "curvature": 1,
      "cutoff": 12216.763636363634,
      "degree": 40,
      "degreePotential": 0.30536451169188444,
      "duration": 0.10403225806451613,
      "endFrequency": 110,
      "frequency": 110,
      "midi": 45,
      "pan": -0.49679999999999996,
      "phase": 0,
      "role": "lead",
      "source": "ETQ orbit 7, q=0",
      "stateIndex": 23,
      "time": 4.959677419354839,
      "velocity": 0.5672727272727273,
      "waveform": "triangle"
    },
    {
      "curvature": -2,
      "cutoff": 8459.272727272728,
      "degree": 30,
      "degreePotential": -0.15772581384685924,
      "duration": 0.10403225806451613,
      "endFrequency": 73.41619197935188,
      "frequency": 73.41619197935188,
      "midi": 38,
      "pan": 0,
      "phase": 0,
      "role": "lead",
      "source": "ETQ orbit 25, q=1",
      "stateIndex": 78,
      "time": 5.080645161290323,
      "velocity": 0.5321212121212122,
      "waveform": "triangle"
    },
    {
      "pan": 0,
      "source": "ETQ orbit 25, q=1",
      "time": 5.080645161290323,
      "velocity": 0.39909090909090916,
      "voice": "snare"
    },
    {
      "curvature": 1,
      "cutoff": 9757.672727272728,
      "degree": 30,
      "degreePotential": -0.15772581384685924,
      "duration": 0.10403225806451613,
      "endFrequency": 73.41619197935188,
      "frequency": 73.41619197935188,
      "midi": 38,
      "pan": -0.49679999999999996,
      "phase": 0,
      "role": "lead",
      "source": "ETQ orbit 26, q=0",
      "stateIndex": 80,
      "time": 5.201612903225807,
      "velocity": 0.4521212121212122,
      "waveform": "triangle"
    },
    {
      "curvature": 1,
      "cutoff": 12216.763636363634,
      "degree": 40,
      "degreePotential": 0.30536451169188444,
      "duration": 0.10403225806451613,
      "endFrequency": 110,
      "frequency": 110,
      "midi": 45,
      "pan": 0.49679999999999996,
      "phase": 0,
      "role": "stab",
      "source": "ETQ orbit 8, q=2",
      "stateIndex": 28,
      "time": 5.32258064516129,
      "velocity": 0.5672727272727273,
      "waveform": "triangle"
    },
    {
      "pan": 0.17387999999999998,
      "source": "ETQ orbit 8, q=2",
      "time": 5.32258064516129,
      "velocity": 0.4254545454545454,
      "voice": "kick"
    },
    {
      "curvature": -2,
      "cutoff": 11410.18181818182,
      "degree": 42,
      "degreePotential": 0.39798257679963317,
      "duration": 0.10403225806451613,
      "endFrequency": 116.54094037952248,
      "frequency": 116.54094037952248,
      "midi": 46,
      "pan": 0,
      "phase": 0,
      "role": "lead",
      "source": "ETQ orbit 4, q=1",
      "stateIndex": 15,
      "time": 5.443548387096774,
      "velocity": 0.6703030303030304,
      "waveform": "triangle"
    },
    {
      "curvature": -2,
      "cutoff": 8951.09090909091,
      "degree": 32,
      "degreePotential": -0.0651077487391105,
      "duration": 0.10403225806451613,
      "endFrequency": 73.41619197935188,
      "frequency": 73.41619197935188,
      "midi": 38,
      "pan": 0,
      "phase": 0,
      "role": "lead",
      "source": "ETQ orbit 21, q=1",
      "stateIndex": 66,
      "time": 5.564516129032258,
      "velocity": 0.5551515151515152,
      "waveform": "triangle"
    },
    {
      "pan": 0,
      "source": "ETQ orbit 21, q=1",
      "time": 5.564516129032258,
      "velocity": 0.4163636363636364,
      "voice": "snare"
    },
    {
      "curvature": 0,
      "cutoff": 15905.4,
      "degree": 55,
      "degreePotential": 1,
      "duration": 0.10403225806451613,
      "endFrequency": 195.99771799087463,
      "frequency": 195.99771799087463,
      "midi": 55,
      "pan": 0,
      "phase": 0,
      "role": "lead",
      "source": "ETQ singlet 1",
      "stateIndex": 1,
      "time": 5.685483870967742,
      "velocity": 0.66,
      "waveform": "triangle"
    },
    {
      "curvature": -2,
      "cutoff": 11410.18181818182,
      "degree": 42,
      "degreePotential": 0.39798257679963317,
      "duration": 0.10403225806451613,
      "endFrequency": 116.54094037952248,
      "frequency": 116.54094037952248,
      "midi": 46,
      "pan": 0,
      "phase": 0,
      "role": "stab",
      "source": "ETQ orbit 5, q=1",
      "stateIndex": 18,
      "time": 5.806451612903226,
      "velocity": 0.6703030303030304,
      "waveform": "triangle"
    },
    {
      "pan": 0,
      "source": "ETQ orbit 5, q=1",
      "time": 5.806451612903226,
      "velocity": 0.5027272727272728,
      "voice": "snare"
    },
    {
      "curvature": 1,
      "cutoff": 10495.4,
      "degree": 33,
      "degreePotential": -0.01879871618523613,
      "duration": 0.10403225806451613,
      "endFrequency": 82.4068892282175,
      "frequency": 82.4068892282175,
      "midi": 40,
      "pan": 0.49679999999999996,
      "phase": 0,
      "role": "lead",
      "source": "ETQ orbit 12, q=2",
      "stateIndex": 40,
      "time": 5.92741935483871,
      "velocity": 0.4866666666666667,
      "waveform": "triangle"
    },
    {
      "curvature": 1,
      "cutoff": 12708.581818181818,
      "degree": 42,
      "degreePotential": 0.39798257679963317,
      "duration": 0.10403225806451613,
      "endFrequency": 116.54094037952248,
      "frequency": 116.54094037952248,
      "midi": 46,
      "pan": 0.49679999999999996,
      "phase": 0,
      "role": "lead",
      "source": "ETQ orbit 4, q=2",
      "stateIndex": 16,
      "time": 6.048387096774194,
      "velocity": 0.5903030303030303,
      "waveform": "triangle"
    },
    {
      "curvature": 1,
      "cutoff": 12708.581818181818,
      "degree": 42,
      "degreePotential": 0.39798257679963317,
      "duration": 0.10403225806451613,
      "endFrequency": 116.54094037952248,
      "frequency": 116.54094037952248,
      "midi": 46,
      "pan": -0.49679999999999996,
      "phase": 0,
      "role": "lead",
      "source": "ETQ orbit 3, q=0",
      "stateIndex": 11,
      "time": 6.169354838709678,
      "velocity": 0.5903030303030303,
      "waveform": "triangle"
    },
    {
      "curvature": -2,
      "cutoff": 8951.09090909091,
      "degree": 32,
      "degreePotential": -0.0651077487391105,
      "duration": 0.10403225806451613,
      "endFrequency": 73.41619197935188,
      "frequency": 73.41619197935188,
      "midi": 38,
      "pan": 0,
      "phase": 0,
      "role": "stab",
      "source": "ETQ orbit 14, q=1",
      "stateIndex": 45,
      "time": 6.290322580645162,
      "velocity": 0.5551515151515152,
      "waveform": "triangle"
    },
    {
      "pan": 0,
      "source": "ETQ orbit 14, q=1",
      "time": 6.290322580645162,
      "velocity": 0.4163636363636364,
      "voice": "snare"
    },
    {
      "curvature": -2,
      "cutoff": 9197,
      "degree": 33,
      "degreePotential": -0.01879871618523613,
      "duration": 0.10403225806451613,
      "endFrequency": 82.4068892282175,
      "frequency": 82.4068892282175,
      "midi": 40,
      "pan": 0,
      "phase": 0,
      "role": "lead",
      "source": "ETQ orbit 12, q=1",
      "stateIndex": 39,
      "time": 6.411290322580645,
      "velocity": 0.5666666666666667,
      "waveform": "triangle"
    },
    {
      "curvature": -2,
      "cutoff": 9442.90909090909,
      "degree": 34,
      "degreePotential": 0.027510316368638238,
      "duration": 0.10403225806451613,
      "endFrequency": 82.4068892282175,
      "frequency": 82.4068892282175,
      "midi": 40,
      "pan": 0,
      "phase": 0,
      "role": "lead",
      "source": "ETQ orbit 9, q=1",
      "stateIndex": 30,
      "time": 6.532258064516129,
      "velocity": 0.5781818181818182,
      "waveform": "triangle"
    },
    {
      "pan": 0,
      "source": "ETQ orbit 9, q=1",
      "time": 6.532258064516129,
      "velocity": 0.4336363636363637,
      "voice": "snare"
    },
    {
      "curvature": 1,
      "cutoff": 10249.49090909091,
      "degree": 32,
      "degreePotential": -0.0651077487391105,
      "duration": 0.10403225806451613,
      "endFrequency": 73.41619197935188,
      "frequency": 73.41619197935188,
      "midi": 38,
      "pan": 0.49679999999999996,
      "phase": 0,
      "role": "lead",
      "source": "ETQ orbit 14, q=2",
      "stateIndex": 46,
      "time": 6.653225806451613,
      "velocity": 0.4751515151515152,
      "waveform": "triangle"
    },
    {
      "curvature": 1,
      "cutoff": 12708.581818181818,
      "degree": 42,
      "degreePotential": 0.39798257679963317,
      "duration": 0.10403225806451613,
      "endFrequency": 116.54094037952248,
      "frequency": 116.54094037952248,
      "midi": 46,
      "pan": 0.49679999999999996,
      "phase": 0,
      "role": "stab",
      "source": "ETQ orbit 6, q=2",
      "stateIndex": 22,
      "time": 6.774193548387097,
      "velocity": 0.5903030303030303,
      "waveform": "triangle"
    },
    {
      "pan": 0.17387999999999998,
      "source": "ETQ orbit 6, q=2",
      "time": 6.774193548387097,
      "velocity": 0.44272727272727275,
      "voice": "kick"
    },
    {
      "curvature": 1,
      "cutoff": 12954.49090909091,
      "degree": 43,
      "degreePotential": 0.4442916093535076,
      "duration": 0.10403225806451613,
      "endFrequency": 116.54094037952248,
      "frequency": 116.54094037952248,
      "midi": 46,
      "pan": 0.49679999999999996,
      "phase": 0,
      "role": "lead",
      "source": "ETQ orbit 2, q=2",
      "stateIndex": 10,
      "time": 6.895161290322581,
      "velocity": 0.6018181818181818,
      "waveform": "triangle"
    },
    {
      "curvature": 1,
      "cutoff": 10249.49090909091,
      "degree": 32,
      "degreePotential": -0.0651077487391105,
      "duration": 0.10403225806451613,
      "endFrequency": 73.41619197935188,
      "frequency": 73.41619197935188,
      "midi": 38,
      "pan": -0.49679999999999996,
      "phase": 0,
      "role": "lead",
      "source": "ETQ orbit 14, q=0",
      "stateIndex": 44,
      "time": 7.016129032258065,
      "velocity": 0.4751515151515152,
      "waveform": "triangle"
    },
    {
      "curvature": 1,
      "cutoff": 10741.30909090909,
      "degree": 34,
      "degreePotential": 0.027510316368638238,
      "duration": 0.10403225806451613,
      "endFrequency": 82.4068892282175,
      "frequency": 82.4068892282175,
      "midi": 40,
      "pan": 0.49679999999999996,
      "phase": 0,
      "role": "lead",
      "source": "ETQ orbit 9, q=2",
      "stateIndex": 31,
      "time": 7.137096774193549,
      "velocity": 0.4981818181818182,
      "waveform": "triangle"
    },
    {
      "curvature": 1,
      "cutoff": 12216.763636363634,
      "degree": 40,
      "degreePotential": 0.30536451169188444,
      "duration": 0.10403225806451613,
      "endFrequency": 110,
      "frequency": 110,
      "midi": 45,
      "pan": 0.49679999999999996,
      "phase": 0,
      "role": "stab",
      "source": "ETQ orbit 7, q=2",
      "stateIndex": 25,
      "time": 7.258064516129032,
      "velocity": 0.5672727272727273,
      "waveform": "triangle"
    },
    {
      "pan": 0.17387999999999998,
      "source": "ETQ orbit 7, q=2",
      "time": 7.258064516129032,
      "velocity": 0.4254545454545454,
      "voice": "kick"
    },
    {
      "curvature": 1,
      "cutoff": 9757.672727272728,
      "degree": 30,
      "degreePotential": -0.15772581384685924,
      "duration": 0.10403225806451613,
      "endFrequency": 73.41619197935188,
      "frequency": 73.41619197935188,
      "midi": 38,
      "pan": -0.49679999999999996,
      "phase": 0,
      "role": "lead",
      "source": "ETQ orbit 17, q=0",
      "stateIndex": 53,
      "time": 7.379032258064516,
      "velocity": 0.4521212121212122,
      "waveform": "triangle"
    },
    {
      "curvature": 1,
      "cutoff": 10249.49090909091,
      "degree": 32,
      "degreePotential": -0.0651077487391105,
      "duration": 0.10403225806451613,
      "endFrequency": 73.41619197935188,
      "frequency": 73.41619197935188,
      "midi": 38,
      "pan": -0.49679999999999996,
      "phase": 0,
      "role": "lead",
      "source": "ETQ orbit 13, q=0",
      "stateIndex": 41,
      "time": 7.5,
      "velocity": 0.4751515151515152,
      "waveform": "triangle"
    },
    {
      "curvature": -2,
      "cutoff": 11410.18181818182,
      "degree": 42,
      "degreePotential": 0.39798257679963317,
      "duration": 0.10403225806451613,
      "endFrequency": 116.54094037952248,
      "frequency": 116.54094037952248,
      "midi": 46,
      "pan": 0,
      "phase": 0,
      "role": "lead",
      "source": "ETQ orbit 3, q=1",
      "stateIndex": 12,
      "time": 7.620967741935484,
      "velocity": 0.6703030303030304,
      "waveform": "triangle"
    },
    {
      "curvature": -2,
      "cutoff": 8951.09090909091,
      "degree": 32,
      "degreePotential": -0.0651077487391105,
      "duration": 0.10403225806451613,
      "endFrequency": 73.41619197935188,
      "frequency": 73.41619197935188,
      "midi": 38,
      "pan": 0,
      "phase": 0,
      "role": "stab",
      "source": "ETQ orbit 13, q=1",
      "stateIndex": 42,
      "time": 7.741935483870968,
      "velocity": 0.5551515151515152,
      "waveform": "triangle"
    },
    {
      "pan": 0,
      "source": "ETQ orbit 13, q=1",
      "time": 7.741935483870968,
      "velocity": 0.4163636363636364,
      "voice": "snare"
    },
    {
      "curvature": 1,
      "cutoff": 12216.763636363634,
      "degree": 40,
      "degreePotential": 0.30536451169188444,
      "duration": 0.10403225806451613,
      "endFrequency": 110,
      "frequency": 110,
      "midi": 45,
      "pan": -0.49679999999999996,
      "phase": 0,
      "role": "lead",
      "source": "ETQ orbit 7, q=0",
      "stateIndex": 23,
      "time": 7.862903225806452,
      "velocity": 0.5672727272727273,
      "waveform": "triangle"
    },
    {
      "curvature": 1,
      "cutoff": 9757.672727272728,
      "degree": 30,
      "degreePotential": -0.15772581384685924,
      "duration": 0.10403225806451613,
      "endFrequency": 73.41619197935188,
      "frequency": 73.41619197935188,
      "midi": 38,
      "pan": 0.49679999999999996,
      "phase": 0,
      "role": "lead",
      "source": "ETQ orbit 17, q=2",
      "stateIndex": 55,
      "time": 7.983870967741936,
      "velocity": 0.4521212121212122,
      "waveform": "triangle"
    },
    {
      "curvature": 1,
      "cutoff": 10249.49090909091,
      "degree": 32,
      "degreePotential": -0.0651077487391105,
      "duration": 0.10403225806451613,
      "endFrequency": 73.41619197935188,
      "frequency": 73.41619197935188,
      "midi": 38,
      "pan": 0.49679999999999996,
      "phase": 0,
      "role": "lead",
      "source": "ETQ orbit 15, q=2",
      "stateIndex": 49,
      "time": 8.10483870967742,
      "velocity": 0.4751515151515152,
      "waveform": "triangle"
    },
    {
      "curvature": 0,
      "cutoff": 15905.4,
      "degree": 55,
      "degreePotential": 1,
      "duration": 0.10403225806451613,
      "endFrequency": 48.999429497718666,
      "frequency": 48.999429497718666,
      "midi": 31,
      "pan": 0,
      "phase": 0,
      "role": "stab",
      "source": "ETQ singlet 0",
      "stateIndex": 0,
      "time": 8.225806451612904,
      "velocity": 0.66,
      "waveform": "triangle"
    },
    {
      "pan": 0,
      "source": "ETQ singlet 0",
      "time": 8.225806451612904,
      "velocity": 0.495,
      "voice": "kick"
    },
    {
      "curvature": 1,
      "cutoff": 10249.49090909091,
      "degree": 32,
      "degreePotential": -0.0651077487391105,
      "duration": 0.10403225806451613,
      "endFrequency": 73.41619197935188,
      "frequency": 73.41619197935188,
      "midi": 38,
      "pan": 0.49679999999999996,
      "phase": 0,
      "role": "lead",
      "source": "ETQ orbit 16, q=2",
      "stateIndex": 52,
      "time": 8.346774193548388,
      "velocity": 0.4751515151515152,
      "waveform": "triangle"
    },
    {
      "curvature": -2,
      "cutoff": 8459.272727272728,
      "degree": 30,
      "degreePotential": -0.15772581384685924,
      "duration": 0.10403225806451613,
      "endFrequency": 73.41619197935188,
      "frequency": 73.41619197935188,
      "midi": 38,
      "pan": 0,
      "phase": 0,
      "role": "lead",
      "source": "ETQ orbit 18, q=1",
      "stateIndex": 57,
      "time": 8.467741935483872,
      "velocity": 0.5321212121212122,
      "waveform": "triangle"
    },
    {
      "pan": 0,
      "source": "ETQ orbit 18, q=1",
      "time": 8.467741935483872,
      "velocity": 0.39909090909090916,
      "voice": "snare"
    },
    {
      "curvature": 1,
      "cutoff": 10249.49090909091,
      "degree": 32,
      "degreePotential": -0.0651077487391105,
      "duration": 0.10403225806451613,
      "endFrequency": 73.41619197935188,
      "frequency": 73.41619197935188,
      "midi": 38,
      "pan": 0.49679999999999996,
      "phase": 0,
      "role": "lead",
      "source": "ETQ orbit 15, q=2",
      "stateIndex": 49,
      "time": 8.588709677419356,
      "velocity": 0.4751515151515152,
      "waveform": "triangle"
    },
    {
      "curvature": 1,
      "cutoff": 10249.49090909091,
      "degree": 32,
      "degreePotential": -0.0651077487391105,
      "duration": 0.10403225806451613,
      "endFrequency": 73.41619197935188,
      "frequency": 73.41619197935188,
      "midi": 38,
      "pan": -0.49679999999999996,
      "phase": 0,
      "role": "stab",
      "source": "ETQ orbit 16, q=0",
      "stateIndex": 50,
      "time": 8.70967741935484,
      "velocity": 0.4751515151515152,
      "waveform": "triangle"
    },
    {
      "pan": -0.17387999999999998,
      "source": "ETQ orbit 16, q=0",
      "time": 8.70967741935484,
      "velocity": 0.35636363636363644,
      "voice": "kick"
    },
    {
      "curvature": 1,
      "cutoff": 7790.4,
      "degree": 22,
      "degreePotential": -0.5281980742778541,
      "duration": 0.10403225806451613,
      "endFrequency": 48.999429497718666,
      "frequency": 48.999429497718666,
      "midi": 31,
      "pan": -0.49679999999999996,
      "phase": 0,
      "role": "lead",
      "source": "ETQ orbit 32, q=0",
      "stateIndex": 98,
      "time": 8.830645161290322,
      "velocity": 0.36000000000000004,
      "waveform": "triangle"
    },
    {
      "curvature": 1,
      "cutoff": 12216.763636363634,
      "degree": 40,
      "degreePotential": 0.30536451169188444,
      "duration": 0.10403225806451613,
      "endFrequency": 110,
      "frequency": 110,
      "midi": 45,
      "pan": -0.49679999999999996,
      "phase": 0,
      "role": "lead",
      "source": "ETQ orbit 8, q=0",
      "stateIndex": 26,
      "time": 8.951612903225806,
      "velocity": 0.5672727272727273,
      "waveform": "triangle"
    },
    {
      "curvature": 1,
      "cutoff": 10741.30909090909,
      "degree": 34,
      "degreePotential": 0.027510316368638238,
      "duration": 0.10403225806451613,
      "endFrequency": 82.4068892282175,
      "frequency": 82.4068892282175,
      "midi": 40,
      "pan": -0.49679999999999996,
      "phase": 0,
      "role": "lead",
      "source": "ETQ orbit 10, q=0",
      "stateIndex": 32,
      "time": 9.07258064516129,
      "velocity": 0.4981818181818182,
      "waveform": "triangle"
    },
    {
      "curvature": 1,
      "cutoff": 7790.4,
      "degree": 22,
      "degreePotential": -0.5281980742778541,
      "duration": 0.10403225806451613,
      "endFrequency": 48.999429497718666,
      "frequency": 48.999429497718666,
      "midi": 31,
      "pan": -0.49679999999999996,
      "phase": 0,
      "role": "stab",
      "source": "ETQ orbit 29, q=0",
      "stateIndex": 89,
      "time": 9.193548387096774,
      "velocity": 0.36000000000000004,
      "waveform": "triangle"
    },
    {
      "pan": -0.17387999999999998,
      "source": "ETQ orbit 29, q=0",
      "time": 9.193548387096774,
      "velocity": 0.27,
      "voice": "kick"
    },
    {
      "curvature": 1,
      "cutoff": 10249.49090909091,
      "degree": 32,
      "degreePotential": -0.0651077487391105,
      "duration": 0.10403225806451613,
      "endFrequency": 73.41619197935188,
      "frequency": 73.41619197935188,
      "midi": 38,
      "pan": -0.49679999999999996,
      "phase": 0,
      "role": "lead",
      "source": "ETQ orbit 13, q=0",
      "stateIndex": 41,
      "time": 9.314516129032258,
      "velocity": 0.4751515151515152,
      "waveform": "triangle"
    },
    {
      "curvature": 1,
      "cutoff": 10249.49090909091,
      "degree": 32,
      "degreePotential": -0.0651077487391105,
      "duration": 0.10403225806451613,
      "endFrequency": 73.41619197935188,
      "frequency": 73.41619197935188,
      "midi": 38,
      "pan": -0.49679999999999996,
      "phase": 0,
      "role": "lead",
      "source": "ETQ orbit 14, q=0",
      "stateIndex": 44,
      "time": 9.435483870967742,
      "velocity": 0.4751515151515152,
      "waveform": "triangle"
    },
    {
      "curvature": 0,
      "cutoff": 15905.4,
      "degree": 55,
      "degreePotential": 1,
      "duration": 0.10403225806451613,
      "endFrequency": 48.999429497718666,
      "frequency": 48.999429497718666,
      "midi": 31,
      "pan": 0,
      "phase": 0,
      "role": "lead",
      "source": "ETQ singlet 0",
      "stateIndex": 0,
      "time": 9.556451612903226,
      "velocity": 0.66,
      "waveform": "triangle"
    },
    {
      "curvature": 1,
      "cutoff": 9757.672727272728,
      "degree": 30,
      "degreePotential": -0.15772581384685924,
      "duration": 0.10403225806451613,
      "endFrequency": 73.41619197935188,
      "frequency": 73.41619197935188,
      "midi": 38,
      "pan": 0.49679999999999996,
      "phase": 0,
      "role": "stab",
      "source": "ETQ orbit 18, q=2",
      "stateIndex": 58,
      "time": 9.67741935483871,
      "velocity": 0.4521212121212122,
      "waveform": "triangle"
    },
    {
      "pan": 0.17387999999999998,
      "source": "ETQ orbit 18, q=2",
      "time": 9.67741935483871,
      "velocity": 0.33909090909090916,
      "voice": "kick"
    },
    {
      "curvature": -2,
      "cutoff": 11410.18181818182,
      "degree": 42,
      "degreePotential": 0.39798257679963317,
      "duration": 0.10403225806451613,
      "endFrequency": 116.54094037952248,
      "frequency": 116.54094037952248,
      "midi": 46,
      "pan": 0,
      "phase": 0,
      "role": "lead",
      "source": "ETQ orbit 5, q=1",
      "stateIndex": 18,
      "time": 9.798387096774194,
      "velocity": 0.6703030303030304,
      "waveform": "triangle"
    },
    {
      "curvature": -2,
      "cutoff": 6737.90909090909,
      "degree": 23,
      "degreePotential": -0.48188904172397984,
      "duration": 0.10403225806451613,
      "endFrequency": 48.999429497718666,
      "frequency": 48.999429497718666,
      "midi": 31,
      "pan": 0,
      "phase": 0,
      "role": "lead",
      "source": "ETQ orbit 28, q=1",
      "stateIndex": 87,
      "time": 9.919354838709678,
      "velocity": 0.45151515151515154,
      "waveform": "triangle"
    },
    {
      "pan": 0,
      "source": "ETQ orbit 28, q=1",
      "time": 9.919354838709678,
      "velocity": 0.3386363636363636,
      "voice": "snare"
    },
    {
      "curvature": -2,
      "cutoff": 9197,
      "degree": 33,
      "degreePotential": -0.01879871618523613,
      "duration": 0.10403225806451613,
      "endFrequency": 82.4068892282175,
      "frequency": 82.4068892282175,
      "midi": 40,
      "pan": 0,
      "phase": 0,
      "role": "lead",
      "source": "ETQ orbit 19, q=1",
      "stateIndex": 60,
      "time": 10.040322580645162,
      "velocity": 0.5666666666666667,
      "waveform": "triangle"
    },
    {
      "curvature": 1,
      "cutoff": 10741.30909090909,
      "degree": 34,
      "degreePotential": 0.027510316368638238,
      "duration": 0.10403225806451613,
      "endFrequency": 82.4068892282175,
      "frequency": 82.4068892282175,
      "midi": 40,
      "pan": -0.49679999999999996,
      "phase": 0,
      "role": "stab",
      "source": "ETQ orbit 10, q=0",
      "stateIndex": 32,
      "time": 10.161290322580646,
      "velocity": 0.4981818181818182,
      "waveform": "triangle"
    },
    {
      "pan": -0.17387999999999998,
      "source": "ETQ orbit 10, q=0",
      "time": 10.161290322580646,
      "velocity": 0.37363636363636366,
      "voice": "kick"
    },
    {
      "curvature": 1,
      "cutoff": 8036.309090909091,
      "degree": 23,
      "degreePotential": -0.48188904172397984,
      "duration": 0.10403225806451613,
      "endFrequency": 48.999429497718666,
      "frequency": 48.999429497718666,
      "midi": 31,
      "pan": -0.49679999999999996,
      "phase": 0,
      "role": "lead",
      "source": "ETQ orbit 28, q=0",
      "stateIndex": 86,
      "time": 10.28225806451613,
      "velocity": 0.3715151515151516,
      "waveform": "triangle"
    },
    {
      "curvature": 1,
      "cutoff": 10741.30909090909,
      "degree": 34,
      "degreePotential": 0.027510316368638238,
      "duration": 0.10403225806451613,
      "endFrequency": 82.4068892282175,
      "frequency": 82.4068892282175,
      "midi": 40,
      "pan": -0.49679999999999996,
      "phase": 0,
      "role": "lead",
      "source": "ETQ orbit 10, q=0",
      "stateIndex": 32,
      "time": 10.403225806451614,
      "velocity": 0.4981818181818182,
      "waveform": "triangle"
    },
    {
      "curvature": 1,
      "cutoff": 10741.30909090909,
      "degree": 34,
      "degreePotential": 0.027510316368638238,
      "duration": 0.10403225806451613,
      "endFrequency": 82.4068892282175,
      "frequency": 82.4068892282175,
      "midi": 40,
      "pan": -0.49679999999999996,
      "phase": 0,
      "role": "lead",
      "source": "ETQ orbit 9, q=0",
      "stateIndex": 29,
      "time": 10.524193548387098,
      "velocity": 0.4981818181818182,
      "waveform": "triangle"
    },
    {
      "curvature": 1,
      "cutoff": 12954.49090909091,
      "degree": 43,
      "degreePotential": 0.4442916093535076,
      "duration": 0.10403225806451613,
      "endFrequency": 116.54094037952248,
      "frequency": 116.54094037952248,
      "midi": 46,
      "pan": -0.49679999999999996,
      "phase": 0,
      "role": "stab",
      "source": "ETQ orbit 2, q=0",
      "stateIndex": 8,
      "time": 10.64516129032258,
      "velocity": 0.6018181818181818,
      "waveform": "triangle"
    },
    {
      "pan": -0.17387999999999998,
      "source": "ETQ orbit 2, q=0",
      "time": 10.64516129032258,
      "velocity": 0.45136363636363636,
      "voice": "kick"
    },
    {
      "curvature": 1,
      "cutoff": 7790.4,
      "degree": 22,
      "degreePotential": -0.5281980742778541,
      "duration": 0.10403225806451613,
      "endFrequency": 48.999429497718666,
      "frequency": 48.999429497718666,
      "midi": 31,
      "pan": -0.49679999999999996,
      "phase": 0,
      "role": "lead",
      "source": "ETQ orbit 31, q=0",
      "stateIndex": 95,
      "time": 10.766129032258064,
      "velocity": 0.36000000000000004,
      "waveform": "triangle"
    },
    {
      "curvature": 1,
      "cutoff": 9757.672727272728,
      "degree": 30,
      "degreePotential": -0.15772581384685924,
      "duration": 0.10403225806451613,
      "endFrequency": 73.41619197935188,
      "frequency": 73.41619197935188,
      "midi": 38,
      "pan": -0.49679999999999996,
      "phase": 0,
      "role": "lead",
      "source": "ETQ orbit 17, q=0",
      "stateIndex": 53,
      "time": 10.887096774193548,
      "velocity": 0.4521212121212122,
      "waveform": "triangle"
    },
    {
      "curvature": 1,
      "cutoff": 13200.4,
      "degree": 44,
      "degreePotential": 0.49060064190738195,
      "duration": 0.10403225806451613,
      "endFrequency": 130.8127826502993,
      "frequency": 130.8127826502993,
      "midi": 48,
      "pan": -0.49679999999999996,
      "phase": 0,
      "role": "lead",
      "source": "ETQ orbit 0, q=0",
      "stateIndex": 2,
      "time": 11.008064516129032,
      "velocity": 0.6133333333333333,
      "waveform": "triangle"
    },
    {
      "curvature": 1,
      "cutoff": 12216.763636363634,
      "degree": 40,
      "degreePotential": 0.30536451169188444,
      "duration": 0.10403225806451613,
      "endFrequency": 110,
      "frequency": 110,
      "midi": 45,
      "pan": -0.49679999999999996,
      "phase": 0,
      "role": "stab",
      "source": "ETQ orbit 8, q=0",
      "stateIndex": 26,
      "time": 11.129032258064516,
      "velocity": 0.5672727272727273,
      "waveform": "triangle"
    },
    {
      "pan": -0.17387999999999998,
      "source": "ETQ orbit 8, q=0",
      "time": 11.129032258064516,
      "velocity": 0.4254545454545454,
      "voice": "kick"
    },
    {
      "curvature": -2,
      "cutoff": 8459.272727272728,
      "degree": 30,
      "degreePotential": -0.15772581384685924,
      "duration": 0.10403225806451613,
      "endFrequency": 73.41619197935188,
      "frequency": 73.41619197935188,
      "midi": 38,
      "pan": 0,
      "phase": 0,
      "role": "lead",
      "source": "ETQ orbit 26, q=1",
      "stateIndex": 81,
      "time": 11.25,
      "velocity": 0.5321212121212122,
      "waveform": "triangle"
    },
    {
      "curvature": 1,
      "cutoff": 9757.672727272728,
      "degree": 30,
      "degreePotential": -0.15772581384685924,
      "duration": 0.10403225806451613,
      "endFrequency": 73.41619197935188,
      "frequency": 73.41619197935188,
      "midi": 38,
      "pan": -0.49679999999999996,
      "phase": 0,
      "role": "lead",
      "source": "ETQ orbit 25, q=0",
      "stateIndex": 77,
      "time": 11.370967741935484,
      "velocity": 0.4521212121212122,
      "waveform": "triangle"
    },
    {
      "curvature": 1,
      "cutoff": 12216.763636363634,
      "degree": 40,
      "degreePotential": 0.30536451169188444,
      "duration": 0.10403225806451613,
      "endFrequency": 110,
      "frequency": 110,
      "midi": 45,
      "pan": -0.49679999999999996,
      "phase": 0,
      "role": "lead",
      "source": "ETQ orbit 8, q=0",
      "stateIndex": 26,
      "time": 11.491935483870968,
      "velocity": 0.5672727272727273,
      "waveform": "triangle"
    },
    {
      "curvature": -2,
      "cutoff": 8951.09090909091,
      "degree": 32,
      "degreePotential": -0.0651077487391105,
      "duration": 0.10403225806451613,
      "endFrequency": 73.41619197935188,
      "frequency": 73.41619197935188,
      "midi": 38,
      "pan": 0,
      "phase": 0,
      "role": "stab",
      "source": "ETQ orbit 24, q=1",
      "stateIndex": 75,
      "time": 11.612903225806452,
      "velocity": 0.5551515151515152,
      "waveform": "triangle"
    },
    {
      "pan": 0,
      "source": "ETQ orbit 24, q=1",
      "time": 11.612903225806452,
      "velocity": 0.4163636363636364,
      "voice": "snare"
    },
    {
      "curvature": -2,
      "cutoff": 9197,
      "degree": 33,
      "degreePotential": -0.01879871618523613,
      "duration": 0.10403225806451613,
      "endFrequency": 82.4068892282175,
      "frequency": 82.4068892282175,
      "midi": 40,
      "pan": 0,
      "phase": 0,
      "role": "lead",
      "source": "ETQ orbit 20, q=1",
      "stateIndex": 63,
      "time": 11.733870967741936,
      "velocity": 0.5666666666666667,
      "waveform": "triangle"
    },
    {
      "curvature": 1,
      "cutoff": 10495.4,
      "degree": 33,
      "degreePotential": -0.01879871618523613,
      "duration": 0.10403225806451613,
      "endFrequency": 82.4068892282175,
      "frequency": 82.4068892282175,
      "midi": 40,
      "pan": 0.49679999999999996,
      "phase": 0,
      "role": "lead",
      "source": "ETQ orbit 20, q=2",
      "stateIndex": 64,
      "time": 11.85483870967742,
      "velocity": 0.4866666666666667,
      "waveform": "triangle"
    },
    {
      "curvature": 1,
      "cutoff": 7790.4,
      "degree": 22,
      "degreePotential": -0.5281980742778541,
      "duration": 0.10403225806451613,
      "endFrequency": 48.999429497718666,
      "frequency": 48.999429497718666,
      "midi": 31,
      "pan": 0.49679999999999996,
      "phase": 0,
      "role": "lead",
      "source": "ETQ orbit 30, q=2",
      "stateIndex": 94,
      "time": 11.975806451612904,
      "velocity": 0.36000000000000004,
      "waveform": "triangle"
    },
    {
      "curvature": -2,
      "cutoff": 11410.18181818182,
      "degree": 42,
      "degreePotential": 0.39798257679963317,
      "duration": 0.10403225806451613,
      "endFrequency": 116.54094037952248,
      "frequency": 116.54094037952248,
      "midi": 46,
      "pan": 0,
      "phase": 0,
      "role": "stab",
      "source": "ETQ orbit 5, q=1",
      "stateIndex": 18,
      "time": 12.096774193548388,
      "velocity": 0.6703030303030304,
      "waveform": "triangle"
    },
    {
      "pan": 0,
      "source": "ETQ orbit 5, q=1",
      "time": 12.096774193548388,
      "velocity": 0.5027272727272728,
      "voice": "snare"
    },
    {
      "curvature": -2,
      "cutoff": 8951.09090909091,
      "degree": 32,
      "degreePotential": -0.0651077487391105,
      "duration": 0.10403225806451613,
      "endFrequency": 73.41619197935188,
      "frequency": 73.41619197935188,
      "midi": 38,
      "pan": 0,
      "phase": 0,
      "role": "lead",
      "source": "ETQ orbit 14, q=1",
      "stateIndex": 45,
      "time": 12.217741935483872,
      "velocity": 0.5551515151515152,
      "waveform": "triangle"
    },
    {
      "curvature": 1,
      "cutoff": 9757.672727272728,
      "degree": 30,
      "degreePotential": -0.15772581384685924,
      "duration": 0.10403225806451613,
      "endFrequency": 73.41619197935188,
      "frequency": 73.41619197935188,
      "midi": 38,
      "pan": -0.49679999999999996,
      "phase": 0,
      "role": "lead",
      "source": "ETQ orbit 17, q=0",
      "stateIndex": 53,
      "time": 12.338709677419356,
      "velocity": 0.4521212121212122,
      "waveform": "triangle"
    },
    {
      "curvature": 1,
      "cutoff": 10249.49090909091,
      "degree": 32,
      "degreePotential": -0.0651077487391105,
      "duration": 0.10403225806451613,
      "endFrequency": 73.41619197935188,
      "frequency": 73.41619197935188,
      "midi": 38,
      "pan": -0.49679999999999996,
      "phase": 0,
      "role": "lead",
      "source": "ETQ orbit 15, q=0",
      "stateIndex": 47,
      "time": 12.45967741935484,
      "velocity": 0.4751515151515152,
      "waveform": "triangle"
    },
    {
      "curvature": 1,
      "cutoff": 7790.4,
      "degree": 22,
      "degreePotential": -0.5281980742778541,
      "duration": 0.10403225806451613,
      "endFrequency": 48.999429497718666,
      "frequency": 48.999429497718666,
      "midi": 31,
      "pan": -0.49679999999999996,
      "phase": 0,
      "role": "stab",
      "source": "ETQ orbit 31, q=0",
      "stateIndex": 95,
      "time": 12.580645161290324,
      "velocity": 0.36000000000000004,
      "waveform": "triangle"
    },
    {
      "pan": -0.17387999999999998,
      "source": "ETQ orbit 31, q=0",
      "time": 12.580645161290324,
      "velocity": 0.27,
      "voice": "kick"
    },
    {
      "curvature": 1,
      "cutoff": 10249.49090909091,
      "degree": 32,
      "degreePotential": -0.0651077487391105,
      "duration": 0.10403225806451613,
      "endFrequency": 73.41619197935188,
      "frequency": 73.41619197935188,
      "midi": 38,
      "pan": -0.49679999999999996,
      "phase": 0,
      "role": "lead",
      "source": "ETQ orbit 16, q=0",
      "stateIndex": 50,
      "time": 12.701612903225806,
      "velocity": 0.4751515151515152,
      "waveform": "triangle"
    },
    {
      "curvature": 1,
      "cutoff": 10249.49090909091,
      "degree": 32,
      "degreePotential": -0.0651077487391105,
      "duration": 0.10403225806451613,
      "endFrequency": 73.41619197935188,
      "frequency": 73.41619197935188,
      "midi": 38,
      "pan": 0.49679999999999996,
      "phase": 0,
      "role": "lead",
      "source": "ETQ orbit 15, q=2",
      "stateIndex": 49,
      "time": 12.82258064516129,
      "velocity": 0.4751515151515152,
      "waveform": "triangle"
    },
    {
      "curvature": 1,
      "cutoff": 9757.672727272728,
      "degree": 30,
      "degreePotential": -0.15772581384685924,
      "duration": 0.10403225806451613,
      "endFrequency": 73.41619197935188,
      "frequency": 73.41619197935188,
      "midi": 38,
      "pan": -0.49679999999999996,
      "phase": 0,
      "role": "lead",
      "source": "ETQ orbit 17, q=0",
      "stateIndex": 53,
      "time": 12.943548387096774,
      "velocity": 0.4521212121212122,
      "waveform": "triangle"
    },
    {
      "curvature": 1,
      "cutoff": 10249.49090909091,
      "degree": 32,
      "degreePotential": -0.0651077487391105,
      "duration": 0.10403225806451613,
      "endFrequency": 73.41619197935188,
      "frequency": 73.41619197935188,
      "midi": 38,
      "pan": -0.49679999999999996,
      "phase": 0,
      "role": "stab",
      "source": "ETQ orbit 13, q=0",
      "stateIndex": 41,
      "time": 13.064516129032258,
      "velocity": 0.4751515151515152,
      "waveform": "triangle"
    },
    {
      "pan": -0.17387999999999998,
      "source": "ETQ orbit 13, q=0",
      "time": 13.064516129032258,
      "velocity": 0.35636363636363644,
      "voice": "kick"
    },
    {
      "curvature": 1,
      "cutoff": 10249.49090909091,
      "degree": 32,
      "degreePotential": -0.0651077487391105,
      "duration": 0.10403225806451613,
      "endFrequency": 73.41619197935188,
      "frequency": 73.41619197935188,
      "midi": 38,
      "pan": 0.49679999999999996,
      "phase": 0,
      "role": "lead",
      "source": "ETQ orbit 14, q=2",
      "stateIndex": 46,
      "time": 13.185483870967742,
      "velocity": 0.4751515151515152,
      "waveform": "triangle"
    },
    {
      "curvature": 1,
      "cutoff": 12708.581818181818,
      "degree": 42,
      "degreePotential": 0.39798257679963317,
      "duration": 0.10403225806451613,
      "endFrequency": 116.54094037952248,
      "frequency": 116.54094037952248,
      "midi": 46,
      "pan": 0.49679999999999996,
      "phase": 0,
      "role": "lead",
      "source": "ETQ orbit 6, q=2",
      "stateIndex": 22,
      "time": 13.306451612903226,
      "velocity": 0.5903030303030303,
      "waveform": "triangle"
    },
    {
      "curvature": 1,
      "cutoff": 10249.49090909091,
      "degree": 32,
      "degreePotential": -0.0651077487391105,
      "duration": 0.10403225806451613,
      "endFrequency": 73.41619197935188,
      "frequency": 73.41619197935188,
      "midi": 38,
      "pan": -0.49679999999999996,
      "phase": 0,
      "role": "lead",
      "source": "ETQ orbit 23, q=0",
      "stateIndex": 71,
      "time": 13.42741935483871,
      "velocity": 0.4751515151515152,
      "waveform": "triangle"
    },
    {
      "curvature": 1,
      "cutoff": 10249.49090909091,
      "degree": 32,
      "degreePotential": -0.0651077487391105,
      "duration": 0.10403225806451613,
      "endFrequency": 73.41619197935188,
      "frequency": 73.41619197935188,
      "midi": 38,
      "pan": 0.49679999999999996,
      "phase": 0,
      "role": "stab",
      "source": "ETQ orbit 21, q=2",
      "stateIndex": 67,
      "time": 13.548387096774194,
      "velocity": 0.4751515151515152,
      "waveform": "triangle"
    },
    {
      "pan": 0.17387999999999998,
      "source": "ETQ orbit 21, q=2",
      "time": 13.548387096774194,
      "velocity": 0.35636363636363644,
      "voice": "kick"
    },
    {
      "curvature": -2,
      "cutoff": 11410.18181818182,
      "degree": 42,
      "degreePotential": 0.39798257679963317,
      "duration": 0.10403225806451613,
      "endFrequency": 116.54094037952248,
      "frequency": 116.54094037952248,
      "midi": 46,
      "pan": 0,
      "phase": 0,
      "role": "lead",
      "source": "ETQ orbit 3, q=1",
      "stateIndex": 12,
      "time": 13.669354838709678,
      "velocity": 0.6703030303030304,
      "waveform": "triangle"
    },
    {
      "curvature": -2,
      "cutoff": 8951.09090909091,
      "degree": 32,
      "degreePotential": -0.0651077487391105,
      "duration": 0.10403225806451613,
      "endFrequency": 73.41619197935188,
      "frequency": 73.41619197935188,
      "midi": 38,
      "pan": 0,
      "phase": 0,
      "role": "lead",
      "source": "ETQ orbit 21, q=1",
      "stateIndex": 66,
      "time": 13.790322580645162,
      "velocity": 0.5551515151515152,
      "waveform": "triangle"
    },
    {
      "pan": 0,
      "source": "ETQ orbit 21, q=1",
      "time": 13.790322580645162,
      "velocity": 0.4163636363636364,
      "voice": "snare"
    },
    {
      "curvature": -2,
      "cutoff": 9197,
      "degree": 33,
      "degreePotential": -0.01879871618523613,
      "duration": 0.10403225806451613,
      "endFrequency": 82.4068892282175,
      "frequency": 82.4068892282175,
      "midi": 40,
      "pan": 0,
      "phase": 0,
      "role": "lead",
      "source": "ETQ orbit 19, q=1",
      "stateIndex": 60,
      "time": 13.911290322580646,
      "velocity": 0.5666666666666667,
      "waveform": "triangle"
    },
    {
      "curvature": 1,
      "cutoff": 10249.49090909091,
      "degree": 32,
      "degreePotential": -0.0651077487391105,
      "duration": 0.10403225806451613,
      "endFrequency": 73.41619197935188,
      "frequency": 73.41619197935188,
      "midi": 38,
      "pan": 0.49679999999999996,
      "phase": 0,
      "role": "stab",
      "source": "ETQ orbit 22, q=2",
      "stateIndex": 70,
      "time": 14.03225806451613,
      "velocity": 0.4751515151515152,
      "waveform": "triangle"
    },
    {
      "pan": 0.17387999999999998,
      "source": "ETQ orbit 22, q=2",
      "time": 14.03225806451613,
      "velocity": 0.35636363636363644,
      "voice": "kick"
    },
    {
      "curvature": 0,
      "cutoff": 15905.4,
      "degree": 55,
      "degreePotential": 1,
      "duration": 0.10403225806451613,
      "endFrequency": 195.99771799087463,
      "frequency": 195.99771799087463,
      "midi": 55,
      "pan": 0,
      "phase": 0,
      "role": "lead",
      "source": "ETQ singlet 1",
      "stateIndex": 1,
      "time": 14.153225806451614,
      "velocity": 0.66,
      "waveform": "triangle"
    },
    {
      "curvature": 1,
      "cutoff": 12708.581818181818,
      "degree": 42,
      "degreePotential": 0.39798257679963317,
      "duration": 0.10403225806451613,
      "endFrequency": 116.54094037952248,
      "frequency": 116.54094037952248,
      "midi": 46,
      "pan": -0.49679999999999996,
      "phase": 0,
      "role": "lead",
      "source": "ETQ orbit 4, q=0",
      "stateIndex": 14,
      "time": 14.274193548387098,
      "velocity": 0.5903030303030303,
      "waveform": "triangle"
    },
    {
      "curvature": 1,
      "cutoff": 12708.581818181818,
      "degree": 42,
      "degreePotential": 0.39798257679963317,
      "duration": 0.10403225806451613,
      "endFrequency": 116.54094037952248,
      "frequency": 116.54094037952248,
      "midi": 46,
      "pan": 0.49679999999999996,
      "phase": 0,
      "role": "lead",
      "source": "ETQ orbit 6, q=2",
      "stateIndex": 22,
      "time": 14.395161290322582,
      "velocity": 0.5903030303030303,
      "waveform": "triangle"
    },
    {
      "curvature": 1,
      "cutoff": 12708.581818181818,
      "degree": 42,
      "degreePotential": 0.39798257679963317,
      "duration": 0.10403225806451613,
      "endFrequency": 116.54094037952248,
      "frequency": 116.54094037952248,
      "midi": 46,
      "pan": -0.49679999999999996,
      "phase": 0,
      "role": "stab",
      "source": "ETQ orbit 4, q=0",
      "stateIndex": 14,
      "time": 14.516129032258064,
      "velocity": 0.5903030303030303,
      "waveform": "triangle"
    },
    {
      "pan": -0.17387999999999998,
      "source": "ETQ orbit 4, q=0",
      "time": 14.516129032258064,
      "velocity": 0.44272727272727275,
      "voice": "kick"
    },
    {
      "curvature": -2,
      "cutoff": 6492,
      "degree": 22,
      "degreePotential": -0.5281980742778541,
      "duration": 0.10403225806451613,
      "endFrequency": 48.999429497718666,
      "frequency": 48.999429497718666,
      "midi": 31,
      "pan": 0,
      "phase": 0,
      "role": "lead",
      "source": "ETQ orbit 31, q=1",
      "stateIndex": 96,
      "time": 14.637096774193548,
      "velocity": 0.44000000000000006,
      "waveform": "triangle"
    },
    {
      "curvature": -2,
      "cutoff": 11410.18181818182,
      "degree": 42,
      "degreePotential": 0.39798257679963317,
      "duration": 0.10403225806451613,
      "endFrequency": 116.54094037952248,
      "frequency": 116.54094037952248,
      "midi": 46,
      "pan": 0,
      "phase": 0,
      "role": "lead",
      "source": "ETQ orbit 5, q=1",
      "stateIndex": 18,
      "time": 14.758064516129032,
      "velocity": 0.6703030303030304,
      "waveform": "triangle"
    },
    {
      "pan": 0,
      "source": "ETQ orbit 5, q=1",
      "time": 14.758064516129032,
      "velocity": 0.5027272727272728,
      "voice": "snare"
    },
    {
      "curvature": 1,
      "cutoff": 12708.581818181818,
      "degree": 42,
      "degreePotential": 0.39798257679963317,
      "duration": 0.10403225806451613,
      "endFrequency": 116.54094037952248,
      "frequency": 116.54094037952248,
      "midi": 46,
      "pan": -0.49679999999999996,
      "phase": 0,
      "role": "lead",
      "source": "ETQ orbit 4, q=0",
      "stateIndex": 14,
      "time": 14.879032258064516,
      "velocity": 0.5903030303030303,
      "waveform": "triangle"
    },
    {
      "curvature": -2,
      "cutoff": 8951.09090909091,
      "degree": 32,
      "degreePotential": -0.0651077487391105,
      "duration": 0.10403225806451613,
      "endFrequency": 73.41619197935188,
      "frequency": 73.41619197935188,
      "midi": 38,
      "pan": 0,
      "phase": 0,
      "role": "stab",
      "source": "ETQ orbit 23, q=1",
      "stateIndex": 72,
      "time": 15,
      "velocity": 0.5551515151515152,
      "waveform": "triangle"
    },
    {
      "pan": 0,
      "source": "ETQ orbit 23, q=1",
      "time": 15,
      "velocity": 0.4163636363636364,
      "voice": "snare"
    },
    {
      "curvature": -2,
      "cutoff": 8951.09090909091,
      "degree": 32,
      "degreePotential": -0.0651077487391105,
      "duration": 0.10403225806451613,
      "endFrequency": 73.41619197935188,
      "frequency": 73.41619197935188,
      "midi": 38,
      "pan": 0,
      "phase": 0,
      "role": "lead",
      "source": "ETQ orbit 21, q=1",
      "stateIndex": 66,
      "time": 15.120967741935484,
      "velocity": 0.5551515151515152,
      "waveform": "triangle"
    },
    {
      "curvature": -2,
      "cutoff": 10918.363636363634,
      "degree": 40,
      "degreePotential": 0.30536451169188444,
      "duration": 0.10403225806451613,
      "endFrequency": 110,
      "frequency": 110,
      "midi": 45,
      "pan": 0,
      "phase": 0,
      "role": "lead",
      "source": "ETQ orbit 7, q=1",
      "stateIndex": 24,
      "time": 15.241935483870968,
      "velocity": 0.6472727272727273,
      "waveform": "triangle"
    },
    {
      "pan": 0,
      "source": "ETQ orbit 7, q=1",
      "time": 15.241935483870968,
      "velocity": 0.48545454545454547,
      "voice": "snare"
    },
    {
      "curvature": -2,
      "cutoff": 9442.90909090909,
      "degree": 34,
      "degreePotential": 0.027510316368638238,
      "duration": 0.10403225806451613,
      "endFrequency": 82.4068892282175,
      "frequency": 82.4068892282175,
      "midi": 40,
      "pan": 0,
      "phase": 0,
      "role": "lead",
      "source": "ETQ orbit 9, q=1",
      "stateIndex": 30,
      "time": 15.362903225806452,
      "velocity": 0.5781818181818182,
      "waveform": "triangle"
    },
    {
      "curvature": -2,
      "cutoff": 10918.363636363634,
      "degree": 40,
      "degreePotential": 0.30536451169188444,
      "duration": 0.10403225806451613,
      "endFrequency": 110,
      "frequency": 110,
      "midi": 45,
      "pan": 0,
      "phase": 0,
      "role": "stab",
      "source": "ETQ orbit 8, q=1",
      "stateIndex": 27,
      "time": 15.483870967741936,
      "velocity": 0.6472727272727273,
      "waveform": "triangle"
    },
    {
      "pan": 0,
      "source": "ETQ orbit 8, q=1",
      "time": 15.483870967741936,
      "velocity": 0.48545454545454547,
      "voice": "snare"
    },
    {
      "curvature": 1,
      "cutoff": 9757.672727272728,
      "degree": 30,
      "degreePotential": -0.15772581384685924,
      "duration": 0.10403225806451613,
      "endFrequency": 73.41619197935188,
      "frequency": 73.41619197935188,
      "midi": 38,
      "pan": -0.49679999999999996,
      "phase": 0,
      "role": "lead",
      "source": "ETQ orbit 26, q=0",
      "stateIndex": 80,
      "time": 15.60483870967742,
      "velocity": 0.4521212121212122,
      "waveform": "triangle"
    },
    {
      "curvature": 1,
      "cutoff": 9757.672727272728,
      "degree": 30,
      "degreePotential": -0.15772581384685924,
      "duration": 0.10403225806451613,
      "endFrequency": 73.41619197935188,
      "frequency": 73.41619197935188,
      "midi": 38,
      "pan": 0.49679999999999996,
      "phase": 0,
      "role": "lead",
      "source": "ETQ orbit 25, q=2",
      "stateIndex": 79,
      "time": 15.725806451612904,
      "velocity": 0.4521212121212122,
      "waveform": "triangle"
    },
    {
      "curvature": 0,
      "cutoff": 15905.4,
      "degree": 55,
      "degreePotential": 1,
      "duration": 0.10403225806451613,
      "endFrequency": 195.99771799087463,
      "frequency": 195.99771799087463,
      "midi": 55,
      "pan": 0,
      "phase": 0,
      "role": "lead",
      "source": "ETQ singlet 1",
      "stateIndex": 1,
      "time": 15.846774193548388,
      "velocity": 0.66,
      "waveform": "triangle"
    },
    {
      "curvature": 1,
      "cutoff": 12708.581818181818,
      "degree": 42,
      "degreePotential": 0.39798257679963317,
      "duration": 0.10403225806451613,
      "endFrequency": 116.54094037952248,
      "frequency": 116.54094037952248,
      "midi": 46,
      "pan": -0.49679999999999996,
      "phase": 0,
      "role": "stab",
      "source": "ETQ orbit 4, q=0",
      "stateIndex": 14,
      "time": 15.967741935483872,
      "velocity": 0.5903030303030303,
      "waveform": "triangle"
    },
    {
      "pan": -0.17387999999999998,
      "source": "ETQ orbit 4, q=0",
      "time": 15.967741935483872,
      "velocity": 0.44272727272727275,
      "voice": "kick"
    },
    {
      "curvature": 1,
      "cutoff": 12954.49090909091,
      "degree": 43,
      "degreePotential": 0.4442916093535076,
      "duration": 0.10403225806451613,
      "endFrequency": 116.54094037952248,
      "frequency": 116.54094037952248,
      "midi": 46,
      "pan": 0.49679999999999996,
      "phase": 0,
      "role": "lead",
      "source": "ETQ orbit 1, q=2",
      "stateIndex": 7,
      "time": 16.088709677419356,
      "velocity": 0.6018181818181818,
      "waveform": "triangle"
    },
    {
      "curvature": -2,
      "cutoff": 11410.18181818182,
      "degree": 42,
      "degreePotential": 0.39798257679963317,
      "duration": 0.10403225806451613,
      "endFrequency": 116.54094037952248,
      "frequency": 116.54094037952248,
      "midi": 46,
      "pan": 0,
      "phase": 0,
      "role": "lead",
      "source": "ETQ orbit 5, q=1",
      "stateIndex": 18,
      "time": 16.20967741935484,
      "velocity": 0.6703030303030304,
      "waveform": "triangle"
    },
    {
      "pan": 0,
      "source": "ETQ orbit 5, q=1",
      "time": 16.20967741935484,
      "velocity": 0.5027272727272728,
      "voice": "snare"
    },
    {
      "curvature": 1,
      "cutoff": 10249.49090909091,
      "degree": 32,
      "degreePotential": -0.0651077487391105,
      "duration": 0.10403225806451613,
      "endFrequency": 73.41619197935188,
      "frequency": 73.41619197935188,
      "midi": 38,
      "pan": 0.49679999999999996,
      "phase": 0,
      "role": "lead",
      "source": "ETQ orbit 22, q=2",
      "stateIndex": 70,
      "time": 16.330645161290324,
      "velocity": 0.4751515151515152,
      "waveform": "triangle"
    },
    {
      "curvature": 1,
      "cutoff": 12708.581818181818,
      "degree": 42,
      "degreePotential": 0.39798257679963317,
      "duration": 0.10403225806451613,
      "endFrequency": 116.54094037952248,
      "frequency": 116.54094037952248,
      "midi": 46,
      "pan": 0.49679999999999996,
      "phase": 0,
      "role": "stab",
      "source": "ETQ orbit 5, q=2",
      "stateIndex": 19,
      "time": 16.451612903225808,
      "velocity": 0.5903030303030303,
      "waveform": "triangle"
    },
    {
      "pan": 0.17387999999999998,
      "source": "ETQ orbit 5, q=2",
      "time": 16.451612903225808,
      "velocity": 0.44272727272727275,
      "voice": "kick"
    },
    {
      "curvature": 1,
      "cutoff": 10249.49090909091,
      "degree": 32,
      "degreePotential": -0.0651077487391105,
      "duration": 0.10403225806451613,
      "endFrequency": 73.41619197935188,
      "frequency": 73.41619197935188,
      "midi": 38,
      "pan": -0.49679999999999996,
      "phase": 0,
      "role": "lead",
      "source": "ETQ orbit 14, q=0",
      "stateIndex": 44,
      "time": 16.572580645161292,
      "velocity": 0.4751515151515152,
      "waveform": "triangle"
    },
    {
      "curvature": 1,
      "cutoff": 10249.49090909091,
      "degree": 32,
      "degreePotential": -0.0651077487391105,
      "duration": 0.10403225806451613,
      "endFrequency": 73.41619197935188,
      "frequency": 73.41619197935188,
      "midi": 38,
      "pan": -0.49679999999999996,
      "phase": 0,
      "role": "lead",
      "source": "ETQ orbit 16, q=0",
      "stateIndex": 50,
      "time": 16.693548387096776,
      "velocity": 0.4751515151515152,
      "waveform": "triangle"
    },
    {
      "curvature": 1,
      "cutoff": 10249.49090909091,
      "degree": 32,
      "degreePotential": -0.0651077487391105,
      "duration": 0.10403225806451613,
      "endFrequency": 73.41619197935188,
      "frequency": 73.41619197935188,
      "midi": 38,
      "pan": -0.49679999999999996,
      "phase": 0,
      "role": "lead",
      "source": "ETQ orbit 24, q=0",
      "stateIndex": 74,
      "time": 16.81451612903226,
      "velocity": 0.4751515151515152,
      "waveform": "triangle"
    },
    {
      "curvature": 1,
      "cutoff": 9757.672727272728,
      "degree": 30,
      "degreePotential": -0.15772581384685924,
      "duration": 0.10403225806451613,
      "endFrequency": 73.41619197935188,
      "frequency": 73.41619197935188,
      "midi": 38,
      "pan": -0.49679999999999996,
      "phase": 0,
      "role": "stab",
      "source": "ETQ orbit 25, q=0",
      "stateIndex": 77,
      "time": 16.935483870967744,
      "velocity": 0.4521212121212122,
      "waveform": "triangle"
    },
    {
      "pan": -0.17387999999999998,
      "source": "ETQ orbit 25, q=0",
      "time": 16.935483870967744,
      "velocity": 0.33909090909090916,
      "voice": "kick"
    },
    {
      "curvature": 1,
      "cutoff": 12708.581818181818,
      "degree": 42,
      "degreePotential": 0.39798257679963317,
      "duration": 0.10403225806451613,
      "endFrequency": 116.54094037952248,
      "frequency": 116.54094037952248,
      "midi": 46,
      "pan": -0.49679999999999996,
      "phase": 0,
      "role": "lead",
      "source": "ETQ orbit 5, q=0",
      "stateIndex": 17,
      "time": 17.056451612903228,
      "velocity": 0.5903030303030303,
      "waveform": "triangle"
    },
    {
      "curvature": 1,
      "cutoff": 7790.4,
      "degree": 22,
      "degreePotential": -0.5281980742778541,
      "duration": 0.10403225806451613,
      "endFrequency": 48.999429497718666,
      "frequency": 48.999429497718666,
      "midi": 31,
      "pan": -0.49679999999999996,
      "phase": 0,
      "role": "lead",
      "source": "ETQ orbit 31, q=0",
      "stateIndex": 95,
      "time": 17.17741935483871,
      "velocity": 0.36000000000000004,
      "waveform": "triangle"
    },
    {
      "curvature": 1,
      "cutoff": 10495.4,
      "degree": 33,
      "degreePotential": -0.01879871618523613,
      "duration": 0.10403225806451613,
      "endFrequency": 82.4068892282175,
      "frequency": 82.4068892282175,
      "midi": 40,
      "pan": -0.49679999999999996,
      "phase": 0,
      "role": "lead",
      "source": "ETQ orbit 11, q=0",
      "stateIndex": 35,
      "time": 17.298387096774196,
      "velocity": 0.4866666666666667,
      "waveform": "triangle"
    },
    {
      "curvature": 1,
      "cutoff": 10741.30909090909,
      "degree": 34,
      "degreePotential": 0.027510316368638238,
      "duration": 0.10403225806451613,
      "endFrequency": 82.4068892282175,
      "frequency": 82.4068892282175,
      "midi": 40,
      "pan": 0.49679999999999996,
      "phase": 0,
      "role": "stab",
      "source": "ETQ orbit 9, q=2",
      "stateIndex": 31,
      "time": 17.41935483870968,
      "velocity": 0.4981818181818182,
      "waveform": "triangle"
    },
    {
      "pan": 0.17387999999999998,
      "source": "ETQ orbit 9, q=2",
      "time": 17.41935483870968,
      "velocity": 0.37363636363636366,
      "voice": "kick"
    },
    {
      "curvature": 1,
      "cutoff": 7790.4,
      "degree": 22,
      "degreePotential": -0.5281980742778541,
      "duration": 0.10403225806451613,
      "endFrequency": 48.999429497718666,
      "frequency": 48.999429497718666,
      "midi": 31,
      "pan": 0.49679999999999996,
      "phase": 0,
      "role": "lead",
      "source": "ETQ orbit 30, q=2",
      "stateIndex": 94,
      "time": 17.54032258064516,
      "velocity": 0.36000000000000004,
      "waveform": "triangle"
    },
    {
      "curvature": 1,
      "cutoff": 10249.49090909091,
      "degree": 32,
      "degreePotential": -0.0651077487391105,
      "duration": 0.10403225806451613,
      "endFrequency": 73.41619197935188,
      "frequency": 73.41619197935188,
      "midi": 38,
      "pan": -0.49679999999999996,
      "phase": 0,
      "role": "lead",
      "source": "ETQ orbit 15, q=0",
      "stateIndex": 47,
      "time": 17.661290322580644,
      "velocity": 0.4751515151515152,
      "waveform": "triangle"
    },
    {
      "curvature": 1,
      "cutoff": 9757.672727272728,
      "degree": 30,
      "degreePotential": -0.15772581384685924,
      "duration": 0.10403225806451613,
      "endFrequency": 73.41619197935188,
      "frequency": 73.41619197935188,
      "midi": 38,
      "pan": 0.49679999999999996,
      "phase": 0,
      "role": "lead",
      "source": "ETQ orbit 18, q=2",
      "stateIndex": 58,
      "time": 17.782258064516128,
      "velocity": 0.4521212121212122,
      "waveform": "triangle"
    },
    {
      "curvature": 1,
      "cutoff": 9757.672727272728,
      "degree": 30,
      "degreePotential": -0.15772581384685924,
      "duration": 0.10403225806451613,
      "endFrequency": 73.41619197935188,
      "frequency": 73.41619197935188,
      "midi": 38,
      "pan": -0.49679999999999996,
      "phase": 0,
      "role": "stab",
      "source": "ETQ orbit 17, q=0",
      "stateIndex": 53,
      "time": 17.903225806451612,
      "velocity": 0.4521212121212122,
      "waveform": "triangle"
    },
    {
      "pan": -0.17387999999999998,
      "source": "ETQ orbit 17, q=0",
      "time": 17.903225806451612,
      "velocity": 0.33909090909090916,
      "voice": "kick"
    },
    {
      "curvature": 1,
      "cutoff": 10249.49090909091,
      "degree": 32,
      "degreePotential": -0.0651077487391105,
      "duration": 0.10403225806451613,
      "endFrequency": 73.41619197935188,
      "frequency": 73.41619197935188,
      "midi": 38,
      "pan": 0.49679999999999996,
      "phase": 0,
      "role": "lead",
      "source": "ETQ orbit 15, q=2",
      "stateIndex": 49,
      "time": 18.024193548387096,
      "velocity": 0.4751515151515152,
      "waveform": "triangle"
    },
    {
      "curvature": -2,
      "cutoff": 8951.09090909091,
      "degree": 32,
      "degreePotential": -0.0651077487391105,
      "duration": 0.10403225806451613,
      "endFrequency": 73.41619197935188,
      "frequency": 73.41619197935188,
      "midi": 38,
      "pan": 0,
      "phase": 0,
      "role": "lead",
      "source": "ETQ orbit 13, q=1",
      "stateIndex": 42,
      "time": 18.14516129032258,
      "velocity": 0.5551515151515152,
      "waveform": "triangle"
    },
    {
      "pan": 0,
      "source": "ETQ orbit 13, q=1",
      "time": 18.14516129032258,
      "velocity": 0.4163636363636364,
      "voice": "snare"
    },
    {
      "curvature": 1,
      "cutoff": 7790.4,
      "degree": 22,
      "degreePotential": -0.5281980742778541,
      "duration": 0.10403225806451613,
      "endFrequency": 48.999429497718666,
      "frequency": 48.999429497718666,
      "midi": 31,
      "pan": -0.49679999999999996,
      "phase": 0,
      "role": "lead",
      "source": "ETQ orbit 29, q=0",
      "stateIndex": 89,
      "time": 18.266129032258064,
      "velocity": 0.36000000000000004,
      "waveform": "triangle"
    },
    {
      "curvature": 1,
      "cutoff": 12708.581818181818,
      "degree": 42,
      "degreePotential": 0.39798257679963317,
      "duration": 0.10403225806451613,
      "endFrequency": 116.54094037952248,
      "frequency": 116.54094037952248,
      "midi": 46,
      "pan": -0.49679999999999996,
      "phase": 0,
      "role": "stab",
      "source": "ETQ orbit 3, q=0",
      "stateIndex": 11,
      "time": 18.387096774193548,
      "velocity": 0.5903030303030303,
      "waveform": "triangle"
    },
    {
      "pan": -0.17387999999999998,
      "source": "ETQ orbit 3, q=0",
      "time": 18.387096774193548,
      "velocity": 0.44272727272727275,
      "voice": "kick"
    },
    {
      "curvature": 1,
      "cutoff": 10249.49090909091,
      "degree": 32,
      "degreePotential": -0.0651077487391105,
      "duration": 0.10403225806451613,
      "endFrequency": 73.41619197935188,
      "frequency": 73.41619197935188,
      "midi": 38,
      "pan": -0.49679999999999996,
      "phase": 0,
      "role": "lead",
      "source": "ETQ orbit 23, q=0",
      "stateIndex": 71,
      "time": 18.508064516129032,
      "velocity": 0.4751515151515152,
      "waveform": "triangle"
    },
    {
      "curvature": 1,
      "cutoff": 10741.30909090909,
      "degree": 34,
      "degreePotential": 0.027510316368638238,
      "duration": 0.10403225806451613,
      "endFrequency": 82.4068892282175,
      "frequency": 82.4068892282175,
      "midi": 40,
      "pan": 0.49679999999999996,
      "phase": 0,
      "role": "lead",
      "source": "ETQ orbit 10, q=2",
      "stateIndex": 34,
      "time": 18.629032258064516,
      "velocity": 0.4981818181818182,
      "waveform": "triangle"
    },
    {
      "curvature": 1,
      "cutoff": 10249.49090909091,
      "degree": 32,
      "degreePotential": -0.0651077487391105,
      "duration": 0.10403225806451613,
      "endFrequency": 73.41619197935188,
      "frequency": 73.41619197935188,
      "midi": 38,
      "pan": -0.49679999999999996,
      "phase": 0,
      "role": "lead",
      "source": "ETQ orbit 22, q=0",
      "stateIndex": 68,
      "time": 18.75,
      "velocity": 0.4751515151515152,
      "waveform": "triangle"
    },
    {
      "curvature": 1,
      "cutoff": 12216.763636363634,
      "degree": 40,
      "degreePotential": 0.30536451169188444,
      "duration": 0.10403225806451613,
      "endFrequency": 110,
      "frequency": 110,
      "midi": 45,
      "pan": 0.49679999999999996,
      "phase": 0,
      "role": "stab",
      "source": "ETQ orbit 8, q=2",
      "stateIndex": 28,
      "time": 18.870967741935484,
      "velocity": 0.5672727272727273,
      "waveform": "triangle"
    },
    {
      "pan": 0.17387999999999998,
      "source": "ETQ orbit 8, q=2",
      "time": 18.870967741935484,
      "velocity": 0.4254545454545454,
      "voice": "kick"
    },
    {
      "curvature": 1,
      "cutoff": 12216.763636363634,
      "degree": 40,
      "degreePotential": 0.30536451169188444,
      "duration": 0.10403225806451613,
      "endFrequency": 110,
      "frequency": 110,
      "midi": 45,
      "pan": 0.49679999999999996,
      "phase": 0,
      "role": "lead",
      "source": "ETQ orbit 7, q=2",
      "stateIndex": 25,
      "time": 18.991935483870968,
      "velocity": 0.5672727272727273,
      "waveform": "triangle"
    },
    {
      "curvature": 1,
      "cutoff": 10249.49090909091,
      "degree": 32,
      "degreePotential": -0.0651077487391105,
      "duration": 0.10403225806451613,
      "endFrequency": 73.41619197935188,
      "frequency": 73.41619197935188,
      "midi": 38,
      "pan": 0.49679999999999996,
      "phase": 0,
      "role": "lead",
      "source": "ETQ orbit 22, q=2",
      "stateIndex": 70,
      "time": 19.112903225806452,
      "velocity": 0.4751515151515152,
      "waveform": "triangle"
    },
    {
      "curvature": 1,
      "cutoff": 10249.49090909091,
      "degree": 32,
      "degreePotential": -0.0651077487391105,
      "duration": 0.10403225806451613,
      "endFrequency": 73.41619197935188,
      "frequency": 73.41619197935188,
      "midi": 38,
      "pan": 0.49679999999999996,
      "phase": 0,
      "role": "lead",
      "source": "ETQ orbit 21, q=2",
      "stateIndex": 67,
      "time": 19.233870967741936,
      "velocity": 0.4751515151515152,
      "waveform": "triangle"
    },
    {
      "curvature": 1,
      "cutoff": 9757.672727272728,
      "degree": 30,
      "degreePotential": -0.15772581384685924,
      "duration": 0.10403225806451613,
      "endFrequency": 73.41619197935188,
      "frequency": 73.41619197935188,
      "midi": 38,
      "pan": 0.49679999999999996,
      "phase": 0,
      "role": "stab",
      "source": "ETQ orbit 26, q=2",
      "stateIndex": 82,
      "time": 19.35483870967742,
      "velocity": 0.4521212121212122,
      "waveform": "triangle"
    },
    {
      "pan": 0.17387999999999998,
      "source": "ETQ orbit 26, q=2",
      "time": 19.35483870967742,
      "velocity": 0.33909090909090916,
      "voice": "kick"
    },
    {
      "curvature": 1,
      "cutoff": 13200.4,
      "degree": 44,
      "degreePotential": 0.49060064190738195,
      "duration": 0.10403225806451613,
      "endFrequency": 130.8127826502993,
      "frequency": 130.8127826502993,
      "midi": 48,
      "pan": 0.49679999999999996,
      "phase": 0,
      "role": "lead",
      "source": "ETQ orbit 0, q=2",
      "stateIndex": 4,
      "time": 19.475806451612904,
      "velocity": 0.6133333333333333,
      "waveform": "triangle"
    },
    {
      "curvature": 1,
      "cutoff": 12708.581818181818,
      "degree": 42,
      "degreePotential": 0.39798257679963317,
      "duration": 0.10403225806451613,
      "endFrequency": 116.54094037952248,
      "frequency": 116.54094037952248,
      "midi": 46,
      "pan": 0.49679999999999996,
      "phase": 0,
      "role": "lead",
      "source": "ETQ orbit 5, q=2",
      "stateIndex": 19,
      "time": 19.596774193548388,
      "velocity": 0.5903030303030303,
      "waveform": "triangle"
    },
    {
      "curvature": 1,
      "cutoff": 12954.49090909091,
      "degree": 43,
      "degreePotential": 0.4442916093535076,
      "duration": 0.10403225806451613,
      "endFrequency": 116.54094037952248,
      "frequency": 116.54094037952248,
      "midi": 46,
      "pan": 0.49679999999999996,
      "phase": 0,
      "role": "lead",
      "source": "ETQ orbit 1, q=2",
      "stateIndex": 7,
      "time": 19.717741935483872,
      "velocity": 0.6018181818181818,
      "waveform": "triangle"
    },
    {
      "curvature": 1,
      "cutoff": 7790.4,
      "degree": 22,
      "degreePotential": -0.5281980742778541,
      "duration": 0.10403225806451613,
      "endFrequency": 48.999429497718666,
      "frequency": 48.999429497718666,
      "midi": 31,
      "pan": 0.49679999999999996,
      "phase": 0,
      "role": "stab",
      "source": "ETQ orbit 29, q=2",
      "stateIndex": 91,
      "time": 19.838709677419356,
      "velocity": 0.36000000000000004,
      "waveform": "triangle"
    },
    {
      "pan": 0.17387999999999998,
      "source": "ETQ orbit 29, q=2",
      "time": 19.838709677419356,
      "velocity": 0.27,
      "voice": "kick"
    },
    {
      "curvature": 1,
      "cutoff": 8036.309090909091,
      "degree": 23,
      "degreePotential": -0.48188904172397984,
      "duration": 0.10403225806451613,
      "endFrequency": 48.999429497718666,
      "frequency": 48.999429497718666,
      "midi": 31,
      "pan": 0.49679999999999996,
      "phase": 0,
      "role": "lead",
      "source": "ETQ orbit 27, q=2",
      "stateIndex": 85,
      "time": 19.95967741935484,
      "velocity": 0.3715151515151516,
      "waveform": "triangle"
    },
    {
      "curvature": 1,
      "cutoff": 10741.30909090909,
      "degree": 34,
      "degreePotential": 0.027510316368638238,
      "duration": 0.10403225806451613,
      "endFrequency": 82.4068892282175,
      "frequency": 82.4068892282175,
      "midi": 40,
      "pan": 0.49679999999999996,
      "phase": 0,
      "role": "lead",
      "source": "ETQ orbit 10, q=2",
      "stateIndex": 34,
      "time": 20.080645161290324,
      "velocity": 0.4981818181818182,
      "waveform": "triangle"
    },
    {
      "curvature": 1,
      "cutoff": 7790.4,
      "degree": 22,
      "degreePotential": -0.5281980742778541,
      "duration": 0.10403225806451613,
      "endFrequency": 48.999429497718666,
      "frequency": 48.999429497718666,
      "midi": 31,
      "pan": 0.49679999999999996,
      "phase": 0,
      "role": "lead",
      "source": "ETQ orbit 31, q=2",
      "stateIndex": 97,
      "time": 20.201612903225808,
      "velocity": 0.36000000000000004,
      "waveform": "triangle"
    },
    {
      "curvature": 1,
      "cutoff": 10741.30909090909,
      "degree": 34,
      "degreePotential": 0.027510316368638238,
      "duration": 0.10403225806451613,
      "endFrequency": 82.4068892282175,
      "frequency": 82.4068892282175,
      "midi": 40,
      "pan": 0.49679999999999996,
      "phase": 0,
      "role": "stab",
      "source": "ETQ orbit 10, q=2",
      "stateIndex": 34,
      "time": 20.322580645161292,
      "velocity": 0.4981818181818182,
      "waveform": "triangle"
    },
    {
      "pan": 0.17387999999999998,
      "source": "ETQ orbit 10, q=2",
      "time": 20.322580645161292,
      "velocity": 0.37363636363636366,
      "voice": "kick"
    },
    {
      "curvature": 1,
      "cutoff": 10249.49090909091,
      "degree": 32,
      "degreePotential": -0.0651077487391105,
      "duration": 0.10403225806451613,
      "endFrequency": 73.41619197935188,
      "frequency": 73.41619197935188,
      "midi": 38,
      "pan": 0.49679999999999996,
      "phase": 0,
      "role": "lead",
      "source": "ETQ orbit 21, q=2",
      "stateIndex": 67,
      "time": 20.443548387096776,
      "velocity": 0.4751515151515152,
      "waveform": "triangle"
    },
    {
      "curvature": 0,
      "cutoff": 15905.4,
      "degree": 55,
      "degreePotential": 1,
      "duration": 0.10403225806451613,
      "endFrequency": 195.99771799087463,
      "frequency": 195.99771799087463,
      "midi": 55,
      "pan": 0,
      "phase": 0,
      "role": "lead",
      "source": "ETQ singlet 1",
      "stateIndex": 1,
      "time": 20.56451612903226,
      "velocity": 0.66,
      "waveform": "triangle"
    },
    {
      "curvature": 1,
      "cutoff": 9757.672727272728,
      "degree": 30,
      "degreePotential": -0.15772581384685924,
      "duration": 0.10403225806451613,
      "endFrequency": 73.41619197935188,
      "frequency": 73.41619197935188,
      "midi": 38,
      "pan": 0.49679999999999996,
      "phase": 0,
      "role": "lead",
      "source": "ETQ orbit 25, q=2",
      "stateIndex": 79,
      "time": 20.685483870967744,
      "velocity": 0.4521212121212122,
      "waveform": "triangle"
    },
    {
      "curvature": -2,
      "cutoff": 8459.272727272728,
      "degree": 30,
      "degreePotential": -0.15772581384685924,
      "duration": 0.10403225806451613,
      "endFrequency": 73.41619197935188,
      "frequency": 73.41619197935188,
      "midi": 38,
      "pan": 0,
      "phase": 0,
      "role": "stab",
      "source": "ETQ orbit 26, q=1",
      "stateIndex": 81,
      "time": 20.806451612903228,
      "velocity": 0.5321212121212122,
      "waveform": "triangle"
    },
    {
      "pan": 0,
      "source": "ETQ orbit 26, q=1",
      "time": 20.806451612903228,
      "velocity": 0.39909090909090916,
      "voice": "snare"
    },
    {
      "curvature": -2,
      "cutoff": 8459.272727272728,
      "degree": 30,
      "degreePotential": -0.15772581384685924,
      "duration": 0.10403225806451613,
      "endFrequency": 73.41619197935188,
      "frequency": 73.41619197935188,
      "midi": 38,
      "pan": 0,
      "phase": 0,
      "role": "lead",
      "source": "ETQ orbit 18, q=1",
      "stateIndex": 57,
      "time": 20.92741935483871,
      "velocity": 0.5321212121212122,
      "waveform": "triangle"
    },
    {
      "curvature": -2,
      "cutoff": 8459.272727272728,
      "degree": 30,
      "degreePotential": -0.15772581384685924,
      "duration": 0.10403225806451613,
      "endFrequency": 73.41619197935188,
      "frequency": 73.41619197935188,
      "midi": 38,
      "pan": 0,
      "phase": 0,
      "role": "lead",
      "source": "ETQ orbit 17, q=1",
      "stateIndex": 54,
      "time": 21.048387096774196,
      "velocity": 0.5321212121212122,
      "waveform": "triangle"
    },
    {
      "pan": 0,
      "source": "ETQ orbit 17, q=1",
      "time": 21.048387096774196,
      "velocity": 0.39909090909090916,
      "voice": "snare"
    },
    {
      "curvature": -2,
      "cutoff": 11410.18181818182,
      "degree": 42,
      "degreePotential": 0.39798257679963317,
      "duration": 0.10403225806451613,
      "endFrequency": 116.54094037952248,
      "frequency": 116.54094037952248,
      "midi": 46,
      "pan": 0,
      "phase": 0,
      "role": "lead",
      "source": "ETQ orbit 5, q=1",
      "stateIndex": 18,
      "time": 21.16935483870968,
      "velocity": 0.6703030303030304,
      "waveform": "triangle"
    },
    {
      "curvature": -2,
      "cutoff": 11656.090909090908,
      "degree": 43,
      "degreePotential": 0.4442916093535076,
      "duration": 0.10403225806451613,
      "endFrequency": 116.54094037952248,
      "frequency": 116.54094037952248,
      "midi": 46,
      "pan": 0,
      "phase": 0,
      "role": "stab",
      "source": "ETQ orbit 1, q=1",
      "stateIndex": 6,
      "time": 21.29032258064516,
      "velocity": 0.6818181818181819,
      "waveform": "triangle"
    },
    {
      "pan": 0,
      "source": "ETQ orbit 1, q=1",
      "time": 21.29032258064516,
      "velocity": 0.5113636363636365,
      "voice": "snare"
    },
    {
      "curvature": 1,
      "cutoff": 12954.49090909091,
      "degree": 43,
      "degreePotential": 0.4442916093535076,
      "duration": 0.10403225806451613,
      "endFrequency": 116.54094037952248,
      "frequency": 116.54094037952248,
      "midi": 46,
      "pan": -0.49679999999999996,
      "phase": 0,
      "role": "lead",
      "source": "ETQ orbit 2, q=0",
      "stateIndex": 8,
      "time": 21.411290322580644,
      "velocity": 0.6018181818181818,
      "waveform": "triangle"
    },
    {
      "curvature": 1,
      "cutoff": 12708.581818181818,
      "degree": 42,
      "degreePotential": 0.39798257679963317,
      "duration": 0.10403225806451613,
      "endFrequency": 116.54094037952248,
      "frequency": 116.54094037952248,
      "midi": 46,
      "pan": 0.49679999999999996,
      "phase": 0,
      "role": "lead",
      "source": "ETQ orbit 6, q=2",
      "stateIndex": 22,
      "time": 21.532258064516128,
      "velocity": 0.5903030303030303,
      "waveform": "triangle"
    },
    {
      "curvature": 1,
      "cutoff": 10249.49090909091,
      "degree": 32,
      "degreePotential": -0.0651077487391105,
      "duration": 0.10403225806451613,
      "endFrequency": 73.41619197935188,
      "frequency": 73.41619197935188,
      "midi": 38,
      "pan": -0.49679999999999996,
      "phase": 0,
      "role": "lead",
      "source": "ETQ orbit 24, q=0",
      "stateIndex": 74,
      "time": 21.653225806451612,
      "velocity": 0.4751515151515152,
      "waveform": "triangle"
    },
    {
      "curvature": 1,
      "cutoff": 13200.4,
      "degree": 44,
      "degreePotential": 0.49060064190738195,
      "duration": 0.10403225806451613,
      "endFrequency": 130.8127826502993,
      "frequency": 130.8127826502993,
      "midi": 48,
      "pan": -0.49679999999999996,
      "phase": 0,
      "role": "stab",
      "source": "ETQ orbit 0, q=0",
      "stateIndex": 2,
      "time": 21.774193548387096,
      "velocity": 0.6133333333333333,
      "waveform": "triangle"
    },
    {
      "pan": -0.17387999999999998,
      "source": "ETQ orbit 0, q=0",
      "time": 21.774193548387096,
      "velocity": 0.45999999999999996,
      "voice": "kick"
    },
    {
      "curvature": 1,
      "cutoff": 12708.581818181818,
      "degree": 42,
      "degreePotential": 0.39798257679963317,
      "duration": 0.10403225806451613,
      "endFrequency": 116.54094037952248,
      "frequency": 116.54094037952248,
      "midi": 46,
      "pan": 0.49679999999999996,
      "phase": 0,
      "role": "lead",
      "source": "ETQ orbit 6, q=2",
      "stateIndex": 22,
      "time": 21.89516129032258,
      "velocity": 0.5903030303030303,
      "waveform": "triangle"
    },
    {
      "curvature": 1,
      "cutoff": 10249.49090909091,
      "degree": 32,
      "degreePotential": -0.0651077487391105,
      "duration": 0.10403225806451613,
      "endFrequency": 73.41619197935188,
      "frequency": 73.41619197935188,
      "midi": 38,
      "pan": 0.49679999999999996,
      "phase": 0,
      "role": "lead",
      "source": "ETQ orbit 16, q=2",
      "stateIndex": 52,
      "time": 22.016129032258064,
      "velocity": 0.4751515151515152,
      "waveform": "triangle"
    },
    {
      "curvature": 0,
      "cutoff": 15905.4,
      "degree": 55,
      "degreePotential": 1,
      "duration": 0.10403225806451613,
      "endFrequency": 48.999429497718666,
      "frequency": 48.999429497718666,
      "midi": 31,
      "pan": 0,
      "phase": 0,
      "role": "lead",
      "source": "ETQ singlet 0",
      "stateIndex": 0,
      "time": 22.137096774193548,
      "velocity": 0.66,
      "waveform": "triangle"
    },
    {
      "curvature": -2,
      "cutoff": 9442.90909090909,
      "degree": 34,
      "degreePotential": 0.027510316368638238,
      "duration": 0.10403225806451613,
      "endFrequency": 82.4068892282175,
      "frequency": 82.4068892282175,
      "midi": 40,
      "pan": 0,
      "phase": 0,
      "role": "stab",
      "source": "ETQ orbit 9, q=1",
      "stateIndex": 30,
      "time": 22.258064516129032,
      "velocity": 0.5781818181818182,
      "waveform": "triangle"
    },
    {
      "pan": 0,
      "source": "ETQ orbit 9, q=1",
      "time": 22.258064516129032,
      "velocity": 0.4336363636363637,
      "voice": "snare"
    },
    {
      "curvature": 1,
      "cutoff": 13200.4,
      "degree": 44,
      "degreePotential": 0.49060064190738195,
      "duration": 0.10403225806451613,
      "endFrequency": 130.8127826502993,
      "frequency": 130.8127826502993,
      "midi": 48,
      "pan": 0.49679999999999996,
      "phase": 0,
      "role": "lead",
      "source": "ETQ orbit 0, q=2",
      "stateIndex": 4,
      "time": 22.379032258064516,
      "velocity": 0.6133333333333333,
      "waveform": "triangle"
    },
    {
      "curvature": 1,
      "cutoff": 10249.49090909091,
      "degree": 32,
      "degreePotential": -0.0651077487391105,
      "duration": 0.10403225806451613,
      "endFrequency": 73.41619197935188,
      "frequency": 73.41619197935188,
      "midi": 38,
      "pan": 0.49679999999999996,
      "phase": 0,
      "role": "lead",
      "source": "ETQ orbit 24, q=2",
      "stateIndex": 76,
      "time": 22.5,
      "velocity": 0.4751515151515152,
      "waveform": "triangle"
    },
    {
      "curvature": -2,
      "cutoff": 9197,
      "degree": 33,
      "degreePotential": -0.01879871618523613,
      "duration": 0.10403225806451613,
      "endFrequency": 82.4068892282175,
      "frequency": 82.4068892282175,
      "midi": 40,
      "pan": 0,
      "phase": 0,
      "role": "lead",
      "source": "ETQ orbit 20, q=1",
      "stateIndex": 63,
      "time": 22.620967741935484,
      "velocity": 0.5666666666666667,
      "waveform": "triangle"
    },
    {
      "curvature": -2,
      "cutoff": 8951.09090909091,
      "degree": 32,
      "degreePotential": -0.0651077487391105,
      "duration": 0.10403225806451613,
      "endFrequency": 73.41619197935188,
      "frequency": 73.41619197935188,
      "midi": 38,
      "pan": 0,
      "phase": 0,
      "role": "stab",
      "source": "ETQ orbit 21, q=1",
      "stateIndex": 66,
      "time": 22.741935483870968,
      "velocity": 0.5551515151515152,
      "waveform": "triangle"
    },
    {
      "pan": 0,
      "source": "ETQ orbit 21, q=1",
      "time": 22.741935483870968,
      "velocity": 0.4163636363636364,
      "voice": "snare"
    },
    {
      "curvature": 1,
      "cutoff": 10249.49090909091,
      "degree": 32,
      "degreePotential": -0.0651077487391105,
      "duration": 0.10403225806451613,
      "endFrequency": 73.41619197935188,
      "frequency": 73.41619197935188,
      "midi": 38,
      "pan": 0.49679999999999996,
      "phase": 0,
      "role": "lead",
      "source": "ETQ orbit 23, q=2",
      "stateIndex": 73,
      "time": 22.862903225806452,
      "velocity": 0.4751515151515152,
      "waveform": "triangle"
    },
    {
      "curvature": 1,
      "cutoff": 7790.4,
      "degree": 22,
      "degreePotential": -0.5281980742778541,
      "duration": 0.10403225806451613,
      "endFrequency": 48.999429497718666,
      "frequency": 48.999429497718666,
      "midi": 31,
      "pan": 0.49679999999999996,
      "phase": 0,
      "role": "lead",
      "source": "ETQ orbit 32, q=2",
      "stateIndex": 100,
      "time": 22.983870967741936,
      "velocity": 0.36000000000000004,
      "waveform": "triangle"
    },
    {
      "curvature": 1,
      "cutoff": 12708.581818181818,
      "degree": 42,
      "degreePotential": 0.39798257679963317,
      "duration": 0.10403225806451613,
      "endFrequency": 116.54094037952248,
      "frequency": 116.54094037952248,
      "midi": 46,
      "pan": 0.49679999999999996,
      "phase": 0,
      "role": "lead",
      "source": "ETQ orbit 6, q=2",
      "stateIndex": 22,
      "time": 23.10483870967742,
      "velocity": 0.5903030303030303,
      "waveform": "triangle"
    },
    {
      "curvature": -2,
      "cutoff": 11410.18181818182,
      "degree": 42,
      "degreePotential": 0.39798257679963317,
      "duration": 0.10403225806451613,
      "endFrequency": 116.54094037952248,
      "frequency": 116.54094037952248,
      "midi": 46,
      "pan": 0,
      "phase": 0,
      "role": "stab",
      "source": "ETQ orbit 5, q=1",
      "stateIndex": 18,
      "time": 23.225806451612904,
      "velocity": 0.6703030303030304,
      "waveform": "triangle"
    },
    {
      "pan": 0,
      "source": "ETQ orbit 5, q=1",
      "time": 23.225806451612904,
      "velocity": 0.5027272727272728,
      "voice": "snare"
    },
    {
      "curvature": 1,
      "cutoff": 10249.49090909091,
      "degree": 32,
      "degreePotential": -0.0651077487391105,
      "duration": 0.10403225806451613,
      "endFrequency": 73.41619197935188,
      "frequency": 73.41619197935188,
      "midi": 38,
      "pan": -0.49679999999999996,
      "phase": 0,
      "role": "lead",
      "source": "ETQ orbit 15, q=0",
      "stateIndex": 47,
      "time": 23.346774193548388,
      "velocity": 0.4751515151515152,
      "waveform": "triangle"
    },
    {
      "curvature": 1,
      "cutoff": 7790.4,
      "degree": 22,
      "degreePotential": -0.5281980742778541,
      "duration": 0.10403225806451613,
      "endFrequency": 48.999429497718666,
      "frequency": 48.999429497718666,
      "midi": 31,
      "pan": 0.49679999999999996,
      "phase": 0,
      "role": "lead",
      "source": "ETQ orbit 30, q=2",
      "stateIndex": 94,
      "time": 23.467741935483872,
      "velocity": 0.36000000000000004,
      "waveform": "triangle"
    },
    {
      "curvature": 1,
      "cutoff": 10495.4,
      "degree": 33,
      "degreePotential": -0.01879871618523613,
      "duration": 0.10403225806451613,
      "endFrequency": 82.4068892282175,
      "frequency": 82.4068892282175,
      "midi": 40,
      "pan": 0.49679999999999996,
      "phase": 0,
      "role": "lead",
      "source": "ETQ orbit 12, q=2",
      "stateIndex": 40,
      "time": 23.588709677419356,
      "velocity": 0.4866666666666667,
      "waveform": "triangle"
    },
    {
      "curvature": -2,
      "cutoff": 9442.90909090909,
      "degree": 34,
      "degreePotential": 0.027510316368638238,
      "duration": 0.10403225806451613,
      "endFrequency": 82.4068892282175,
      "frequency": 82.4068892282175,
      "midi": 40,
      "pan": 0,
      "phase": 0,
      "role": "stab",
      "source": "ETQ orbit 9, q=1",
      "stateIndex": 30,
      "time": 23.70967741935484,
      "velocity": 0.5781818181818182,
      "waveform": "triangle"
    },
    {
      "pan": 0,
      "source": "ETQ orbit 9, q=1",
      "time": 23.70967741935484,
      "velocity": 0.4336363636363637,
      "voice": "snare"
    },
    {
      "curvature": -2,
      "cutoff": 8459.272727272728,
      "degree": 30,
      "degreePotential": -0.15772581384685924,
      "duration": 0.10403225806451613,
      "endFrequency": 73.41619197935188,
      "frequency": 73.41619197935188,
      "midi": 38,
      "pan": 0,
      "phase": 0,
      "role": "lead",
      "source": "ETQ orbit 18, q=1",
      "stateIndex": 57,
      "time": 23.830645161290324,
      "velocity": 0.5321212121212122,
      "waveform": "triangle"
    },
    {
      "curvature": -2,
      "cutoff": 11410.18181818182,
      "degree": 42,
      "degreePotential": 0.39798257679963317,
      "duration": 0.10403225806451613,
      "endFrequency": 116.54094037952248,
      "frequency": 116.54094037952248,
      "midi": 46,
      "pan": 0,
      "phase": 0,
      "role": "lead",
      "source": "ETQ orbit 4, q=1",
      "stateIndex": 15,
      "time": 23.951612903225808,
      "velocity": 0.6703030303030304,
      "waveform": "triangle"
    },
    {
      "pan": 0,
      "source": "ETQ orbit 4, q=1",
      "time": 23.951612903225808,
      "velocity": 0.5027272727272728,
      "voice": "snare"
    }
  ],
  "mathematicalSource": "ETQ-101-v2.0.0-studio-extension",
  "receipt": {
    "eventCount": 264,
    "fixtures": {
      "etq": {
        "ambientFixedRoots": 12,
        "ambientThreeCycles": 76,
        "degreeSum": 3374,
        "fullQutritStates": null,
        "graphEdges": 1687,
        "states": 101
      },
      "roots": {
        "halfInteger": 128,
        "integer": 112,
        "rank": 8,
        "total": 240,
        "valid": true
      },
      "uniqueProjectionValues": 156
    },
    "peak": 0.92,
    "rms": 0.24259150433129115,
    "wavBytes": 4233644,
    "wavSha256": "fbeb8452b1a7ec8f85d1a3b7060c336cdbe3f299cb7524c2895504be5d548066"
  },
  "recipe": {
    "baseMidi": 31,
    "bitDepth": 16,
    "bpm": 124,
    "channels": 2,
    "cutoff": 10820,
    "density": 0.66,
    "description": "A deterministic walk over the 1,687-edge selected graph; degree potential drives register and brightness.",
    "drive": 1.95,
    "duration": 24,
    "etqExperiment": "graph",
    "family": "ETQ-101 experiments",
    "grit": 0.25,
    "label": "ETQ-101 Degree Graph Walk",
    "modelMode": "etq101",
    "pitchSpan": 25,
    "presetId": "etqGraph",
    "projection": "golden",
    "renderMode": "arrangement",
    "sampleRate": 44100,
    "scale": "phrygian",
    "seed": "ETQ101-GRAPH-1687",
    "space": 0.26,
    "traversal": "lexicographic",
    "tuning": 440,
    "waveform": "triangle",
    "width": 0.69
  },
  "schema": "https://qsol-imc.example/schemas/e8-workbench-recipe-v1.json",
  "workbench": {
    "engineVersion": "1.0.0",
    "name": "E8 Sonification Workbench Studio"
  }
}