{
  "claimBoundary": "Mathematical/model fixtures drive an authored musical receiver. WAV parameters are not intrinsic E8 or qutrit properties.",
  "createdUtc": "2026-07-20T13:58:41.468Z",
  "eventPreview": [
    {
      "curvature": 1,
      "cutoff": 9578.181818181818,
      "degree": 43,
      "degreePotential": 0.4442916093535076,
      "duration": 0.12403846153846153,
      "endFrequency": 352.4030335369403,
      "frequency": 352.4030335369403,
      "midi": 65,
      "pan": 0.648,
      "phase": 0,
      "role": "stab",
      "source": "ETQ orbit 2, q=2",
      "stateIndex": 10,
      "time": 0,
      "velocity": 0.6018181818181818,
      "waveform": "noise"
    },
    {
      "pan": 0.2268,
      "source": "ETQ orbit 2, q=2",
      "time": 0,
      "velocity": 0.45136363636363636,
      "voice": "kick"
    },
    {
      "curvature": 1,
      "cutoff": 7941.818181818181,
      "degree": 34,
      "degreePotential": 0.027510316368638238,
      "duration": 0.12403846153846153,
      "endFrequency": 249.1865747246808,
      "frequency": 249.1865747246808,
      "midi": 59,
      "pan": 0.648,
      "phase": 0,
      "role": "lead",
      "source": "ETQ orbit 10, q=2",
      "stateIndex": 34,
      "time": 0.14423076923076922,
      "velocity": 0.4981818181818182,
      "waveform": "noise"
    },
    {
      "curvature": 1,
      "cutoff": 7760,
      "degree": 33,
      "degreePotential": -0.01879871618523613,
      "duration": 0.12403846153846153,
      "endFrequency": 235.20080694776357,
      "frequency": 235.20080694776357,
      "midi": 58,
      "pan": -0.648,
      "phase": 0,
      "role": "lead",
      "source": "ETQ orbit 20, q=0",
      "stateIndex": 62,
      "time": 0.28846153846153844,
      "velocity": 0.4866666666666667,
      "waveform": "noise"
    },
    {
      "curvature": -2,
      "cutoff": 6618.181818181818,
      "degree": 32,
      "degreePotential": -0.0651077487391105,
      "duration": 0.12403846153846153,
      "endFrequency": 222,
      "frequency": 222,
      "midi": 57,
      "pan": 0,
      "phase": 0,
      "role": "lead",
      "source": "ETQ orbit 24, q=1",
      "stateIndex": 75,
      "time": 0.43269230769230765,
      "velocity": 0.5551515151515152,
      "waveform": "noise"
    },
    {
      "curvature": 0,
      "cutoff": 11760,
      "degree": 55,
      "degreePotential": 1,
      "duration": 0.12403846153846153,
      "endFrequency": 592.6688952514953,
      "frequency": 592.6688952514953,
      "midi": 74,
      "pan": 0,
      "phase": 0,
      "role": "stab",
      "source": "ETQ singlet 1",
      "stateIndex": 1,
      "time": 0.5769230769230769,
      "velocity": 0.66,
      "waveform": "noise"
    },
    {
      "pan": 0,
      "source": "ETQ singlet 1",
      "time": 0.5769230769230769,
      "velocity": 0.495,
      "voice": "kick"
    },
    {
      "curvature": 1,
      "cutoff": 9578.181818181818,
      "degree": 43,
      "degreePotential": 0.4442916093535076,
      "duration": 0.12403846153846153,
      "endFrequency": 352.4030335369403,
      "frequency": 352.4030335369403,
      "midi": 65,
      "pan": 0.648,
      "phase": 0,
      "role": "lead",
      "source": "ETQ orbit 1, q=2",
      "stateIndex": 7,
      "time": 0.721153846153846,
      "velocity": 0.6018181818181818,
      "waveform": "noise"
    },
    {
      "curvature": 1,
      "cutoff": 7760,
      "degree": 33,
      "degreePotential": -0.01879871618523613,
      "duration": 0.12403846153846153,
      "endFrequency": 235.20080694776357,
      "frequency": 235.20080694776357,
      "midi": 58,
      "pan": -0.648,
      "phase": 0,
      "role": "lead",
      "source": "ETQ orbit 20, q=0",
      "stateIndex": 62,
      "time": 0.8653846153846153,
      "velocity": 0.4866666666666667,
      "waveform": "noise"
    },
    {
      "curvature": 1,
      "cutoff": 9396.363636363636,
      "degree": 42,
      "degreePotential": 0.39798257679963317,
      "duration": 0.12403846153846153,
      "endFrequency": 352.4030335369403,
      "frequency": 352.4030335369403,
      "midi": 65,
      "pan": -0.648,
      "phase": 0,
      "role": "lead",
      "source": "ETQ orbit 4, q=0",
      "stateIndex": 14,
      "time": 1.0096153846153846,
      "velocity": 0.5903030303030303,
      "waveform": "noise"
    },
    {
      "curvature": 1,
      "cutoff": 7760,
      "degree": 33,
      "degreePotential": -0.01879871618523613,
      "duration": 0.12403846153846153,
      "endFrequency": 235.20080694776357,
      "frequency": 235.20080694776357,
      "midi": 58,
      "pan": -0.648,
      "phase": 0,
      "role": "stab",
      "source": "ETQ orbit 12, q=0",
      "stateIndex": 38,
      "time": 1.1538461538461537,
      "velocity": 0.4866666666666667,
      "waveform": "noise"
    },
    {
      "pan": -0.2268,
      "source": "ETQ orbit 12, q=0",
      "time": 1.1538461538461537,
      "velocity": 0.365,
      "voice": "kick"
    },
    {
      "curvature": 1,
      "cutoff": 7760,
      "degree": 33,
      "degreePotential": -0.01879871618523613,
      "duration": 0.12403846153846153,
      "endFrequency": 235.20080694776357,
      "frequency": 235.20080694776357,
      "midi": 58,
      "pan": -0.648,
      "phase": 0,
      "role": "lead",
      "source": "ETQ orbit 11, q=0",
      "stateIndex": 35,
      "time": 1.298076923076923,
      "velocity": 0.4866666666666667,
      "waveform": "noise"
    },
    {
      "curvature": 1,
      "cutoff": 9578.181818181818,
      "degree": 43,
      "degreePotential": 0.4442916093535076,
      "duration": 0.12403846153846153,
      "endFrequency": 352.4030335369403,
      "frequency": 352.4030335369403,
      "midi": 65,
      "pan": -0.648,
      "phase": 0,
      "role": "lead",
      "source": "ETQ orbit 1, q=0",
      "stateIndex": 5,
      "time": 1.442307692307692,
      "velocity": 0.6018181818181818,
      "waveform": "noise"
    },
    {
      "curvature": -2,
      "cutoff": 8618.181818181818,
      "degree": 43,
      "degreePotential": 0.4442916093535076,
      "duration": 0.12403846153846153,
      "endFrequency": 352.4030335369403,
      "frequency": 352.4030335369403,
      "midi": 65,
      "pan": 0,
      "phase": 0,
      "role": "lead",
      "source": "ETQ orbit 1, q=1",
      "stateIndex": 6,
      "time": 1.5865384615384615,
      "velocity": 0.6818181818181819,
      "waveform": "noise"
    },
    {
      "curvature": -2,
      "cutoff": 6800,
      "degree": 33,
      "degreePotential": -0.01879871618523613,
      "duration": 0.12403846153846153,
      "endFrequency": 235.20080694776357,
      "frequency": 235.20080694776357,
      "midi": 58,
      "pan": 0,
      "phase": 0,
      "role": "stab",
      "source": "ETQ orbit 11, q=1",
      "stateIndex": 36,
      "time": 1.7307692307692306,
      "velocity": 0.5666666666666667,
      "waveform": "noise"
    },
    {
      "pan": 0,
      "source": "ETQ orbit 11, q=1",
      "time": 1.7307692307692306,
      "velocity": 0.425,
      "voice": "snare"
    },
    {
      "curvature": 1,
      "cutoff": 9578.181818181818,
      "degree": 43,
      "degreePotential": 0.4442916093535076,
      "duration": 0.12403846153846153,
      "endFrequency": 352.4030335369403,
      "frequency": 352.4030335369403,
      "midi": 65,
      "pan": -0.648,
      "phase": 0,
      "role": "lead",
      "source": "ETQ orbit 2, q=0",
      "stateIndex": 8,
      "time": 1.8749999999999998,
      "velocity": 0.6018181818181818,
      "waveform": "noise"
    },
    {
      "curvature": 1,
      "cutoff": 7760,
      "degree": 33,
      "degreePotential": -0.01879871618523613,
      "duration": 0.12403846153846153,
      "endFrequency": 235.20080694776357,
      "frequency": 235.20080694776357,
      "midi": 58,
      "pan": -0.648,
      "phase": 0,
      "role": "lead",
      "source": "ETQ orbit 19, q=0",
      "stateIndex": 59,
      "time": 2.019230769230769,
      "velocity": 0.4866666666666667,
      "waveform": "noise"
    },
    {
      "curvature": 1,
      "cutoff": 9760,
      "degree": 44,
      "degreePotential": 0.49060064190738195,
      "duration": 0.12403846153846153,
      "endFrequency": 373.35800837264924,
      "frequency": 373.35800837264924,
      "midi": 66,
      "pan": -0.648,
      "phase": 0,
      "role": "lead",
      "source": "ETQ orbit 0, q=0",
      "stateIndex": 2,
      "time": 2.1634615384615383,
      "velocity": 0.6133333333333333,
      "waveform": "noise"
    },
    {
      "curvature": 1,
      "cutoff": 7941.818181818181,
      "degree": 34,
      "degreePotential": 0.027510316368638238,
      "duration": 0.12403846153846153,
      "endFrequency": 249.1865747246808,
      "frequency": 249.1865747246808,
      "midi": 59,
      "pan": 0.648,
      "phase": 0,
      "role": "stab",
      "source": "ETQ orbit 10, q=2",
      "stateIndex": 34,
      "time": 2.3076923076923075,
      "velocity": 0.4981818181818182,
      "waveform": "noise"
    },
    {
      "pan": 0.2268,
      "source": "ETQ orbit 10, q=2",
      "time": 2.3076923076923075,
      "velocity": 0.37363636363636366,
      "voice": "kick"
    },
    {
      "curvature": 0,
      "cutoff": 11760,
      "degree": 55,
      "degreePotential": 1,
      "duration": 0.12403846153846153,
      "endFrequency": 592.6688952514953,
      "frequency": 592.6688952514953,
      "midi": 74,
      "pan": 0,
      "phase": 0,
      "role": "lead",
      "source": "ETQ singlet 1",
      "stateIndex": 1,
      "time": 2.4519230769230766,
      "velocity": 0.66,
      "waveform": "noise"
    },
    {
      "curvature": 1,
      "cutoff": 9396.363636363636,
      "degree": 42,
      "degreePotential": 0.39798257679963317,
      "duration": 0.12403846153846153,
      "endFrequency": 352.4030335369403,
      "frequency": 352.4030335369403,
      "midi": 65,
      "pan": 0.648,
      "phase": 0,
      "role": "lead",
      "source": "ETQ orbit 4, q=2",
      "stateIndex": 16,
      "time": 2.596153846153846,
      "velocity": 0.5903030303030303,
      "waveform": "noise"
    },
    {
      "curvature": 1,
      "cutoff": 9760,
      "degree": 44,
      "degreePotential": 0.49060064190738195,
      "duration": 0.12403846153846153,
      "endFrequency": 373.35800837264924,
      "frequency": 373.35800837264924,
      "midi": 66,
      "pan": 0.648,
      "phase": 0,
      "role": "lead",
      "source": "ETQ orbit 0, q=2",
      "stateIndex": 4,
      "time": 2.740384615384615,
      "velocity": 0.6133333333333333,
      "waveform": "noise"
    },
    {
      "curvature": -2,
      "cutoff": 8436.363636363638,
      "degree": 42,
      "degreePotential": 0.39798257679963317,
      "duration": 0.12403846153846153,
      "endFrequency": 352.4030335369403,
      "frequency": 352.4030335369403,
      "midi": 65,
      "pan": 0,
      "phase": 0,
      "role": "stab",
      "source": "ETQ orbit 6, q=1",
      "stateIndex": 21,
      "time": 2.884615384615384,
      "velocity": 0.6703030303030304,
      "waveform": "noise"
    },
    {
      "pan": 0,
      "source": "ETQ orbit 6, q=1",
      "time": 2.884615384615384,
      "velocity": 0.5027272727272728,
      "voice": "snare"
    },
    {
      "curvature": -2,
      "cutoff": 6800,
      "degree": 33,
      "degreePotential": -0.01879871618523613,
      "duration": 0.12403846153846153,
      "endFrequency": 235.20080694776357,
      "frequency": 235.20080694776357,
      "midi": 58,
      "pan": 0,
      "phase": 0,
      "role": "lead",
      "source": "ETQ orbit 20, q=1",
      "stateIndex": 63,
      "time": 3.0288461538461537,
      "velocity": 0.5666666666666667,
      "waveform": "noise"
    },
    {
      "curvature": 1,
      "cutoff": 9396.363636363636,
      "degree": 42,
      "degreePotential": 0.39798257679963317,
      "duration": 0.12403846153846153,
      "endFrequency": 352.4030335369403,
      "frequency": 352.4030335369403,
      "midi": 65,
      "pan": -0.648,
      "phase": 0,
      "role": "lead",
      "source": "ETQ orbit 5, q=0",
      "stateIndex": 17,
      "time": 3.173076923076923,
      "velocity": 0.5903030303030303,
      "waveform": "noise"
    },
    {
      "curvature": -2,
      "cutoff": 8072.72727272727,
      "degree": 40,
      "degreePotential": 0.30536451169188444,
      "duration": 0.12403846153846153,
      "endFrequency": 313.95541084682714,
      "frequency": 313.95541084682714,
      "midi": 63,
      "pan": 0,
      "phase": 0,
      "role": "lead",
      "source": "ETQ orbit 7, q=1",
      "stateIndex": 24,
      "time": 3.317307692307692,
      "velocity": 0.6472727272727273,
      "waveform": "noise"
    },
    {
      "curvature": 1,
      "cutoff": 7214.545454545455,
      "degree": 30,
      "degreePotential": -0.15772581384685924,
      "duration": 0.12403846153846153,
      "endFrequency": 209.54009741533596,
      "frequency": 209.54009741533596,
      "midi": 56,
      "pan": 0.648,
      "phase": 0,
      "role": "stab",
      "source": "ETQ orbit 25, q=2",
      "stateIndex": 79,
      "time": 3.4615384615384612,
      "velocity": 0.4521212121212122,
      "waveform": "noise"
    },
    {
      "pan": 0.2268,
      "source": "ETQ orbit 25, q=2",
      "time": 3.4615384615384612,
      "velocity": 0.33909090909090916,
      "voice": "kick"
    },
    {
      "curvature": 1,
      "cutoff": 9396.363636363636,
      "degree": 42,
      "degreePotential": 0.39798257679963317,
      "duration": 0.12403846153846153,
      "endFrequency": 352.4030335369403,
      "frequency": 352.4030335369403,
      "midi": 65,
      "pan": 0.648,
      "phase": 0,
      "role": "lead",
      "source": "ETQ orbit 5, q=2",
      "stateIndex": 19,
      "time": 3.6057692307692304,
      "velocity": 0.5903030303030303,
      "waveform": "noise"
    },
    {
      "curvature": 1,
      "cutoff": 9032.727272727272,
      "degree": 40,
      "degreePotential": 0.30536451169188444,
      "duration": 0.12403846153846153,
      "endFrequency": 313.95541084682714,
      "frequency": 313.95541084682714,
      "midi": 63,
      "pan": -0.648,
      "phase": 0,
      "role": "lead",
      "source": "ETQ orbit 7, q=0",
      "stateIndex": 23,
      "time": 3.7499999999999996,
      "velocity": 0.5672727272727273,
      "waveform": "noise"
    },
    {
      "curvature": 1,
      "cutoff": 5760,
      "degree": 22,
      "degreePotential": -0.5281980742778541,
      "duration": 0.12403846153846153,
      "endFrequency": 148.16722381287383,
      "frequency": 148.16722381287383,
      "midi": 50,
      "pan": -0.648,
      "phase": 0,
      "role": "lead",
      "source": "ETQ orbit 30, q=0",
      "stateIndex": 92,
      "time": 3.8942307692307687,
      "velocity": 0.36000000000000004,
      "waveform": "noise"
    },
    {
      "curvature": 1,
      "cutoff": 7578.181818181818,
      "degree": 32,
      "degreePotential": -0.0651077487391105,
      "duration": 0.12403846153846153,
      "endFrequency": 222,
      "frequency": 222,
      "midi": 57,
      "pan": -0.648,
      "phase": 0,
      "role": "stab",
      "source": "ETQ orbit 21, q=0",
      "stateIndex": 65,
      "time": 4.038461538461538,
      "velocity": 0.4751515151515152,
      "waveform": "noise"
    },
    {
      "pan": -0.2268,
      "source": "ETQ orbit 21, q=0",
      "time": 4.038461538461538,
      "velocity": 0.35636363636363644,
      "voice": "kick"
    },
    {
      "curvature": 1,
      "cutoff": 9396.363636363636,
      "degree": 42,
      "degreePotential": 0.39798257679963317,
      "duration": 0.12403846153846153,
      "endFrequency": 352.4030335369403,
      "frequency": 352.4030335369403,
      "midi": 65,
      "pan": 0.648,
      "phase": 0,
      "role": "lead",
      "source": "ETQ orbit 3, q=2",
      "stateIndex": 13,
      "time": 4.1826923076923075,
      "velocity": 0.5903030303030303,
      "waveform": "noise"
    },
    {
      "curvature": 1,
      "cutoff": 7578.181818181818,
      "degree": 32,
      "degreePotential": -0.0651077487391105,
      "duration": 0.12403846153846153,
      "endFrequency": 222,
      "frequency": 222,
      "midi": 57,
      "pan": 0.648,
      "phase": 0,
      "role": "lead",
      "source": "ETQ orbit 23, q=2",
      "stateIndex": 73,
      "time": 4.326923076923077,
      "velocity": 0.4751515151515152,
      "waveform": "noise"
    },
    {
      "curvature": 1,
      "cutoff": 7760,
      "degree": 33,
      "degreePotential": -0.01879871618523613,
      "duration": 0.12403846153846153,
      "endFrequency": 235.20080694776357,
      "frequency": 235.20080694776357,
      "midi": 58,
      "pan": -0.648,
      "phase": 0,
      "role": "lead",
      "source": "ETQ orbit 19, q=0",
      "stateIndex": 59,
      "time": 4.471153846153846,
      "velocity": 0.4866666666666667,
      "waveform": "noise"
    },
    {
      "curvature": -2,
      "cutoff": 6618.181818181818,
      "degree": 32,
      "degreePotential": -0.0651077487391105,
      "duration": 0.12403846153846153,
      "endFrequency": 222,
      "frequency": 222,
      "midi": 57,
      "pan": 0,
      "phase": 0,
      "role": "stab",
      "source": "ETQ orbit 21, q=1",
      "stateIndex": 66,
      "time": 4.615384615384615,
      "velocity": 0.5551515151515152,
      "waveform": "noise"
    },
    {
      "pan": 0,
      "source": "ETQ orbit 21, q=1",
      "time": 4.615384615384615,
      "velocity": 0.4163636363636364,
      "voice": "snare"
    },
    {
      "curvature": 1,
      "cutoff": 7214.545454545455,
      "degree": 30,
      "degreePotential": -0.15772581384685924,
      "duration": 0.12403846153846153,
      "endFrequency": 209.54009741533596,
      "frequency": 209.54009741533596,
      "midi": 56,
      "pan": -0.648,
      "phase": 0,
      "role": "lead",
      "source": "ETQ orbit 25, q=0",
      "stateIndex": 77,
      "time": 4.759615384615384,
      "velocity": 0.4521212121212122,
      "waveform": "noise"
    },
    {
      "curvature": 1,
      "cutoff": 7214.545454545455,
      "degree": 30,
      "degreePotential": -0.15772581384685924,
      "duration": 0.12403846153846153,
      "endFrequency": 209.54009741533596,
      "frequency": 209.54009741533596,
      "midi": 56,
      "pan": -0.648,
      "phase": 0,
      "role": "lead",
      "source": "ETQ orbit 17, q=0",
      "stateIndex": 53,
      "time": 4.903846153846153,
      "velocity": 0.4521212121212122,
      "waveform": "noise"
    },
    {
      "curvature": 1,
      "cutoff": 7578.181818181818,
      "degree": 32,
      "degreePotential": -0.0651077487391105,
      "duration": 0.12403846153846153,
      "endFrequency": 222,
      "frequency": 222,
      "midi": 57,
      "pan": 0.648,
      "phase": 0,
      "role": "lead",
      "source": "ETQ orbit 13, q=2",
      "stateIndex": 43,
      "time": 5.0480769230769225,
      "velocity": 0.4751515151515152,
      "waveform": "noise"
    },
    {
      "curvature": 0,
      "cutoff": 11760,
      "degree": 55,
      "degreePotential": 1,
      "duration": 0.12403846153846153,
      "endFrequency": 148.16722381287383,
      "frequency": 148.16722381287383,
      "midi": 50,
      "pan": 0,
      "phase": 0,
      "role": "stab",
      "source": "ETQ singlet 0",
      "stateIndex": 0,
      "time": 5.192307692307692,
      "velocity": 0.66,
      "waveform": "noise"
    },
    {
      "pan": 0,
      "source": "ETQ singlet 0",
      "time": 5.192307692307692,
      "velocity": 0.495,
      "voice": "kick"
    },
    {
      "curvature": 1,
      "cutoff": 9032.727272727272,
      "degree": 40,
      "degreePotential": 0.30536451169188444,
      "duration": 0.12403846153846153,
      "endFrequency": 313.95541084682714,
      "frequency": 313.95541084682714,
      "midi": 63,
      "pan": -0.648,
      "phase": 0,
      "role": "lead",
      "source": "ETQ orbit 7, q=0",
      "stateIndex": 23,
      "time": 5.336538461538461,
      "velocity": 0.5672727272727273,
      "waveform": "noise"
    },
    {
      "curvature": 1,
      "cutoff": 7941.818181818181,
      "degree": 34,
      "degreePotential": 0.027510316368638238,
      "duration": 0.12403846153846153,
      "endFrequency": 249.1865747246808,
      "frequency": 249.1865747246808,
      "midi": 59,
      "pan": -0.648,
      "phase": 0,
      "role": "lead",
      "source": "ETQ orbit 9, q=0",
      "stateIndex": 29,
      "time": 5.48076923076923,
      "velocity": 0.4981818181818182,
      "waveform": "noise"
    },
    {
      "curvature": 1,
      "cutoff": 7941.818181818181,
      "degree": 34,
      "degreePotential": 0.027510316368638238,
      "duration": 0.12403846153846153,
      "endFrequency": 249.1865747246808,
      "frequency": 249.1865747246808,
      "midi": 59,
      "pan": -0.648,
      "phase": 0,
      "role": "lead",
      "source": "ETQ orbit 10, q=0",
      "stateIndex": 32,
      "time": 5.624999999999999,
      "velocity": 0.4981818181818182,
      "waveform": "noise"
    },
    {
      "curvature": 1,
      "cutoff": 9396.363636363636,
      "degree": 42,
      "degreePotential": 0.39798257679963317,
      "duration": 0.12403846153846153,
      "endFrequency": 352.4030335369403,
      "frequency": 352.4030335369403,
      "midi": 65,
      "pan": -0.648,
      "phase": 0,
      "role": "stab",
      "source": "ETQ orbit 5, q=0",
      "stateIndex": 17,
      "time": 5.769230769230768,
      "velocity": 0.5903030303030303,
      "waveform": "noise"
    },
    {
      "pan": -0.2268,
      "source": "ETQ orbit 5, q=0",
      "time": 5.769230769230768,
      "velocity": 0.44272727272727275,
      "voice": "kick"
    },
    {
      "curvature": 1,
      "cutoff": 7941.818181818181,
      "degree": 34,
      "degreePotential": 0.027510316368638238,
      "duration": 0.12403846153846153,
      "endFrequency": 249.1865747246808,
      "frequency": 249.1865747246808,
      "midi": 59,
      "pan": -0.648,
      "phase": 0,
      "role": "lead",
      "source": "ETQ orbit 10, q=0",
      "stateIndex": 32,
      "time": 5.913461538461538,
      "velocity": 0.4981818181818182,
      "waveform": "noise"
    },
    {
      "curvature": -2,
      "cutoff": 6800,
      "degree": 33,
      "degreePotential": -0.01879871618523613,
      "duration": 0.12403846153846153,
      "endFrequency": 235.20080694776357,
      "frequency": 235.20080694776357,
      "midi": 58,
      "pan": 0,
      "phase": 0,
      "role": "lead",
      "source": "ETQ orbit 20, q=1",
      "stateIndex": 63,
      "time": 6.0576923076923075,
      "velocity": 0.5666666666666667,
      "waveform": "noise"
    },
    {
      "pan": 0,
      "source": "ETQ orbit 20, q=1",
      "time": 6.0576923076923075,
      "velocity": 0.425,
      "voice": "snare"
    },
    {
      "curvature": 1,
      "cutoff": 7578.181818181818,
      "degree": 32,
      "degreePotential": -0.0651077487391105,
      "duration": 0.12403846153846153,
      "endFrequency": 222,
      "frequency": 222,
      "midi": 57,
      "pan": 0.648,
      "phase": 0,
      "role": "lead",
      "source": "ETQ orbit 23, q=2",
      "stateIndex": 73,
      "time": 6.201923076923077,
      "velocity": 0.4751515151515152,
      "waveform": "noise"
    },
    {
      "curvature": -2,
      "cutoff": 6254.545454545455,
      "degree": 30,
      "degreePotential": -0.15772581384685924,
      "duration": 0.12403846153846153,
      "endFrequency": 209.54009741533596,
      "frequency": 209.54009741533596,
      "midi": 56,
      "pan": 0,
      "phase": 0,
      "role": "stab",
      "source": "ETQ orbit 26, q=1",
      "stateIndex": 81,
      "time": 6.346153846153846,
      "velocity": 0.5321212121212122,
      "waveform": "noise"
    },
    {
      "pan": 0,
      "source": "ETQ orbit 26, q=1",
      "time": 6.346153846153846,
      "velocity": 0.39909090909090916,
      "voice": "snare"
    },
    {
      "curvature": -2,
      "cutoff": 6618.181818181818,
      "degree": 32,
      "degreePotential": -0.0651077487391105,
      "duration": 0.12403846153846153,
      "endFrequency": 222,
      "frequency": 222,
      "midi": 57,
      "pan": 0,
      "phase": 0,
      "role": "lead",
      "source": "ETQ orbit 23, q=1",
      "stateIndex": 72,
      "time": 6.490384615384615,
      "velocity": 0.5551515151515152,
      "waveform": "noise"
    },
    {
      "curvature": 1,
      "cutoff": 7214.545454545455,
      "degree": 30,
      "degreePotential": -0.15772581384685924,
      "duration": 0.12403846153846153,
      "endFrequency": 209.54009741533596,
      "frequency": 209.54009741533596,
      "midi": 56,
      "pan": 0.648,
      "phase": 0,
      "role": "lead",
      "source": "ETQ orbit 25, q=2",
      "stateIndex": 79,
      "time": 6.634615384615384,
      "velocity": 0.4521212121212122,
      "waveform": "noise"
    },
    {
      "curvature": 1,
      "cutoff": 9032.727272727272,
      "degree": 40,
      "degreePotential": 0.30536451169188444,
      "duration": 0.12403846153846153,
      "endFrequency": 313.95541084682714,
      "frequency": 313.95541084682714,
      "midi": 63,
      "pan": -0.648,
      "phase": 0,
      "role": "lead",
      "source": "ETQ orbit 7, q=0",
      "stateIndex": 23,
      "time": 6.778846153846153,
      "velocity": 0.5672727272727273,
      "waveform": "noise"
    },
    {
      "curvature": -2,
      "cutoff": 6254.545454545455,
      "degree": 30,
      "degreePotential": -0.15772581384685924,
      "duration": 0.12403846153846153,
      "endFrequency": 209.54009741533596,
      "frequency": 209.54009741533596,
      "midi": 56,
      "pan": 0,
      "phase": 0,
      "role": "stab",
      "source": "ETQ orbit 26, q=1",
      "stateIndex": 81,
      "time": 6.9230769230769225,
      "velocity": 0.5321212121212122,
      "waveform": "noise"
    },
    {
      "pan": 0,
      "source": "ETQ orbit 26, q=1",
      "time": 6.9230769230769225,
      "velocity": 0.39909090909090916,
      "voice": "snare"
    },
    {
      "curvature": 1,
      "cutoff": 9396.363636363636,
      "degree": 42,
      "degreePotential": 0.39798257679963317,
      "duration": 0.12403846153846153,
      "endFrequency": 352.4030335369403,
      "frequency": 352.4030335369403,
      "midi": 65,
      "pan": -0.648,
      "phase": 0,
      "role": "lead",
      "source": "ETQ orbit 6, q=0",
      "stateIndex": 20,
      "time": 7.067307692307692,
      "velocity": 0.5903030303030303,
      "waveform": "noise"
    },
    {
      "curvature": 1,
      "cutoff": 5941.818181818181,
      "degree": 23,
      "degreePotential": -0.48188904172397984,
      "duration": 0.12403846153846153,
      "endFrequency": 156.97770542341357,
      "frequency": 156.97770542341357,
      "midi": 51,
      "pan": -0.648,
      "phase": 0,
      "role": "lead",
      "source": "ETQ orbit 28, q=0",
      "stateIndex": 86,
      "time": 7.211538461538461,
      "velocity": 0.3715151515151516,
      "waveform": "noise"
    },
    {
      "curvature": 1,
      "cutoff": 7941.818181818181,
      "degree": 34,
      "degreePotential": 0.027510316368638238,
      "duration": 0.12403846153846153,
      "endFrequency": 249.1865747246808,
      "frequency": 249.1865747246808,
      "midi": 59,
      "pan": -0.648,
      "phase": 0,
      "role": "lead",
      "source": "ETQ orbit 10, q=0",
      "stateIndex": 32,
      "time": 7.35576923076923,
      "velocity": 0.4981818181818182,
      "waveform": "noise"
    },
    {
      "curvature": -2,
      "cutoff": 6254.545454545455,
      "degree": 30,
      "degreePotential": -0.15772581384685924,
      "duration": 0.12403846153846153,
      "endFrequency": 209.54009741533596,
      "frequency": 209.54009741533596,
      "midi": 56,
      "pan": 0,
      "phase": 0,
      "role": "stab",
      "source": "ETQ orbit 26, q=1",
      "stateIndex": 81,
      "time": 7.499999999999999,
      "velocity": 0.5321212121212122,
      "waveform": "noise"
    },
    {
      "pan": 0,
      "source": "ETQ orbit 26, q=1",
      "time": 7.499999999999999,
      "velocity": 0.39909090909090916,
      "voice": "snare"
    },
    {
      "curvature": -2,
      "cutoff": 8436.363636363638,
      "degree": 42,
      "degreePotential": 0.39798257679963317,
      "duration": 0.12403846153846153,
      "endFrequency": 352.4030335369403,
      "frequency": 352.4030335369403,
      "midi": 65,
      "pan": 0,
      "phase": 0,
      "role": "lead",
      "source": "ETQ orbit 4, q=1",
      "stateIndex": 15,
      "time": 7.644230769230768,
      "velocity": 0.6703030303030304,
      "waveform": "noise"
    },
    {
      "curvature": 1,
      "cutoff": 9578.181818181818,
      "degree": 43,
      "degreePotential": 0.4442916093535076,
      "duration": 0.12403846153846153,
      "endFrequency": 352.4030335369403,
      "frequency": 352.4030335369403,
      "midi": 65,
      "pan": 0.648,
      "phase": 0,
      "role": "lead",
      "source": "ETQ orbit 2, q=2",
      "stateIndex": 10,
      "time": 7.788461538461537,
      "velocity": 0.6018181818181818,
      "waveform": "noise"
    },
    {
      "curvature": 1,
      "cutoff": 7760,
      "degree": 33,
      "degreePotential": -0.01879871618523613,
      "duration": 0.12403846153846153,
      "endFrequency": 235.20080694776357,
      "frequency": 235.20080694776357,
      "midi": 58,
      "pan": -0.648,
      "phase": 0,
      "role": "lead",
      "source": "ETQ orbit 12, q=0",
      "stateIndex": 38,
      "time": 7.932692307692307,
      "velocity": 0.4866666666666667,
      "waveform": "noise"
    },
    {
      "curvature": -2,
      "cutoff": 8618.181818181818,
      "degree": 43,
      "degreePotential": 0.4442916093535076,
      "duration": 0.12403846153846153,
      "endFrequency": 352.4030335369403,
      "frequency": 352.4030335369403,
      "midi": 65,
      "pan": 0,
      "phase": 0,
      "role": "stab",
      "source": "ETQ orbit 2, q=1",
      "stateIndex": 9,
      "time": 8.076923076923077,
      "velocity": 0.6818181818181819,
      "waveform": "noise"
    },
    {
      "pan": 0,
      "source": "ETQ orbit 2, q=1",
      "time": 8.076923076923077,
      "velocity": 0.5113636363636365,
      "voice": "snare"
    },
    {
      "curvature": 0,
      "cutoff": 11760,
      "degree": 55,
      "degreePotential": 1,
      "duration": 0.12403846153846153,
      "endFrequency": 148.16722381287383,
      "frequency": 148.16722381287383,
      "midi": 50,
      "pan": 0,
      "phase": 0,
      "role": "lead",
      "source": "ETQ singlet 0",
      "stateIndex": 0,
      "time": 8.221153846153845,
      "velocity": 0.66,
      "waveform": "noise"
    },
    {
      "curvature": -2,
      "cutoff": 8618.181818181818,
      "degree": 43,
      "degreePotential": 0.4442916093535076,
      "duration": 0.12403846153846153,
      "endFrequency": 352.4030335369403,
      "frequency": 352.4030335369403,
      "midi": 65,
      "pan": 0,
      "phase": 0,
      "role": "lead",
      "source": "ETQ orbit 2, q=1",
      "stateIndex": 9,
      "time": 8.365384615384615,
      "velocity": 0.6818181818181819,
      "waveform": "noise"
    },
    {
      "pan": 0,
      "source": "ETQ orbit 2, q=1",
      "time": 8.365384615384615,
      "velocity": 0.5113636363636365,
      "voice": "snare"
    },
    {
      "curvature": 1,
      "cutoff": 7760,
      "degree": 33,
      "degreePotential": -0.01879871618523613,
      "duration": 0.12403846153846153,
      "endFrequency": 235.20080694776357,
      "frequency": 235.20080694776357,
      "midi": 58,
      "pan": 0.648,
      "phase": 0,
      "role": "lead",
      "source": "ETQ orbit 11, q=2",
      "stateIndex": 37,
      "time": 8.509615384615383,
      "velocity": 0.4866666666666667,
      "waveform": "noise"
    },
    {
      "curvature": 1,
      "cutoff": 7578.181818181818,
      "degree": 32,
      "degreePotential": -0.0651077487391105,
      "duration": 0.12403846153846153,
      "endFrequency": 222,
      "frequency": 222,
      "midi": 57,
      "pan": 0.648,
      "phase": 0,
      "role": "stab",
      "source": "ETQ orbit 16, q=2",
      "stateIndex": 52,
      "time": 8.653846153846153,
      "velocity": 0.4751515151515152,
      "waveform": "noise"
    },
    {
      "pan": 0.2268,
      "source": "ETQ orbit 16, q=2",
      "time": 8.653846153846153,
      "velocity": 0.35636363636363644,
      "voice": "kick"
    },
    {
      "curvature": -2,
      "cutoff": 6800,
      "degree": 33,
      "degreePotential": -0.01879871618523613,
      "duration": 0.12403846153846153,
      "endFrequency": 235.20080694776357,
      "frequency": 235.20080694776357,
      "midi": 58,
      "pan": 0,
      "phase": 0,
      "role": "lead",
      "source": "ETQ orbit 12, q=1",
      "stateIndex": 39,
      "time": 8.798076923076922,
      "velocity": 0.5666666666666667,
      "waveform": "noise"
    },
    {
      "curvature": -2,
      "cutoff": 6618.181818181818,
      "degree": 32,
      "degreePotential": -0.0651077487391105,
      "duration": 0.12403846153846153,
      "endFrequency": 222,
      "frequency": 222,
      "midi": 57,
      "pan": 0,
      "phase": 0,
      "role": "lead",
      "source": "ETQ orbit 14, q=1",
      "stateIndex": 45,
      "time": 8.942307692307692,
      "velocity": 0.5551515151515152,
      "waveform": "noise"
    },
    {
      "pan": 0,
      "source": "ETQ orbit 14, q=1",
      "time": 8.942307692307692,
      "velocity": 0.4163636363636364,
      "voice": "snare"
    },
    {
      "curvature": 1,
      "cutoff": 7214.545454545455,
      "degree": 30,
      "degreePotential": -0.15772581384685924,
      "duration": 0.12403846153846153,
      "endFrequency": 209.54009741533596,
      "frequency": 209.54009741533596,
      "midi": 56,
      "pan": 0.648,
      "phase": 0,
      "role": "lead",
      "source": "ETQ orbit 18, q=2",
      "stateIndex": 58,
      "time": 9.08653846153846,
      "velocity": 0.4521212121212122,
      "waveform": "noise"
    },
    {
      "curvature": 1,
      "cutoff": 9396.363636363636,
      "degree": 42,
      "degreePotential": 0.39798257679963317,
      "duration": 0.12403846153846153,
      "endFrequency": 352.4030335369403,
      "frequency": 352.4030335369403,
      "midi": 65,
      "pan": 0.648,
      "phase": 0,
      "role": "stab",
      "source": "ETQ orbit 4, q=2",
      "stateIndex": 16,
      "time": 9.23076923076923,
      "velocity": 0.5903030303030303,
      "waveform": "noise"
    },
    {
      "pan": 0.2268,
      "source": "ETQ orbit 4, q=2",
      "time": 9.23076923076923,
      "velocity": 0.44272727272727275,
      "voice": "kick"
    },
    {
      "curvature": 1,
      "cutoff": 9032.727272727272,
      "degree": 40,
      "degreePotential": 0.30536451169188444,
      "duration": 0.12403846153846153,
      "endFrequency": 313.95541084682714,
      "frequency": 313.95541084682714,
      "midi": 63,
      "pan": 0.648,
      "phase": 0,
      "role": "lead",
      "source": "ETQ orbit 8, q=2",
      "stateIndex": 28,
      "time": 9.375,
      "velocity": 0.5672727272727273,
      "waveform": "noise"
    },
    {
      "curvature": 1,
      "cutoff": 9760,
      "degree": 44,
      "degreePotential": 0.49060064190738195,
      "duration": 0.12403846153846153,
      "endFrequency": 373.35800837264924,
      "frequency": 373.35800837264924,
      "midi": 66,
      "pan": -0.648,
      "phase": 0,
      "role": "lead",
      "source": "ETQ orbit 0, q=0",
      "stateIndex": 2,
      "time": 9.519230769230768,
      "velocity": 0.6133333333333333,
      "waveform": "noise"
    },
    {
      "curvature": 1,
      "cutoff": 7214.545454545455,
      "degree": 30,
      "degreePotential": -0.15772581384685924,
      "duration": 0.12403846153846153,
      "endFrequency": 209.54009741533596,
      "frequency": 209.54009741533596,
      "midi": 56,
      "pan": -0.648,
      "phase": 0,
      "role": "lead",
      "source": "ETQ orbit 17, q=0",
      "stateIndex": 53,
      "time": 9.663461538461538,
      "velocity": 0.4521212121212122,
      "waveform": "noise"
    },
    {
      "curvature": 1,
      "cutoff": 7214.545454545455,
      "degree": 30,
      "degreePotential": -0.15772581384685924,
      "duration": 0.12403846153846153,
      "endFrequency": 209.54009741533596,
      "frequency": 209.54009741533596,
      "midi": 56,
      "pan": 0.648,
      "phase": 0,
      "role": "stab",
      "source": "ETQ orbit 17, q=2",
      "stateIndex": 55,
      "time": 9.807692307692307,
      "velocity": 0.4521212121212122,
      "waveform": "noise"
    },
    {
      "pan": 0.2268,
      "source": "ETQ orbit 17, q=2",
      "time": 9.807692307692307,
      "velocity": 0.33909090909090916,
      "voice": "kick"
    },
    {
      "curvature": 1,
      "cutoff": 9396.363636363636,
      "degree": 42,
      "degreePotential": 0.39798257679963317,
      "duration": 0.12403846153846153,
      "endFrequency": 352.4030335369403,
      "frequency": 352.4030335369403,
      "midi": 65,
      "pan": 0.648,
      "phase": 0,
      "role": "lead",
      "source": "ETQ orbit 5, q=2",
      "stateIndex": 19,
      "time": 9.951923076923077,
      "velocity": 0.5903030303030303,
      "waveform": "noise"
    },
    {
      "curvature": 1,
      "cutoff": 7760,
      "degree": 33,
      "degreePotential": -0.01879871618523613,
      "duration": 0.12403846153846153,
      "endFrequency": 235.20080694776357,
      "frequency": 235.20080694776357,
      "midi": 58,
      "pan": 0.648,
      "phase": 0,
      "role": "lead",
      "source": "ETQ orbit 19, q=2",
      "stateIndex": 61,
      "time": 10.096153846153845,
      "velocity": 0.4866666666666667,
      "waveform": "noise"
    },
    {
      "curvature": 1,
      "cutoff": 7578.181818181818,
      "degree": 32,
      "degreePotential": -0.0651077487391105,
      "duration": 0.12403846153846153,
      "endFrequency": 222,
      "frequency": 222,
      "midi": 57,
      "pan": -0.648,
      "phase": 0,
      "role": "lead",
      "source": "ETQ orbit 22, q=0",
      "stateIndex": 68,
      "time": 10.240384615384615,
      "velocity": 0.4751515151515152,
      "waveform": "noise"
    },
    {
      "curvature": -2,
      "cutoff": 6618.181818181818,
      "degree": 32,
      "degreePotential": -0.0651077487391105,
      "duration": 0.12403846153846153,
      "endFrequency": 222,
      "frequency": 222,
      "midi": 57,
      "pan": 0,
      "phase": 0,
      "role": "stab",
      "source": "ETQ orbit 21, q=1",
      "stateIndex": 66,
      "time": 10.384615384615383,
      "velocity": 0.5551515151515152,
      "waveform": "noise"
    },
    {
      "pan": 0,
      "source": "ETQ orbit 21, q=1",
      "time": 10.384615384615383,
      "velocity": 0.4163636363636364,
      "voice": "snare"
    },
    {
      "curvature": -2,
      "cutoff": 6800,
      "degree": 33,
      "degreePotential": -0.01879871618523613,
      "duration": 0.12403846153846153,
      "endFrequency": 235.20080694776357,
      "frequency": 235.20080694776357,
      "midi": 58,
      "pan": 0,
      "phase": 0,
      "role": "lead",
      "source": "ETQ orbit 19, q=1",
      "stateIndex": 60,
      "time": 10.528846153846153,
      "velocity": 0.5666666666666667,
      "waveform": "noise"
    },
    {
      "curvature": 1,
      "cutoff": 7760,
      "degree": 33,
      "degreePotential": -0.01879871618523613,
      "duration": 0.12403846153846153,
      "endFrequency": 235.20080694776357,
      "frequency": 235.20080694776357,
      "midi": 58,
      "pan": -0.648,
      "phase": 0,
      "role": "lead",
      "source": "ETQ orbit 19, q=0",
      "stateIndex": 59,
      "time": 10.673076923076922,
      "velocity": 0.4866666666666667,
      "waveform": "noise"
    },
    {
      "curvature": -2,
      "cutoff": 6618.181818181818,
      "degree": 32,
      "degreePotential": -0.0651077487391105,
      "duration": 0.12403846153846153,
      "endFrequency": 222,
      "frequency": 222,
      "midi": 57,
      "pan": 0,
      "phase": 0,
      "role": "lead",
      "source": "ETQ orbit 21, q=1",
      "stateIndex": 66,
      "time": 10.817307692307692,
      "velocity": 0.5551515151515152,
      "waveform": "noise"
    },
    {
      "curvature": -2,
      "cutoff": 8436.363636363638,
      "degree": 42,
      "degreePotential": 0.39798257679963317,
      "duration": 0.12403846153846153,
      "endFrequency": 352.4030335369403,
      "frequency": 352.4030335369403,
      "midi": 65,
      "pan": 0,
      "phase": 0,
      "role": "stab",
      "source": "ETQ orbit 4, q=1",
      "stateIndex": 15,
      "time": 10.96153846153846,
      "velocity": 0.6703030303030304,
      "waveform": "noise"
    },
    {
      "pan": 0,
      "source": "ETQ orbit 4, q=1",
      "time": 10.96153846153846,
      "velocity": 0.5027272727272728,
      "voice": "snare"
    },
    {
      "curvature": -2,
      "cutoff": 8072.72727272727,
      "degree": 40,
      "degreePotential": 0.30536451169188444,
      "duration": 0.12403846153846153,
      "endFrequency": 313.95541084682714,
      "frequency": 313.95541084682714,
      "midi": 63,
      "pan": 0,
      "phase": 0,
      "role": "lead",
      "source": "ETQ orbit 8, q=1",
      "stateIndex": 27,
      "time": 11.10576923076923,
      "velocity": 0.6472727272727273,
      "waveform": "noise"
    },
    {
      "curvature": 1,
      "cutoff": 9396.363636363636,
      "degree": 42,
      "degreePotential": 0.39798257679963317,
      "duration": 0.12403846153846153,
      "endFrequency": 352.4030335369403,
      "frequency": 352.4030335369403,
      "midi": 65,
      "pan": 0.648,
      "phase": 0,
      "role": "lead",
      "source": "ETQ orbit 5, q=2",
      "stateIndex": 19,
      "time": 11.249999999999998,
      "velocity": 0.5903030303030303,
      "waveform": "noise"
    },
    {
      "curvature": 1,
      "cutoff": 5760,
      "degree": 22,
      "degreePotential": -0.5281980742778541,
      "duration": 0.12403846153846153,
      "endFrequency": 148.16722381287383,
      "frequency": 148.16722381287383,
      "midi": 50,
      "pan": -0.648,
      "phase": 0,
      "role": "lead",
      "source": "ETQ orbit 30, q=0",
      "stateIndex": 92,
      "time": 11.394230769230768,
      "velocity": 0.36000000000000004,
      "waveform": "noise"
    },
    {
      "curvature": -2,
      "cutoff": 6618.181818181818,
      "degree": 32,
      "degreePotential": -0.0651077487391105,
      "duration": 0.12403846153846153,
      "endFrequency": 222,
      "frequency": 222,
      "midi": 57,
      "pan": 0,
      "phase": 0,
      "role": "stab",
      "source": "ETQ orbit 23, q=1",
      "stateIndex": 72,
      "time": 11.538461538461537,
      "velocity": 0.5551515151515152,
      "waveform": "noise"
    },
    {
      "pan": 0,
      "source": "ETQ orbit 23, q=1",
      "time": 11.538461538461537,
      "velocity": 0.4163636363636364,
      "voice": "snare"
    },
    {
      "curvature": -2,
      "cutoff": 6618.181818181818,
      "degree": 32,
      "degreePotential": -0.0651077487391105,
      "duration": 0.12403846153846153,
      "endFrequency": 222,
      "frequency": 222,
      "midi": 57,
      "pan": 0,
      "phase": 0,
      "role": "lead",
      "source": "ETQ orbit 24, q=1",
      "stateIndex": 75,
      "time": 11.682692307692307,
      "velocity": 0.5551515151515152,
      "waveform": "noise"
    },
    {
      "curvature": 1,
      "cutoff": 7760,
      "degree": 33,
      "degreePotential": -0.01879871618523613,
      "duration": 0.12403846153846153,
      "endFrequency": 235.20080694776357,
      "frequency": 235.20080694776357,
      "midi": 58,
      "pan": 0.648,
      "phase": 0,
      "role": "lead",
      "source": "ETQ orbit 20, q=2",
      "stateIndex": 64,
      "time": 11.826923076923077,
      "velocity": 0.4866666666666667,
      "waveform": "noise"
    },
    {
      "curvature": 1,
      "cutoff": 7760,
      "degree": 33,
      "degreePotential": -0.01879871618523613,
      "duration": 0.12403846153846153,
      "endFrequency": 235.20080694776357,
      "frequency": 235.20080694776357,
      "midi": 58,
      "pan": -0.648,
      "phase": 0,
      "role": "lead",
      "source": "ETQ orbit 20, q=0",
      "stateIndex": 62,
      "time": 11.971153846153845,
      "velocity": 0.4866666666666667,
      "waveform": "noise"
    },
    {
      "curvature": 1,
      "cutoff": 5760,
      "degree": 22,
      "degreePotential": -0.5281980742778541,
      "duration": 0.12403846153846153,
      "endFrequency": 148.16722381287383,
      "frequency": 148.16722381287383,
      "midi": 50,
      "pan": -0.648,
      "phase": 0,
      "role": "stab",
      "source": "ETQ orbit 30, q=0",
      "stateIndex": 92,
      "time": 12.115384615384615,
      "velocity": 0.36000000000000004,
      "waveform": "noise"
    },
    {
      "pan": -0.2268,
      "source": "ETQ orbit 30, q=0",
      "time": 12.115384615384615,
      "velocity": 0.27,
      "voice": "kick"
    },
    {
      "curvature": 1,
      "cutoff": 9760,
      "degree": 44,
      "degreePotential": 0.49060064190738195,
      "duration": 0.12403846153846153,
      "endFrequency": 373.35800837264924,
      "frequency": 373.35800837264924,
      "midi": 66,
      "pan": -0.648,
      "phase": 0,
      "role": "lead",
      "source": "ETQ orbit 0, q=0",
      "stateIndex": 2,
      "time": 12.259615384615383,
      "velocity": 0.6133333333333333,
      "waveform": "noise"
    },
    {
      "curvature": 1,
      "cutoff": 7941.818181818181,
      "degree": 34,
      "degreePotential": 0.027510316368638238,
      "duration": 0.12403846153846153,
      "endFrequency": 249.1865747246808,
      "frequency": 249.1865747246808,
      "midi": 59,
      "pan": 0.648,
      "phase": 0,
      "role": "lead",
      "source": "ETQ orbit 9, q=2",
      "stateIndex": 31,
      "time": 12.403846153846153,
      "velocity": 0.4981818181818182,
      "waveform": "noise"
    },
    {
      "curvature": 1,
      "cutoff": 9032.727272727272,
      "degree": 40,
      "degreePotential": 0.30536451169188444,
      "duration": 0.12403846153846153,
      "endFrequency": 313.95541084682714,
      "frequency": 313.95541084682714,
      "midi": 63,
      "pan": 0.648,
      "phase": 0,
      "role": "lead",
      "source": "ETQ orbit 7, q=2",
      "stateIndex": 25,
      "time": 12.548076923076922,
      "velocity": 0.5672727272727273,
      "waveform": "noise"
    },
    {
      "curvature": 1,
      "cutoff": 9760,
      "degree": 44,
      "degreePotential": 0.49060064190738195,
      "duration": 0.12403846153846153,
      "endFrequency": 373.35800837264924,
      "frequency": 373.35800837264924,
      "midi": 66,
      "pan": -0.648,
      "phase": 0,
      "role": "stab",
      "source": "ETQ orbit 0, q=0",
      "stateIndex": 2,
      "time": 12.692307692307692,
      "velocity": 0.6133333333333333,
      "waveform": "noise"
    },
    {
      "pan": -0.2268,
      "source": "ETQ orbit 0, q=0",
      "time": 12.692307692307692,
      "velocity": 0.45999999999999996,
      "voice": "kick"
    },
    {
      "curvature": 1,
      "cutoff": 7941.818181818181,
      "degree": 34,
      "degreePotential": 0.027510316368638238,
      "duration": 0.12403846153846153,
      "endFrequency": 249.1865747246808,
      "frequency": 249.1865747246808,
      "midi": 59,
      "pan": 0.648,
      "phase": 0,
      "role": "lead",
      "source": "ETQ orbit 10, q=2",
      "stateIndex": 34,
      "time": 12.83653846153846,
      "velocity": 0.4981818181818182,
      "waveform": "noise"
    },
    {
      "curvature": 1,
      "cutoff": 7760,
      "degree": 33,
      "degreePotential": -0.01879871618523613,
      "duration": 0.12403846153846153,
      "endFrequency": 235.20080694776357,
      "frequency": 235.20080694776357,
      "midi": 58,
      "pan": 0.648,
      "phase": 0,
      "role": "lead",
      "source": "ETQ orbit 20, q=2",
      "stateIndex": 64,
      "time": 12.98076923076923,
      "velocity": 0.4866666666666667,
      "waveform": "noise"
    },
    {
      "curvature": 1,
      "cutoff": 5760,
      "degree": 22,
      "degreePotential": -0.5281980742778541,
      "duration": 0.12403846153846153,
      "endFrequency": 148.16722381287383,
      "frequency": 148.16722381287383,
      "midi": 50,
      "pan": 0.648,
      "phase": 0,
      "role": "lead",
      "source": "ETQ orbit 32, q=2",
      "stateIndex": 100,
      "time": 13.124999999999998,
      "velocity": 0.36000000000000004,
      "waveform": "noise"
    },
    {
      "curvature": 1,
      "cutoff": 7578.181818181818,
      "degree": 32,
      "degreePotential": -0.0651077487391105,
      "duration": 0.12403846153846153,
      "endFrequency": 222,
      "frequency": 222,
      "midi": 57,
      "pan": 0.648,
      "phase": 0,
      "role": "stab",
      "source": "ETQ orbit 23, q=2",
      "stateIndex": 73,
      "time": 13.269230769230768,
      "velocity": 0.4751515151515152,
      "waveform": "noise"
    },
    {
      "pan": 0.2268,
      "source": "ETQ orbit 23, q=2",
      "time": 13.269230769230768,
      "velocity": 0.35636363636363644,
      "voice": "kick"
    },
    {
      "curvature": 1,
      "cutoff": 7760,
      "degree": 33,
      "degreePotential": -0.01879871618523613,
      "duration": 0.12403846153846153,
      "endFrequency": 235.20080694776357,
      "frequency": 235.20080694776357,
      "midi": 58,
      "pan": 0.648,
      "phase": 0,
      "role": "lead",
      "source": "ETQ orbit 20, q=2",
      "stateIndex": 64,
      "time": 13.413461538461537,
      "velocity": 0.4866666666666667,
      "waveform": "noise"
    },
    {
      "curvature": -2,
      "cutoff": 8436.363636363638,
      "degree": 42,
      "degreePotential": 0.39798257679963317,
      "duration": 0.12403846153846153,
      "endFrequency": 352.4030335369403,
      "frequency": 352.4030335369403,
      "midi": 65,
      "pan": 0,
      "phase": 0,
      "role": "lead",
      "source": "ETQ orbit 6, q=1",
      "stateIndex": 21,
      "time": 13.557692307692307,
      "velocity": 0.6703030303030304,
      "waveform": "noise"
    },
    {
      "pan": 0,
      "source": "ETQ orbit 6, q=1",
      "time": 13.557692307692307,
      "velocity": 0.5027272727272728,
      "voice": "snare"
    },
    {
      "curvature": 1,
      "cutoff": 7578.181818181818,
      "degree": 32,
      "degreePotential": -0.0651077487391105,
      "duration": 0.12403846153846153,
      "endFrequency": 222,
      "frequency": 222,
      "midi": 57,
      "pan": -0.648,
      "phase": 0,
      "role": "lead",
      "source": "ETQ orbit 24, q=0",
      "stateIndex": 74,
      "time": 13.701923076923075,
      "velocity": 0.4751515151515152,
      "waveform": "noise"
    },
    {
      "curvature": 1,
      "cutoff": 9032.727272727272,
      "degree": 40,
      "degreePotential": 0.30536451169188444,
      "duration": 0.12403846153846153,
      "endFrequency": 313.95541084682714,
      "frequency": 313.95541084682714,
      "midi": 63,
      "pan": 0.648,
      "phase": 0,
      "role": "stab",
      "source": "ETQ orbit 8, q=2",
      "stateIndex": 28,
      "time": 13.846153846153845,
      "velocity": 0.5672727272727273,
      "waveform": "noise"
    },
    {
      "pan": 0.2268,
      "source": "ETQ orbit 8, q=2",
      "time": 13.846153846153845,
      "velocity": 0.4254545454545454,
      "voice": "kick"
    },
    {
      "curvature": 1,
      "cutoff": 7941.818181818181,
      "degree": 34,
      "degreePotential": 0.027510316368638238,
      "duration": 0.12403846153846153,
      "endFrequency": 249.1865747246808,
      "frequency": 249.1865747246808,
      "midi": 59,
      "pan": 0.648,
      "phase": 0,
      "role": "lead",
      "source": "ETQ orbit 10, q=2",
      "stateIndex": 34,
      "time": 13.990384615384615,
      "velocity": 0.4981818181818182,
      "waveform": "noise"
    },
    {
      "curvature": 1,
      "cutoff": 7760,
      "degree": 33,
      "degreePotential": -0.01879871618523613,
      "duration": 0.12403846153846153,
      "endFrequency": 235.20080694776357,
      "frequency": 235.20080694776357,
      "midi": 58,
      "pan": -0.648,
      "phase": 0,
      "role": "lead",
      "source": "ETQ orbit 19, q=0",
      "stateIndex": 59,
      "time": 14.134615384615383,
      "velocity": 0.4866666666666667,
      "waveform": "noise"
    },
    {
      "curvature": 1,
      "cutoff": 9578.181818181818,
      "degree": 43,
      "degreePotential": 0.4442916093535076,
      "duration": 0.12403846153846153,
      "endFrequency": 352.4030335369403,
      "frequency": 352.4030335369403,
      "midi": 65,
      "pan": -0.648,
      "phase": 0,
      "role": "lead",
      "source": "ETQ orbit 1, q=0",
      "stateIndex": 5,
      "time": 14.278846153846153,
      "velocity": 0.6018181818181818,
      "waveform": "noise"
    },
    {
      "curvature": -2,
      "cutoff": 6618.181818181818,
      "degree": 32,
      "degreePotential": -0.0651077487391105,
      "duration": 0.12403846153846153,
      "endFrequency": 222,
      "frequency": 222,
      "midi": 57,
      "pan": 0,
      "phase": 0,
      "role": "stab",
      "source": "ETQ orbit 13, q=1",
      "stateIndex": 42,
      "time": 14.423076923076922,
      "velocity": 0.5551515151515152,
      "waveform": "noise"
    },
    {
      "pan": 0,
      "source": "ETQ orbit 13, q=1",
      "time": 14.423076923076922,
      "velocity": 0.4163636363636364,
      "voice": "snare"
    },
    {
      "curvature": 1,
      "cutoff": 7214.545454545455,
      "degree": 30,
      "degreePotential": -0.15772581384685924,
      "duration": 0.12403846153846153,
      "endFrequency": 209.54009741533596,
      "frequency": 209.54009741533596,
      "midi": 56,
      "pan": 0.648,
      "phase": 0,
      "role": "lead",
      "source": "ETQ orbit 17, q=2",
      "stateIndex": 55,
      "time": 14.567307692307692,
      "velocity": 0.4521212121212122,
      "waveform": "noise"
    },
    {
      "curvature": -2,
      "cutoff": 8436.363636363638,
      "degree": 42,
      "degreePotential": 0.39798257679963317,
      "duration": 0.12403846153846153,
      "endFrequency": 352.4030335369403,
      "frequency": 352.4030335369403,
      "midi": 65,
      "pan": 0,
      "phase": 0,
      "role": "lead",
      "source": "ETQ orbit 4, q=1",
      "stateIndex": 15,
      "time": 14.71153846153846,
      "velocity": 0.6703030303030304,
      "waveform": "noise"
    },
    {
      "pan": 0,
      "source": "ETQ orbit 4, q=1",
      "time": 14.71153846153846,
      "velocity": 0.5027272727272728,
      "voice": "snare"
    },
    {
      "curvature": 1,
      "cutoff": 9396.363636363636,
      "degree": 42,
      "degreePotential": 0.39798257679963317,
      "duration": 0.12403846153846153,
      "endFrequency": 352.4030335369403,
      "frequency": 352.4030335369403,
      "midi": 65,
      "pan": 0.648,
      "phase": 0,
      "role": "lead",
      "source": "ETQ orbit 5, q=2",
      "stateIndex": 19,
      "time": 14.85576923076923,
      "velocity": 0.5903030303030303,
      "waveform": "noise"
    },
    {
      "curvature": 1,
      "cutoff": 7214.545454545455,
      "degree": 30,
      "degreePotential": -0.15772581384685924,
      "duration": 0.12403846153846153,
      "endFrequency": 209.54009741533596,
      "frequency": 209.54009741533596,
      "midi": 56,
      "pan": -0.648,
      "phase": 0,
      "role": "stab",
      "source": "ETQ orbit 26, q=0",
      "stateIndex": 80,
      "time": 14.999999999999998,
      "velocity": 0.4521212121212122,
      "waveform": "noise"
    },
    {
      "pan": -0.2268,
      "source": "ETQ orbit 26, q=0",
      "time": 14.999999999999998,
      "velocity": 0.33909090909090916,
      "voice": "kick"
    },
    {
      "curvature": -2,
      "cutoff": 6618.181818181818,
      "degree": 32,
      "degreePotential": -0.0651077487391105,
      "duration": 0.12403846153846153,
      "endFrequency": 222,
      "frequency": 222,
      "midi": 57,
      "pan": 0,
      "phase": 0,
      "role": "lead",
      "source": "ETQ orbit 24, q=1",
      "stateIndex": 75,
      "time": 15.144230769230768,
      "velocity": 0.5551515151515152,
      "waveform": "noise"
    },
    {
      "curvature": -2,
      "cutoff": 6800,
      "degree": 33,
      "degreePotential": -0.01879871618523613,
      "duration": 0.12403846153846153,
      "endFrequency": 235.20080694776357,
      "frequency": 235.20080694776357,
      "midi": 58,
      "pan": 0,
      "phase": 0,
      "role": "lead",
      "source": "ETQ orbit 19, q=1",
      "stateIndex": 60,
      "time": 15.288461538461537,
      "velocity": 0.5666666666666667,
      "waveform": "noise"
    },
    {
      "pan": 0,
      "source": "ETQ orbit 19, q=1",
      "time": 15.288461538461537,
      "velocity": 0.425,
      "voice": "snare"
    },
    {
      "curvature": 1,
      "cutoff": 9578.181818181818,
      "degree": 43,
      "degreePotential": 0.4442916093535076,
      "duration": 0.12403846153846153,
      "endFrequency": 352.4030335369403,
      "frequency": 352.4030335369403,
      "midi": 65,
      "pan": -0.648,
      "phase": 0,
      "role": "lead",
      "source": "ETQ orbit 2, q=0",
      "stateIndex": 8,
      "time": 15.432692307692307,
      "velocity": 0.6018181818181818,
      "waveform": "noise"
    },
    {
      "curvature": 1,
      "cutoff": 9578.181818181818,
      "degree": 43,
      "degreePotential": 0.4442916093535076,
      "duration": 0.12403846153846153,
      "endFrequency": 352.4030335369403,
      "frequency": 352.4030335369403,
      "midi": 65,
      "pan": -0.648,
      "phase": 0,
      "role": "stab",
      "source": "ETQ orbit 1, q=0",
      "stateIndex": 5,
      "time": 15.576923076923075,
      "velocity": 0.6018181818181818,
      "waveform": "noise"
    },
    {
      "pan": -0.2268,
      "source": "ETQ orbit 1, q=0",
      "time": 15.576923076923075,
      "velocity": 0.45136363636363636,
      "voice": "kick"
    },
    {
      "curvature": 1,
      "cutoff": 9578.181818181818,
      "degree": 43,
      "degreePotential": 0.4442916093535076,
      "duration": 0.12403846153846153,
      "endFrequency": 352.4030335369403,
      "frequency": 352.4030335369403,
      "midi": 65,
      "pan": -0.648,
      "phase": 0,
      "role": "lead",
      "source": "ETQ orbit 2, q=0",
      "stateIndex": 8,
      "time": 15.721153846153845,
      "velocity": 0.6018181818181818,
      "waveform": "noise"
    },
    {
      "curvature": 0,
      "cutoff": 11760,
      "degree": 55,
      "degreePotential": 1,
      "duration": 0.12403846153846153,
      "endFrequency": 592.6688952514953,
      "frequency": 592.6688952514953,
      "midi": 74,
      "pan": 0,
      "phase": 0,
      "role": "lead",
      "source": "ETQ singlet 1",
      "stateIndex": 1,
      "time": 15.865384615384613,
      "velocity": 0.66,
      "waveform": "noise"
    },
    {
      "curvature": 1,
      "cutoff": 7578.181818181818,
      "degree": 32,
      "degreePotential": -0.0651077487391105,
      "duration": 0.12403846153846153,
      "endFrequency": 222,
      "frequency": 222,
      "midi": 57,
      "pan": 0.648,
      "phase": 0,
      "role": "lead",
      "source": "ETQ orbit 23, q=2",
      "stateIndex": 73,
      "time": 16.009615384615383,
      "velocity": 0.4751515151515152,
      "waveform": "noise"
    },
    {
      "curvature": -2,
      "cutoff": 8072.72727272727,
      "degree": 40,
      "degreePotential": 0.30536451169188444,
      "duration": 0.12403846153846153,
      "endFrequency": 313.95541084682714,
      "frequency": 313.95541084682714,
      "midi": 63,
      "pan": 0,
      "phase": 0,
      "role": "stab",
      "source": "ETQ orbit 7, q=1",
      "stateIndex": 24,
      "time": 16.153846153846153,
      "velocity": 0.6472727272727273,
      "waveform": "noise"
    },
    {
      "pan": 0,
      "source": "ETQ orbit 7, q=1",
      "time": 16.153846153846153,
      "velocity": 0.48545454545454547,
      "voice": "snare"
    },
    {
      "curvature": 1,
      "cutoff": 9396.363636363636,
      "degree": 42,
      "degreePotential": 0.39798257679963317,
      "duration": 0.12403846153846153,
      "endFrequency": 352.4030335369403,
      "frequency": 352.4030335369403,
      "midi": 65,
      "pan": -0.648,
      "phase": 0,
      "role": "lead",
      "source": "ETQ orbit 3, q=0",
      "stateIndex": 11,
      "time": 16.298076923076923,
      "velocity": 0.5903030303030303,
      "waveform": "noise"
    },
    {
      "curvature": 1,
      "cutoff": 7941.818181818181,
      "degree": 34,
      "degreePotential": 0.027510316368638238,
      "duration": 0.12403846153846153,
      "endFrequency": 249.1865747246808,
      "frequency": 249.1865747246808,
      "midi": 59,
      "pan": -0.648,
      "phase": 0,
      "role": "lead",
      "source": "ETQ orbit 9, q=0",
      "stateIndex": 29,
      "time": 16.44230769230769,
      "velocity": 0.4981818181818182,
      "waveform": "noise"
    },
    {
      "curvature": 1,
      "cutoff": 7578.181818181818,
      "degree": 32,
      "degreePotential": -0.0651077487391105,
      "duration": 0.12403846153846153,
      "endFrequency": 222,
      "frequency": 222,
      "midi": 57,
      "pan": -0.648,
      "phase": 0,
      "role": "lead",
      "source": "ETQ orbit 16, q=0",
      "stateIndex": 50,
      "time": 16.58653846153846,
      "velocity": 0.4751515151515152,
      "waveform": "noise"
    },
    {
      "curvature": 1,
      "cutoff": 7214.545454545455,
      "degree": 30,
      "degreePotential": -0.15772581384685924,
      "duration": 0.12403846153846153,
      "endFrequency": 209.54009741533596,
      "frequency": 209.54009741533596,
      "midi": 56,
      "pan": -0.648,
      "phase": 0,
      "role": "stab",
      "source": "ETQ orbit 17, q=0",
      "stateIndex": 53,
      "time": 16.73076923076923,
      "velocity": 0.4521212121212122,
      "waveform": "noise"
    },
    {
      "pan": -0.2268,
      "source": "ETQ orbit 17, q=0",
      "time": 16.73076923076923,
      "velocity": 0.33909090909090916,
      "voice": "kick"
    },
    {
      "curvature": 1,
      "cutoff": 7578.181818181818,
      "degree": 32,
      "degreePotential": -0.0651077487391105,
      "duration": 0.12403846153846153,
      "endFrequency": 222,
      "frequency": 222,
      "midi": 57,
      "pan": -0.648,
      "phase": 0,
      "role": "lead",
      "source": "ETQ orbit 13, q=0",
      "stateIndex": 41,
      "time": 16.875,
      "velocity": 0.4751515151515152,
      "waveform": "noise"
    },
    {
      "curvature": 1,
      "cutoff": 9578.181818181818,
      "degree": 43,
      "degreePotential": 0.4442916093535076,
      "duration": 0.12403846153846153,
      "endFrequency": 352.4030335369403,
      "frequency": 352.4030335369403,
      "midi": 65,
      "pan": 0.648,
      "phase": 0,
      "role": "lead",
      "source": "ETQ orbit 1, q=2",
      "stateIndex": 7,
      "time": 17.019230769230766,
      "velocity": 0.6018181818181818,
      "waveform": "noise"
    },
    {
      "curvature": 1,
      "cutoff": 9032.727272727272,
      "degree": 40,
      "degreePotential": 0.30536451169188444,
      "duration": 0.12403846153846153,
      "endFrequency": 313.95541084682714,
      "frequency": 313.95541084682714,
      "midi": 63,
      "pan": 0.648,
      "phase": 0,
      "role": "lead",
      "source": "ETQ orbit 7, q=2",
      "stateIndex": 25,
      "time": 17.163461538461537,
      "velocity": 0.5672727272727273,
      "waveform": "noise"
    },
    {
      "curvature": 1,
      "cutoff": 7578.181818181818,
      "degree": 32,
      "degreePotential": -0.0651077487391105,
      "duration": 0.12403846153846153,
      "endFrequency": 222,
      "frequency": 222,
      "midi": 57,
      "pan": -0.648,
      "phase": 0,
      "role": "stab",
      "source": "ETQ orbit 15, q=0",
      "stateIndex": 47,
      "time": 17.307692307692307,
      "velocity": 0.4751515151515152,
      "waveform": "noise"
    },
    {
      "pan": -0.2268,
      "source": "ETQ orbit 15, q=0",
      "time": 17.307692307692307,
      "velocity": 0.35636363636363644,
      "voice": "kick"
    },
    {
      "curvature": 1,
      "cutoff": 9396.363636363636,
      "degree": 42,
      "degreePotential": 0.39798257679963317,
      "duration": 0.12403846153846153,
      "endFrequency": 352.4030335369403,
      "frequency": 352.4030335369403,
      "midi": 65,
      "pan": -0.648,
      "phase": 0,
      "role": "lead",
      "source": "ETQ orbit 3, q=0",
      "stateIndex": 11,
      "time": 17.451923076923077,
      "velocity": 0.5903030303030303,
      "waveform": "noise"
    },
    {
      "curvature": -2,
      "cutoff": 6254.545454545455,
      "degree": 30,
      "degreePotential": -0.15772581384685924,
      "duration": 0.12403846153846153,
      "endFrequency": 209.54009741533596,
      "frequency": 209.54009741533596,
      "midi": 56,
      "pan": 0,
      "phase": 0,
      "role": "lead",
      "source": "ETQ orbit 17, q=1",
      "stateIndex": 54,
      "time": 17.596153846153843,
      "velocity": 0.5321212121212122,
      "waveform": "noise"
    },
    {
      "pan": 0,
      "source": "ETQ orbit 17, q=1",
      "time": 17.596153846153843,
      "velocity": 0.39909090909090916,
      "voice": "snare"
    },
    {
      "curvature": -2,
      "cutoff": 6800,
      "degree": 33,
      "degreePotential": -0.01879871618523613,
      "duration": 0.12403846153846153,
      "endFrequency": 235.20080694776357,
      "frequency": 235.20080694776357,
      "midi": 58,
      "pan": 0,
      "phase": 0,
      "role": "lead",
      "source": "ETQ orbit 11, q=1",
      "stateIndex": 36,
      "time": 17.740384615384613,
      "velocity": 0.5666666666666667,
      "waveform": "noise"
    },
    {
      "curvature": -2,
      "cutoff": 4800,
      "degree": 22,
      "degreePotential": -0.5281980742778541,
      "duration": 0.12403846153846153,
      "endFrequency": 148.16722381287383,
      "frequency": 148.16722381287383,
      "midi": 50,
      "pan": 0,
      "phase": 0,
      "role": "stab",
      "source": "ETQ orbit 31, q=1",
      "stateIndex": 96,
      "time": 17.884615384615383,
      "velocity": 0.44000000000000006,
      "waveform": "noise"
    },
    {
      "pan": 0,
      "source": "ETQ orbit 31, q=1",
      "time": 17.884615384615383,
      "velocity": 0.33000000000000007,
      "voice": "snare"
    },
    {
      "curvature": -2,
      "cutoff": 6981.818181818181,
      "degree": 34,
      "degreePotential": 0.027510316368638238,
      "duration": 0.12403846153846153,
      "endFrequency": 249.1865747246808,
      "frequency": 249.1865747246808,
      "midi": 59,
      "pan": 0,
      "phase": 0,
      "role": "lead",
      "source": "ETQ orbit 10, q=1",
      "stateIndex": 33,
      "time": 18.028846153846153,
      "velocity": 0.5781818181818182,
      "waveform": "noise"
    },
    {
      "curvature": -2,
      "cutoff": 4981.818181818181,
      "degree": 23,
      "degreePotential": -0.48188904172397984,
      "duration": 0.12403846153846153,
      "endFrequency": 156.97770542341357,
      "frequency": 156.97770542341357,
      "midi": 51,
      "pan": 0,
      "phase": 0,
      "role": "lead",
      "source": "ETQ orbit 27, q=1",
      "stateIndex": 84,
      "time": 18.17307692307692,
      "velocity": 0.45151515151515154,
      "waveform": "noise"
    },
    {
      "pan": 0,
      "source": "ETQ orbit 27, q=1",
      "time": 18.17307692307692,
      "velocity": 0.3386363636363636,
      "voice": "snare"
    },
    {
      "curvature": -2,
      "cutoff": 4800,
      "degree": 22,
      "degreePotential": -0.5281980742778541,
      "duration": 0.12403846153846153,
      "endFrequency": 148.16722381287383,
      "frequency": 148.16722381287383,
      "midi": 50,
      "pan": 0,
      "phase": 0,
      "role": "lead",
      "source": "ETQ orbit 30, q=1",
      "stateIndex": 93,
      "time": 18.31730769230769,
      "velocity": 0.44000000000000006,
      "waveform": "noise"
    },
    {
      "curvature": -2,
      "cutoff": 8436.363636363638,
      "degree": 42,
      "degreePotential": 0.39798257679963317,
      "duration": 0.12403846153846153,
      "endFrequency": 352.4030335369403,
      "frequency": 352.4030335369403,
      "midi": 65,
      "pan": 0,
      "phase": 0,
      "role": "stab",
      "source": "ETQ orbit 6, q=1",
      "stateIndex": 21,
      "time": 18.46153846153846,
      "velocity": 0.6703030303030304,
      "waveform": "noise"
    },
    {
      "pan": 0,
      "source": "ETQ orbit 6, q=1",
      "time": 18.46153846153846,
      "velocity": 0.5027272727272728,
      "voice": "snare"
    },
    {
      "curvature": 1,
      "cutoff": 7578.181818181818,
      "degree": 32,
      "degreePotential": -0.0651077487391105,
      "duration": 0.12403846153846153,
      "endFrequency": 222,
      "frequency": 222,
      "midi": 57,
      "pan": -0.648,
      "phase": 0,
      "role": "lead",
      "source": "ETQ orbit 24, q=0",
      "stateIndex": 74,
      "time": 18.60576923076923,
      "velocity": 0.4751515151515152,
      "waveform": "noise"
    },
    {
      "curvature": 1,
      "cutoff": 5760,
      "degree": 22,
      "degreePotential": -0.5281980742778541,
      "duration": 0.12403846153846153,
      "endFrequency": 148.16722381287383,
      "frequency": 148.16722381287383,
      "midi": 50,
      "pan": -0.648,
      "phase": 0,
      "role": "lead",
      "source": "ETQ orbit 31, q=0",
      "stateIndex": 95,
      "time": 18.75,
      "velocity": 0.36000000000000004,
      "waveform": "noise"
    },
    {
      "curvature": 1,
      "cutoff": 5941.818181818181,
      "degree": 23,
      "degreePotential": -0.48188904172397984,
      "duration": 0.12403846153846153,
      "endFrequency": 156.97770542341357,
      "frequency": 156.97770542341357,
      "midi": 51,
      "pan": -0.648,
      "phase": 0,
      "role": "lead",
      "source": "ETQ orbit 27, q=0",
      "stateIndex": 83,
      "time": 18.894230769230766,
      "velocity": 0.3715151515151516,
      "waveform": "noise"
    },
    {
      "curvature": 1,
      "cutoff": 7578.181818181818,
      "degree": 32,
      "degreePotential": -0.0651077487391105,
      "duration": 0.12403846153846153,
      "endFrequency": 222,
      "frequency": 222,
      "midi": 57,
      "pan": -0.648,
      "phase": 0,
      "role": "stab",
      "source": "ETQ orbit 21, q=0",
      "stateIndex": 65,
      "time": 19.038461538461537,
      "velocity": 0.4751515151515152,
      "waveform": "noise"
    },
    {
      "pan": -0.2268,
      "source": "ETQ orbit 21, q=0",
      "time": 19.038461538461537,
      "velocity": 0.35636363636363644,
      "voice": "kick"
    },
    {
      "curvature": 1,
      "cutoff": 7578.181818181818,
      "degree": 32,
      "degreePotential": -0.0651077487391105,
      "duration": 0.12403846153846153,
      "endFrequency": 222,
      "frequency": 222,
      "midi": 57,
      "pan": 0.648,
      "phase": 0,
      "role": "lead",
      "source": "ETQ orbit 21, q=2",
      "stateIndex": 67,
      "time": 19.182692307692307,
      "velocity": 0.4751515151515152,
      "waveform": "noise"
    },
    {
      "curvature": 1,
      "cutoff": 9396.363636363636,
      "degree": 42,
      "degreePotential": 0.39798257679963317,
      "duration": 0.12403846153846153,
      "endFrequency": 352.4030335369403,
      "frequency": 352.4030335369403,
      "midi": 65,
      "pan": -0.648,
      "phase": 0,
      "role": "lead",
      "source": "ETQ orbit 3, q=0",
      "stateIndex": 11,
      "time": 19.326923076923077,
      "velocity": 0.5903030303030303,
      "waveform": "noise"
    },
    {
      "curvature": 1,
      "cutoff": 7578.181818181818,
      "degree": 32,
      "degreePotential": -0.0651077487391105,
      "duration": 0.12403846153846153,
      "endFrequency": 222,
      "frequency": 222,
      "midi": 57,
      "pan": -0.648,
      "phase": 0,
      "role": "lead",
      "source": "ETQ orbit 23, q=0",
      "stateIndex": 71,
      "time": 19.471153846153843,
      "velocity": 0.4751515151515152,
      "waveform": "noise"
    },
    {
      "curvature": 1,
      "cutoff": 5941.818181818181,
      "degree": 23,
      "degreePotential": -0.48188904172397984,
      "duration": 0.12403846153846153,
      "endFrequency": 156.97770542341357,
      "frequency": 156.97770542341357,
      "midi": 51,
      "pan": -0.648,
      "phase": 0,
      "role": "stab",
      "source": "ETQ orbit 27, q=0",
      "stateIndex": 83,
      "time": 19.615384615384613,
      "velocity": 0.3715151515151516,
      "waveform": "noise"
    },
    {
      "pan": -0.2268,
      "source": "ETQ orbit 27, q=0",
      "time": 19.615384615384613,
      "velocity": 0.2786363636363637,
      "voice": "kick"
    },
    {
      "curvature": 1,
      "cutoff": 7760,
      "degree": 33,
      "degreePotential": -0.01879871618523613,
      "duration": 0.12403846153846153,
      "endFrequency": 235.20080694776357,
      "frequency": 235.20080694776357,
      "midi": 58,
      "pan": -0.648,
      "phase": 0,
      "role": "lead",
      "source": "ETQ orbit 11, q=0",
      "stateIndex": 35,
      "time": 19.759615384615383,
      "velocity": 0.4866666666666667,
      "waveform": "noise"
    },
    {
      "curvature": 1,
      "cutoff": 5760,
      "degree": 22,
      "degreePotential": -0.5281980742778541,
      "duration": 0.12403846153846153,
      "endFrequency": 148.16722381287383,
      "frequency": 148.16722381287383,
      "midi": 50,
      "pan": -0.648,
      "phase": 0,
      "role": "lead",
      "source": "ETQ orbit 29, q=0",
      "stateIndex": 89,
      "time": 19.903846153846153,
      "velocity": 0.36000000000000004,
      "waveform": "noise"
    },
    {
      "curvature": 1,
      "cutoff": 7760,
      "degree": 33,
      "degreePotential": -0.01879871618523613,
      "duration": 0.12403846153846153,
      "endFrequency": 235.20080694776357,
      "frequency": 235.20080694776357,
      "midi": 58,
      "pan": -0.648,
      "phase": 0,
      "role": "lead",
      "source": "ETQ orbit 19, q=0",
      "stateIndex": 59,
      "time": 20.04807692307692,
      "velocity": 0.4866666666666667,
      "waveform": "noise"
    },
    {
      "curvature": 1,
      "cutoff": 7760,
      "degree": 33,
      "degreePotential": -0.01879871618523613,
      "duration": 0.12403846153846153,
      "endFrequency": 235.20080694776357,
      "frequency": 235.20080694776357,
      "midi": 58,
      "pan": -0.648,
      "phase": 0,
      "role": "stab",
      "source": "ETQ orbit 20, q=0",
      "stateIndex": 62,
      "time": 20.19230769230769,
      "velocity": 0.4866666666666667,
      "waveform": "noise"
    },
    {
      "pan": -0.2268,
      "source": "ETQ orbit 20, q=0",
      "time": 20.19230769230769,
      "velocity": 0.365,
      "voice": "kick"
    },
    {
      "curvature": 1,
      "cutoff": 9760,
      "degree": 44,
      "degreePotential": 0.49060064190738195,
      "duration": 0.12403846153846153,
      "endFrequency": 373.35800837264924,
      "frequency": 373.35800837264924,
      "midi": 66,
      "pan": -0.648,
      "phase": 0,
      "role": "lead",
      "source": "ETQ orbit 0, q=0",
      "stateIndex": 2,
      "time": 20.33653846153846,
      "velocity": 0.6133333333333333,
      "waveform": "noise"
    },
    {
      "curvature": 1,
      "cutoff": 9032.727272727272,
      "degree": 40,
      "degreePotential": 0.30536451169188444,
      "duration": 0.12403846153846153,
      "endFrequency": 313.95541084682714,
      "frequency": 313.95541084682714,
      "midi": 63,
      "pan": 0.648,
      "phase": 0,
      "role": "lead",
      "source": "ETQ orbit 8, q=2",
      "stateIndex": 28,
      "time": 20.48076923076923,
      "velocity": 0.5672727272727273,
      "waveform": "noise"
    },
    {
      "curvature": 1,
      "cutoff": 7578.181818181818,
      "degree": 32,
      "degreePotential": -0.0651077487391105,
      "duration": 0.12403846153846153,
      "endFrequency": 222,
      "frequency": 222,
      "midi": 57,
      "pan": 0.648,
      "phase": 0,
      "role": "lead",
      "source": "ETQ orbit 23, q=2",
      "stateIndex": 73,
      "time": 20.624999999999996,
      "velocity": 0.4751515151515152,
      "waveform": "noise"
    },
    {
      "curvature": 1,
      "cutoff": 7578.181818181818,
      "degree": 32,
      "degreePotential": -0.0651077487391105,
      "duration": 0.12403846153846153,
      "endFrequency": 222,
      "frequency": 222,
      "midi": 57,
      "pan": -0.648,
      "phase": 0,
      "role": "stab",
      "source": "ETQ orbit 22, q=0",
      "stateIndex": 68,
      "time": 20.769230769230766,
      "velocity": 0.4751515151515152,
      "waveform": "noise"
    },
    {
      "pan": -0.2268,
      "source": "ETQ orbit 22, q=0",
      "time": 20.769230769230766,
      "velocity": 0.35636363636363644,
      "voice": "kick"
    }
  ],
  "mathematicalSource": "ETQ-101-v2.0.0-studio-extension",
  "receipt": {
    "eventCount": 190,
    "fixtures": {
      "etq": {
        "ambientFixedRoots": 12,
        "ambientThreeCycles": 76,
        "degreeSum": 3374,
        "fullQutritStates": null,
        "graphEdges": 1687,
        "states": 101
      },
      "roots": {
        "halfInteger": 128,
        "integer": 112,
        "rank": 8,
        "total": 240,
        "valid": true
      },
      "uniqueProjectionValues": 59
    },
    "peak": 0.92,
    "rms": 0.2459818598369461,
    "wavBytes": 3686804,
    "wavSha256": "4d6cc8f9be4e05a0c8f7dfa9970351f1c20e79712cc7378223990b56da80e5c3"
  },
  "recipe": {
    "baseMidi": 50,
    "bitDepth": 16,
    "bpm": 104,
    "channels": 2,
    "cutoff": 8000,
    "density": 0.51,
    "description": "All eight coordinates map to an industrial eight-voice drum grid.",
    "drive": 2.1,
    "duration": 20.9,
    "etqExperiment": "graph",
    "family": "E8 percussion",
    "grit": 0.12,
    "label": "R-8 Lattice Drums",
    "modelMode": "etq101",
    "pitchSpan": 24,
    "presetId": "r8Drums",
    "projection": "fibonacci",
    "renderMode": "drums",
    "sampleRate": 44100,
    "scale": "chromatic",
    "seed": "E8-R8-8",
    "space": 0.08,
    "traversal": "seeded",
    "tuning": 444,
    "waveform": "noise",
    "width": 0.9
  },
  "schema": "https://qsol-imc.example/schemas/e8-workbench-recipe-v1.json",
  "workbench": {
    "engineVersion": "1.0.0",
    "name": "E8 Sonification Workbench Studio"
  }
}