{
  "claimBoundary": "Mathematical/model fixtures drive an authored musical receiver. WAV parameters are not intrinsic E8 or qutrit properties.",
  "createdUtc": "2026-07-20T13:43:15.454Z",
  "eventPreview": [
    {
      "curvature": -2,
      "cutoff": 8847.636363636364,
      "degree": 42,
      "degreePotential": 0.39798257679963317,
      "duration": 0.09485294117647058,
      "endFrequency": 117.60040347388178,
      "frequency": 117.60040347388178,
      "midi": 46,
      "pan": 0,
      "phase": 0,
      "role": "stab",
      "source": "ETQ orbit 6, q=1",
      "stateIndex": 21,
      "time": 0,
      "velocity": 0.6703030303030304,
      "waveform": "saw"
    },
    {
      "pan": 0,
      "source": "ETQ orbit 6, q=1",
      "time": 0,
      "velocity": 0.5027272727272728,
      "voice": "snare"
    },
    {
      "curvature": 0,
      "cutoff": 12333.3,
      "degree": 55,
      "degreePotential": 1,
      "duration": 0.09485294117647058,
      "endFrequency": 197.77951542715533,
      "frequency": 197.77951542715533,
      "midi": 55,
      "pan": 0,
      "phase": 0,
      "role": "lead",
      "source": "ETQ singlet 1",
      "stateIndex": 1,
      "time": 0.11029411764705882,
      "velocity": 0.66,
      "waveform": "saw"
    },
    {
      "curvature": 1,
      "cutoff": 10045.118181818181,
      "degree": 43,
      "degreePotential": 0.4442916093535076,
      "duration": 0.09485294117647058,
      "endFrequency": 124.5932873623404,
      "frequency": 124.5932873623404,
      "midi": 47,
      "pan": -0.6192,
      "phase": 0,
      "role": "lead",
      "source": "ETQ orbit 1, q=0",
      "stateIndex": 5,
      "time": 0.22058823529411764,
      "velocity": 0.6018181818181818,
      "waveform": "saw"
    },
    {
      "curvature": 1,
      "cutoff": 9473.072727272725,
      "degree": 40,
      "degreePotential": 0.30536451169188444,
      "duration": 0.09485294117647058,
      "endFrequency": 111,
      "frequency": 111,
      "midi": 45,
      "pan": -0.6192,
      "phase": 0,
      "role": "lead",
      "source": "ETQ orbit 7, q=0",
      "stateIndex": 23,
      "time": 0.33088235294117646,
      "velocity": 0.5672727272727273,
      "waveform": "saw"
    },
    {
      "curvature": 1,
      "cutoff": 7566.254545454546,
      "degree": 30,
      "degreePotential": -0.15772581384685924,
      "duration": 0.09485294117647058,
      "endFrequency": 69.92561826916547,
      "frequency": 69.92561826916547,
      "midi": 37,
      "pan": -0.6192,
      "phase": 0,
      "role": "stab",
      "source": "ETQ orbit 17, q=0",
      "stateIndex": 53,
      "time": 0.4411764705882353,
      "velocity": 0.4521212121212122,
      "waveform": "saw"
    },
    {
      "pan": -0.21671999999999997,
      "source": "ETQ orbit 17, q=0",
      "time": 0.4411764705882353,
      "velocity": 0.33909090909090916,
      "voice": "kick"
    },
    {
      "curvature": 1,
      "cutoff": 8328.981818181817,
      "degree": 34,
      "degreePotential": 0.027510316368638238,
      "duration": 0.09485294117647058,
      "endFrequency": 83.15604276665583,
      "frequency": 83.15604276665583,
      "midi": 40,
      "pan": 0.6192,
      "phase": 0,
      "role": "lead",
      "source": "ETQ orbit 9, q=2",
      "stateIndex": 31,
      "time": 0.5514705882352942,
      "velocity": 0.4981818181818182,
      "waveform": "saw"
    },
    {
      "curvature": 0,
      "cutoff": 12333.3,
      "degree": 55,
      "degreePotential": 1,
      "duration": 0.09485294117647058,
      "endFrequency": 49.44487885678883,
      "frequency": 49.44487885678883,
      "midi": 31,
      "pan": 0,
      "phase": 0,
      "role": "lead",
      "source": "ETQ singlet 0",
      "stateIndex": 0,
      "time": 0.6617647058823529,
      "velocity": 0.66,
      "waveform": "saw"
    },
    {
      "curvature": 1,
      "cutoff": 8328.981818181817,
      "degree": 34,
      "degreePotential": 0.027510316368638238,
      "duration": 0.09485294117647058,
      "endFrequency": 83.15604276665583,
      "frequency": 83.15604276665583,
      "midi": 40,
      "pan": 0.6192,
      "phase": 0,
      "role": "lead",
      "source": "ETQ orbit 9, q=2",
      "stateIndex": 31,
      "time": 0.7720588235294117,
      "velocity": 0.4981818181818182,
      "waveform": "saw"
    },
    {
      "curvature": 1,
      "cutoff": 7947.618181818182,
      "degree": 32,
      "degreePotential": -0.0651077487391105,
      "duration": 0.09485294117647058,
      "endFrequency": 78.48885271170678,
      "frequency": 78.48885271170678,
      "midi": 39,
      "pan": 0.6192,
      "phase": 0,
      "role": "stab",
      "source": "ETQ orbit 16, q=2",
      "stateIndex": 52,
      "time": 0.8823529411764706,
      "velocity": 0.4751515151515152,
      "waveform": "saw"
    },
    {
      "pan": 0.21671999999999997,
      "source": "ETQ orbit 16, q=2",
      "time": 0.8823529411764706,
      "velocity": 0.35636363636363644,
      "voice": "kick"
    },
    {
      "curvature": 1,
      "cutoff": 6040.8,
      "degree": 22,
      "degreePotential": -0.5281980742778541,
      "duration": 0.09485294117647058,
      "endFrequency": 49.44487885678883,
      "frequency": 49.44487885678883,
      "midi": 31,
      "pan": 0.6192,
      "phase": 0,
      "role": "lead",
      "source": "ETQ orbit 31, q=2",
      "stateIndex": 97,
      "time": 0.9926470588235294,
      "velocity": 0.36000000000000004,
      "waveform": "saw"
    },
    {
      "curvature": 1,
      "cutoff": 6231.481818181818,
      "degree": 23,
      "degreePotential": -0.48188904172397984,
      "duration": 0.09485294117647058,
      "endFrequency": 52.385024353833984,
      "frequency": 52.385024353833984,
      "midi": 32,
      "pan": 0.6192,
      "phase": 0,
      "role": "lead",
      "source": "ETQ orbit 28, q=2",
      "stateIndex": 88,
      "time": 1.1029411764705883,
      "velocity": 0.3715151515151516,
      "waveform": "saw"
    },
    {
      "curvature": -2,
      "cutoff": 9038.31818181818,
      "degree": 43,
      "degreePotential": 0.4442916093535076,
      "duration": 0.09485294117647058,
      "endFrequency": 124.5932873623404,
      "frequency": 124.5932873623404,
      "midi": 47,
      "pan": 0,
      "phase": 0,
      "role": "lead",
      "source": "ETQ orbit 2, q=1",
      "stateIndex": 9,
      "time": 1.213235294117647,
      "velocity": 0.6818181818181819,
      "waveform": "saw"
    },
    {
      "curvature": -2,
      "cutoff": 8847.636363636364,
      "degree": 42,
      "degreePotential": 0.39798257679963317,
      "duration": 0.09485294117647058,
      "endFrequency": 117.60040347388178,
      "frequency": 117.60040347388178,
      "midi": 46,
      "pan": 0,
      "phase": 0,
      "role": "stab",
      "source": "ETQ orbit 3, q=1",
      "stateIndex": 12,
      "time": 1.3235294117647058,
      "velocity": 0.6703030303030304,
      "waveform": "saw"
    },
    {
      "pan": 0,
      "source": "ETQ orbit 3, q=1",
      "time": 1.3235294117647058,
      "velocity": 0.5027272727272728,
      "voice": "snare"
    },
    {
      "curvature": -2,
      "cutoff": 6559.454545454546,
      "degree": 30,
      "degreePotential": -0.15772581384685924,
      "duration": 0.09485294117647058,
      "endFrequency": 69.92561826916547,
      "frequency": 69.92561826916547,
      "midi": 37,
      "pan": 0,
      "phase": 0,
      "role": "lead",
      "source": "ETQ orbit 25, q=1",
      "stateIndex": 78,
      "time": 1.4338235294117647,
      "velocity": 0.5321212121212122,
      "waveform": "saw"
    },
    {
      "curvature": -2,
      "cutoff": 8847.636363636364,
      "degree": 42,
      "degreePotential": 0.39798257679963317,
      "duration": 0.09485294117647058,
      "endFrequency": 117.60040347388178,
      "frequency": 117.60040347388178,
      "midi": 46,
      "pan": 0,
      "phase": 0,
      "role": "lead",
      "source": "ETQ orbit 5, q=1",
      "stateIndex": 18,
      "time": 1.5441176470588234,
      "velocity": 0.6703030303030304,
      "waveform": "saw"
    },
    {
      "pan": 0,
      "source": "ETQ orbit 5, q=1",
      "time": 1.5441176470588234,
      "velocity": 0.5027272727272728,
      "voice": "snare"
    },
    {
      "curvature": -2,
      "cutoff": 5034,
      "degree": 22,
      "degreePotential": -0.5281980742778541,
      "duration": 0.09485294117647058,
      "endFrequency": 49.44487885678883,
      "frequency": 49.44487885678883,
      "midi": 31,
      "pan": 0,
      "phase": 0,
      "role": "lead",
      "source": "ETQ orbit 31, q=1",
      "stateIndex": 96,
      "time": 1.6544117647058822,
      "velocity": 0.44000000000000006,
      "waveform": "saw"
    },
    {
      "curvature": 1,
      "cutoff": 9854.436363636363,
      "degree": 42,
      "degreePotential": 0.39798257679963317,
      "duration": 0.09485294117647058,
      "endFrequency": 117.60040347388178,
      "frequency": 117.60040347388178,
      "midi": 46,
      "pan": -0.6192,
      "phase": 0,
      "role": "stab",
      "source": "ETQ orbit 4, q=0",
      "stateIndex": 14,
      "time": 1.7647058823529411,
      "velocity": 0.5903030303030303,
      "waveform": "saw"
    },
    {
      "pan": -0.21671999999999997,
      "source": "ETQ orbit 4, q=0",
      "time": 1.7647058823529411,
      "velocity": 0.44272727272727275,
      "voice": "kick"
    },
    {
      "curvature": 1,
      "cutoff": 7947.618181818182,
      "degree": 32,
      "degreePotential": -0.0651077487391105,
      "duration": 0.09485294117647058,
      "endFrequency": 78.48885271170678,
      "frequency": 78.48885271170678,
      "midi": 39,
      "pan": -0.6192,
      "phase": 0,
      "role": "lead",
      "source": "ETQ orbit 15, q=0",
      "stateIndex": 47,
      "time": 1.875,
      "velocity": 0.4751515151515152,
      "waveform": "saw"
    },
    {
      "curvature": 1,
      "cutoff": 7947.618181818182,
      "degree": 32,
      "degreePotential": -0.0651077487391105,
      "duration": 0.09485294117647058,
      "endFrequency": 78.48885271170678,
      "frequency": 78.48885271170678,
      "midi": 39,
      "pan": -0.6192,
      "phase": 0,
      "role": "lead",
      "source": "ETQ orbit 16, q=0",
      "stateIndex": 50,
      "time": 1.9852941176470589,
      "velocity": 0.4751515151515152,
      "waveform": "saw"
    },
    {
      "curvature": 1,
      "cutoff": 7947.618181818182,
      "degree": 32,
      "degreePotential": -0.0651077487391105,
      "duration": 0.09485294117647058,
      "endFrequency": 78.48885271170678,
      "frequency": 78.48885271170678,
      "midi": 39,
      "pan": 0.6192,
      "phase": 0,
      "role": "lead",
      "source": "ETQ orbit 16, q=2",
      "stateIndex": 52,
      "time": 2.0955882352941178,
      "velocity": 0.4751515151515152,
      "waveform": "saw"
    },
    {
      "curvature": 1,
      "cutoff": 7947.618181818182,
      "degree": 32,
      "degreePotential": -0.0651077487391105,
      "duration": 0.09485294117647058,
      "endFrequency": 78.48885271170678,
      "frequency": 78.48885271170678,
      "midi": 39,
      "pan": -0.6192,
      "phase": 0,
      "role": "stab",
      "source": "ETQ orbit 16, q=0",
      "stateIndex": 50,
      "time": 2.2058823529411766,
      "velocity": 0.4751515151515152,
      "waveform": "saw"
    },
    {
      "pan": -0.21671999999999997,
      "source": "ETQ orbit 16, q=0",
      "time": 2.2058823529411766,
      "velocity": 0.35636363636363644,
      "voice": "kick"
    },
    {
      "curvature": 1,
      "cutoff": 9854.436363636363,
      "degree": 42,
      "degreePotential": 0.39798257679963317,
      "duration": 0.09485294117647058,
      "endFrequency": 117.60040347388178,
      "frequency": 117.60040347388178,
      "midi": 46,
      "pan": 0.6192,
      "phase": 0,
      "role": "lead",
      "source": "ETQ orbit 6, q=2",
      "stateIndex": 22,
      "time": 2.316176470588235,
      "velocity": 0.5903030303030303,
      "waveform": "saw"
    },
    {
      "curvature": 1,
      "cutoff": 10045.118181818181,
      "degree": 43,
      "degreePotential": 0.4442916093535076,
      "duration": 0.09485294117647058,
      "endFrequency": 124.5932873623404,
      "frequency": 124.5932873623404,
      "midi": 47,
      "pan": 0.6192,
      "phase": 0,
      "role": "lead",
      "source": "ETQ orbit 1, q=2",
      "stateIndex": 7,
      "time": 2.426470588235294,
      "velocity": 0.6018181818181818,
      "waveform": "saw"
    },
    {
      "curvature": 1,
      "cutoff": 7947.618181818182,
      "degree": 32,
      "degreePotential": -0.0651077487391105,
      "duration": 0.09485294117647058,
      "endFrequency": 78.48885271170678,
      "frequency": 78.48885271170678,
      "midi": 39,
      "pan": 0.6192,
      "phase": 0,
      "role": "lead",
      "source": "ETQ orbit 14, q=2",
      "stateIndex": 46,
      "time": 2.536764705882353,
      "velocity": 0.4751515151515152,
      "waveform": "saw"
    },
    {
      "curvature": 1,
      "cutoff": 7947.618181818182,
      "degree": 32,
      "degreePotential": -0.0651077487391105,
      "duration": 0.09485294117647058,
      "endFrequency": 78.48885271170678,
      "frequency": 78.48885271170678,
      "midi": 39,
      "pan": -0.6192,
      "phase": 0,
      "role": "stab",
      "source": "ETQ orbit 15, q=0",
      "stateIndex": 47,
      "time": 2.6470588235294117,
      "velocity": 0.4751515151515152,
      "waveform": "saw"
    },
    {
      "pan": -0.21671999999999997,
      "source": "ETQ orbit 15, q=0",
      "time": 2.6470588235294117,
      "velocity": 0.35636363636363644,
      "voice": "kick"
    },
    {
      "curvature": -2,
      "cutoff": 6559.454545454546,
      "degree": 30,
      "degreePotential": -0.15772581384685924,
      "duration": 0.09485294117647058,
      "endFrequency": 69.92561826916547,
      "frequency": 69.92561826916547,
      "midi": 37,
      "pan": 0,
      "phase": 0,
      "role": "lead",
      "source": "ETQ orbit 17, q=1",
      "stateIndex": 54,
      "time": 2.7573529411764706,
      "velocity": 0.5321212121212122,
      "waveform": "saw"
    },
    {
      "curvature": -2,
      "cutoff": 6940.818181818182,
      "degree": 32,
      "degreePotential": -0.0651077487391105,
      "duration": 0.09485294117647058,
      "endFrequency": 78.48885271170678,
      "frequency": 78.48885271170678,
      "midi": 39,
      "pan": 0,
      "phase": 0,
      "role": "lead",
      "source": "ETQ orbit 13, q=1",
      "stateIndex": 42,
      "time": 2.8676470588235294,
      "velocity": 0.5551515151515152,
      "waveform": "saw"
    },
    {
      "pan": 0,
      "source": "ETQ orbit 13, q=1",
      "time": 2.8676470588235294,
      "velocity": 0.4163636363636364,
      "voice": "snare"
    },
    {
      "curvature": 1,
      "cutoff": 9854.436363636363,
      "degree": 42,
      "degreePotential": 0.39798257679963317,
      "duration": 0.09485294117647058,
      "endFrequency": 117.60040347388178,
      "frequency": 117.60040347388178,
      "midi": 46,
      "pan": -0.6192,
      "phase": 0,
      "role": "lead",
      "source": "ETQ orbit 3, q=0",
      "stateIndex": 11,
      "time": 2.9779411764705883,
      "velocity": 0.5903030303030303,
      "waveform": "saw"
    },
    {
      "curvature": -2,
      "cutoff": 6940.818181818182,
      "degree": 32,
      "degreePotential": -0.0651077487391105,
      "duration": 0.09485294117647058,
      "endFrequency": 78.48885271170678,
      "frequency": 78.48885271170678,
      "midi": 39,
      "pan": 0,
      "phase": 0,
      "role": "stab",
      "source": "ETQ orbit 21, q=1",
      "stateIndex": 66,
      "time": 3.0882352941176467,
      "velocity": 0.5551515151515152,
      "waveform": "saw"
    },
    {
      "pan": 0,
      "source": "ETQ orbit 21, q=1",
      "time": 3.0882352941176467,
      "velocity": 0.4163636363636364,
      "voice": "snare"
    },
    {
      "curvature": -2,
      "cutoff": 7131.5,
      "degree": 33,
      "degreePotential": -0.01879871618523613,
      "duration": 0.09485294117647058,
      "endFrequency": 78.48885271170678,
      "frequency": 78.48885271170678,
      "midi": 39,
      "pan": 0,
      "phase": 0,
      "role": "lead",
      "source": "ETQ orbit 19, q=1",
      "stateIndex": 60,
      "time": 3.1985294117647056,
      "velocity": 0.5666666666666667,
      "waveform": "saw"
    },
    {
      "curvature": -2,
      "cutoff": 6559.454545454546,
      "degree": 30,
      "degreePotential": -0.15772581384685924,
      "duration": 0.09485294117647058,
      "endFrequency": 69.92561826916547,
      "frequency": 69.92561826916547,
      "midi": 37,
      "pan": 0,
      "phase": 0,
      "role": "lead",
      "source": "ETQ orbit 25, q=1",
      "stateIndex": 78,
      "time": 3.3088235294117645,
      "velocity": 0.5321212121212122,
      "waveform": "saw"
    },
    {
      "pan": 0,
      "source": "ETQ orbit 25, q=1",
      "time": 3.3088235294117645,
      "velocity": 0.39909090909090916,
      "voice": "snare"
    },
    {
      "curvature": 1,
      "cutoff": 7947.618181818182,
      "degree": 32,
      "degreePotential": -0.0651077487391105,
      "duration": 0.09485294117647058,
      "endFrequency": 78.48885271170678,
      "frequency": 78.48885271170678,
      "midi": 39,
      "pan": -0.6192,
      "phase": 0,
      "role": "lead",
      "source": "ETQ orbit 23, q=0",
      "stateIndex": 71,
      "time": 3.4191176470588234,
      "velocity": 0.4751515151515152,
      "waveform": "saw"
    },
    {
      "curvature": 1,
      "cutoff": 7947.618181818182,
      "degree": 32,
      "degreePotential": -0.0651077487391105,
      "duration": 0.09485294117647058,
      "endFrequency": 78.48885271170678,
      "frequency": 78.48885271170678,
      "midi": 39,
      "pan": -0.6192,
      "phase": 0,
      "role": "stab",
      "source": "ETQ orbit 15, q=0",
      "stateIndex": 47,
      "time": 3.5294117647058822,
      "velocity": 0.4751515151515152,
      "waveform": "saw"
    },
    {
      "pan": -0.21671999999999997,
      "source": "ETQ orbit 15, q=0",
      "time": 3.5294117647058822,
      "velocity": 0.35636363636363644,
      "voice": "kick"
    },
    {
      "curvature": 1,
      "cutoff": 8328.981818181817,
      "degree": 34,
      "degreePotential": 0.027510316368638238,
      "duration": 0.09485294117647058,
      "endFrequency": 83.15604276665583,
      "frequency": 83.15604276665583,
      "midi": 40,
      "pan": -0.6192,
      "phase": 0,
      "role": "lead",
      "source": "ETQ orbit 9, q=0",
      "stateIndex": 29,
      "time": 3.639705882352941,
      "velocity": 0.4981818181818182,
      "waveform": "saw"
    },
    {
      "curvature": 1,
      "cutoff": 6231.481818181818,
      "degree": 23,
      "degreePotential": -0.48188904172397984,
      "duration": 0.09485294117647058,
      "endFrequency": 52.385024353833984,
      "frequency": 52.385024353833984,
      "midi": 32,
      "pan": -0.6192,
      "phase": 0,
      "role": "lead",
      "source": "ETQ orbit 28, q=0",
      "stateIndex": 86,
      "time": 3.75,
      "velocity": 0.3715151515151516,
      "waveform": "saw"
    },
    {
      "curvature": 1,
      "cutoff": 8328.981818181817,
      "degree": 34,
      "degreePotential": 0.027510316368638238,
      "duration": 0.09485294117647058,
      "endFrequency": 83.15604276665583,
      "frequency": 83.15604276665583,
      "midi": 40,
      "pan": -0.6192,
      "phase": 0,
      "role": "lead",
      "source": "ETQ orbit 9, q=0",
      "stateIndex": 29,
      "time": 3.860294117647059,
      "velocity": 0.4981818181818182,
      "waveform": "saw"
    },
    {
      "curvature": 1,
      "cutoff": 10045.118181818181,
      "degree": 43,
      "degreePotential": 0.4442916093535076,
      "duration": 0.09485294117647058,
      "endFrequency": 124.5932873623404,
      "frequency": 124.5932873623404,
      "midi": 47,
      "pan": -0.6192,
      "phase": 0,
      "role": "stab",
      "source": "ETQ orbit 1, q=0",
      "stateIndex": 5,
      "time": 3.9705882352941178,
      "velocity": 0.6018181818181818,
      "waveform": "saw"
    },
    {
      "pan": -0.21671999999999997,
      "source": "ETQ orbit 1, q=0",
      "time": 3.9705882352941178,
      "velocity": 0.45136363636363636,
      "voice": "kick"
    },
    {
      "curvature": 1,
      "cutoff": 10045.118181818181,
      "degree": 43,
      "degreePotential": 0.4442916093535076,
      "duration": 0.09485294117647058,
      "endFrequency": 124.5932873623404,
      "frequency": 124.5932873623404,
      "midi": 47,
      "pan": -0.6192,
      "phase": 0,
      "role": "lead",
      "source": "ETQ orbit 2, q=0",
      "stateIndex": 8,
      "time": 4.080882352941177,
      "velocity": 0.6018181818181818,
      "waveform": "saw"
    },
    {
      "curvature": 1,
      "cutoff": 8328.981818181817,
      "degree": 34,
      "degreePotential": 0.027510316368638238,
      "duration": 0.09485294117647058,
      "endFrequency": 83.15604276665583,
      "frequency": 83.15604276665583,
      "midi": 40,
      "pan": -0.6192,
      "phase": 0,
      "role": "lead",
      "source": "ETQ orbit 10, q=0",
      "stateIndex": 32,
      "time": 4.1911764705882355,
      "velocity": 0.4981818181818182,
      "waveform": "saw"
    },
    {
      "curvature": 1,
      "cutoff": 10045.118181818181,
      "degree": 43,
      "degreePotential": 0.4442916093535076,
      "duration": 0.09485294117647058,
      "endFrequency": 124.5932873623404,
      "frequency": 124.5932873623404,
      "midi": 47,
      "pan": -0.6192,
      "phase": 0,
      "role": "lead",
      "source": "ETQ orbit 1, q=0",
      "stateIndex": 5,
      "time": 4.301470588235294,
      "velocity": 0.6018181818181818,
      "waveform": "saw"
    },
    {
      "curvature": 1,
      "cutoff": 8328.981818181817,
      "degree": 34,
      "degreePotential": 0.027510316368638238,
      "duration": 0.09485294117647058,
      "endFrequency": 83.15604276665583,
      "frequency": 83.15604276665583,
      "midi": 40,
      "pan": -0.6192,
      "phase": 0,
      "role": "stab",
      "source": "ETQ orbit 9, q=0",
      "stateIndex": 29,
      "time": 4.411764705882353,
      "velocity": 0.4981818181818182,
      "waveform": "saw"
    },
    {
      "pan": -0.21671999999999997,
      "source": "ETQ orbit 9, q=0",
      "time": 4.411764705882353,
      "velocity": 0.37363636363636366,
      "voice": "kick"
    },
    {
      "curvature": 1,
      "cutoff": 9473.072727272725,
      "degree": 40,
      "degreePotential": 0.30536451169188444,
      "duration": 0.09485294117647058,
      "endFrequency": 111,
      "frequency": 111,
      "midi": 45,
      "pan": -0.6192,
      "phase": 0,
      "role": "lead",
      "source": "ETQ orbit 7, q=0",
      "stateIndex": 23,
      "time": 4.522058823529411,
      "velocity": 0.5672727272727273,
      "waveform": "saw"
    },
    {
      "curvature": -2,
      "cutoff": 6559.454545454546,
      "degree": 30,
      "degreePotential": -0.15772581384685924,
      "duration": 0.09485294117647058,
      "endFrequency": 69.92561826916547,
      "frequency": 69.92561826916547,
      "midi": 37,
      "pan": 0,
      "phase": 0,
      "role": "lead",
      "source": "ETQ orbit 25, q=1",
      "stateIndex": 78,
      "time": 4.63235294117647,
      "velocity": 0.5321212121212122,
      "waveform": "saw"
    },
    {
      "pan": 0,
      "source": "ETQ orbit 25, q=1",
      "time": 4.63235294117647,
      "velocity": 0.39909090909090916,
      "voice": "snare"
    },
    {
      "curvature": 1,
      "cutoff": 7566.254545454546,
      "degree": 30,
      "degreePotential": -0.15772581384685924,
      "duration": 0.09485294117647058,
      "endFrequency": 69.92561826916547,
      "frequency": 69.92561826916547,
      "midi": 37,
      "pan": -0.6192,
      "phase": 0,
      "role": "lead",
      "source": "ETQ orbit 26, q=0",
      "stateIndex": 80,
      "time": 4.742647058823529,
      "velocity": 0.4521212121212122,
      "waveform": "saw"
    },
    {
      "curvature": 1,
      "cutoff": 9473.072727272725,
      "degree": 40,
      "degreePotential": 0.30536451169188444,
      "duration": 0.09485294117647058,
      "endFrequency": 111,
      "frequency": 111,
      "midi": 45,
      "pan": 0.6192,
      "phase": 0,
      "role": "stab",
      "source": "ETQ orbit 8, q=2",
      "stateIndex": 28,
      "time": 4.852941176470588,
      "velocity": 0.5672727272727273,
      "waveform": "saw"
    },
    {
      "pan": 0.21671999999999997,
      "source": "ETQ orbit 8, q=2",
      "time": 4.852941176470588,
      "velocity": 0.4254545454545454,
      "voice": "kick"
    },
    {
      "curvature": -2,
      "cutoff": 8847.636363636364,
      "degree": 42,
      "degreePotential": 0.39798257679963317,
      "duration": 0.09485294117647058,
      "endFrequency": 117.60040347388178,
      "frequency": 117.60040347388178,
      "midi": 46,
      "pan": 0,
      "phase": 0,
      "role": "lead",
      "source": "ETQ orbit 4, q=1",
      "stateIndex": 15,
      "time": 4.963235294117647,
      "velocity": 0.6703030303030304,
      "waveform": "saw"
    },
    {
      "curvature": -2,
      "cutoff": 6940.818181818182,
      "degree": 32,
      "degreePotential": -0.0651077487391105,
      "duration": 0.09485294117647058,
      "endFrequency": 78.48885271170678,
      "frequency": 78.48885271170678,
      "midi": 39,
      "pan": 0,
      "phase": 0,
      "role": "lead",
      "source": "ETQ orbit 21, q=1",
      "stateIndex": 66,
      "time": 5.073529411764706,
      "velocity": 0.5551515151515152,
      "waveform": "saw"
    },
    {
      "pan": 0,
      "source": "ETQ orbit 21, q=1",
      "time": 5.073529411764706,
      "velocity": 0.4163636363636364,
      "voice": "snare"
    },
    {
      "curvature": 0,
      "cutoff": 12333.3,
      "degree": 55,
      "degreePotential": 1,
      "duration": 0.09485294117647058,
      "endFrequency": 197.77951542715533,
      "frequency": 197.77951542715533,
      "midi": 55,
      "pan": 0,
      "phase": 0,
      "role": "lead",
      "source": "ETQ singlet 1",
      "stateIndex": 1,
      "time": 5.1838235294117645,
      "velocity": 0.66,
      "waveform": "saw"
    },
    {
      "curvature": -2,
      "cutoff": 8847.636363636364,
      "degree": 42,
      "degreePotential": 0.39798257679963317,
      "duration": 0.09485294117647058,
      "endFrequency": 117.60040347388178,
      "frequency": 117.60040347388178,
      "midi": 46,
      "pan": 0,
      "phase": 0,
      "role": "stab",
      "source": "ETQ orbit 5, q=1",
      "stateIndex": 18,
      "time": 5.294117647058823,
      "velocity": 0.6703030303030304,
      "waveform": "saw"
    },
    {
      "pan": 0,
      "source": "ETQ orbit 5, q=1",
      "time": 5.294117647058823,
      "velocity": 0.5027272727272728,
      "voice": "snare"
    },
    {
      "curvature": 1,
      "cutoff": 8138.3,
      "degree": 33,
      "degreePotential": -0.01879871618523613,
      "duration": 0.09485294117647058,
      "endFrequency": 78.48885271170678,
      "frequency": 78.48885271170678,
      "midi": 39,
      "pan": 0.6192,
      "phase": 0,
      "role": "lead",
      "source": "ETQ orbit 12, q=2",
      "stateIndex": 40,
      "time": 5.404411764705882,
      "velocity": 0.4866666666666667,
      "waveform": "saw"
    },
    {
      "curvature": 1,
      "cutoff": 9854.436363636363,
      "degree": 42,
      "degreePotential": 0.39798257679963317,
      "duration": 0.09485294117647058,
      "endFrequency": 117.60040347388178,
      "frequency": 117.60040347388178,
      "midi": 46,
      "pan": 0.6192,
      "phase": 0,
      "role": "lead",
      "source": "ETQ orbit 4, q=2",
      "stateIndex": 16,
      "time": 5.514705882352941,
      "velocity": 0.5903030303030303,
      "waveform": "saw"
    },
    {
      "curvature": 1,
      "cutoff": 9854.436363636363,
      "degree": 42,
      "degreePotential": 0.39798257679963317,
      "duration": 0.09485294117647058,
      "endFrequency": 117.60040347388178,
      "frequency": 117.60040347388178,
      "midi": 46,
      "pan": -0.6192,
      "phase": 0,
      "role": "lead",
      "source": "ETQ orbit 3, q=0",
      "stateIndex": 11,
      "time": 5.625,
      "velocity": 0.5903030303030303,
      "waveform": "saw"
    },
    {
      "curvature": -2,
      "cutoff": 6940.818181818182,
      "degree": 32,
      "degreePotential": -0.0651077487391105,
      "duration": 0.09485294117647058,
      "endFrequency": 78.48885271170678,
      "frequency": 78.48885271170678,
      "midi": 39,
      "pan": 0,
      "phase": 0,
      "role": "stab",
      "source": "ETQ orbit 14, q=1",
      "stateIndex": 45,
      "time": 5.735294117647059,
      "velocity": 0.5551515151515152,
      "waveform": "saw"
    },
    {
      "pan": 0,
      "source": "ETQ orbit 14, q=1",
      "time": 5.735294117647059,
      "velocity": 0.4163636363636364,
      "voice": "snare"
    },
    {
      "curvature": -2,
      "cutoff": 7131.5,
      "degree": 33,
      "degreePotential": -0.01879871618523613,
      "duration": 0.09485294117647058,
      "endFrequency": 78.48885271170678,
      "frequency": 78.48885271170678,
      "midi": 39,
      "pan": 0,
      "phase": 0,
      "role": "lead",
      "source": "ETQ orbit 12, q=1",
      "stateIndex": 39,
      "time": 5.845588235294118,
      "velocity": 0.5666666666666667,
      "waveform": "saw"
    },
    {
      "curvature": -2,
      "cutoff": 7322.181818181818,
      "degree": 34,
      "degreePotential": 0.027510316368638238,
      "duration": 0.09485294117647058,
      "endFrequency": 83.15604276665583,
      "frequency": 83.15604276665583,
      "midi": 40,
      "pan": 0,
      "phase": 0,
      "role": "lead",
      "source": "ETQ orbit 9, q=1",
      "stateIndex": 30,
      "time": 5.955882352941177,
      "velocity": 0.5781818181818182,
      "waveform": "saw"
    },
    {
      "pan": 0,
      "source": "ETQ orbit 9, q=1",
      "time": 5.955882352941177,
      "velocity": 0.4336363636363637,
      "voice": "snare"
    },
    {
      "curvature": 1,
      "cutoff": 7947.618181818182,
      "degree": 32,
      "degreePotential": -0.0651077487391105,
      "duration": 0.09485294117647058,
      "endFrequency": 78.48885271170678,
      "frequency": 78.48885271170678,
      "midi": 39,
      "pan": 0.6192,
      "phase": 0,
      "role": "lead",
      "source": "ETQ orbit 14, q=2",
      "stateIndex": 46,
      "time": 6.0661764705882355,
      "velocity": 0.4751515151515152,
      "waveform": "saw"
    },
    {
      "curvature": 1,
      "cutoff": 9854.436363636363,
      "degree": 42,
      "degreePotential": 0.39798257679963317,
      "duration": 0.09485294117647058,
      "endFrequency": 117.60040347388178,
      "frequency": 117.60040347388178,
      "midi": 46,
      "pan": 0.6192,
      "phase": 0,
      "role": "stab",
      "source": "ETQ orbit 6, q=2",
      "stateIndex": 22,
      "time": 6.1764705882352935,
      "velocity": 0.5903030303030303,
      "waveform": "saw"
    },
    {
      "pan": 0.21671999999999997,
      "source": "ETQ orbit 6, q=2",
      "time": 6.1764705882352935,
      "velocity": 0.44272727272727275,
      "voice": "kick"
    },
    {
      "curvature": 1,
      "cutoff": 10045.118181818181,
      "degree": 43,
      "degreePotential": 0.4442916093535076,
      "duration": 0.09485294117647058,
      "endFrequency": 124.5932873623404,
      "frequency": 124.5932873623404,
      "midi": 47,
      "pan": 0.6192,
      "phase": 0,
      "role": "lead",
      "source": "ETQ orbit 2, q=2",
      "stateIndex": 10,
      "time": 6.286764705882352,
      "velocity": 0.6018181818181818,
      "waveform": "saw"
    },
    {
      "curvature": 1,
      "cutoff": 7947.618181818182,
      "degree": 32,
      "degreePotential": -0.0651077487391105,
      "duration": 0.09485294117647058,
      "endFrequency": 78.48885271170678,
      "frequency": 78.48885271170678,
      "midi": 39,
      "pan": -0.6192,
      "phase": 0,
      "role": "lead",
      "source": "ETQ orbit 14, q=0",
      "stateIndex": 44,
      "time": 6.397058823529411,
      "velocity": 0.4751515151515152,
      "waveform": "saw"
    },
    {
      "curvature": 1,
      "cutoff": 8328.981818181817,
      "degree": 34,
      "degreePotential": 0.027510316368638238,
      "duration": 0.09485294117647058,
      "endFrequency": 83.15604276665583,
      "frequency": 83.15604276665583,
      "midi": 40,
      "pan": 0.6192,
      "phase": 0,
      "role": "lead",
      "source": "ETQ orbit 9, q=2",
      "stateIndex": 31,
      "time": 6.50735294117647,
      "velocity": 0.4981818181818182,
      "waveform": "saw"
    },
    {
      "curvature": 1,
      "cutoff": 9473.072727272725,
      "degree": 40,
      "degreePotential": 0.30536451169188444,
      "duration": 0.09485294117647058,
      "endFrequency": 111,
      "frequency": 111,
      "midi": 45,
      "pan": 0.6192,
      "phase": 0,
      "role": "stab",
      "source": "ETQ orbit 7, q=2",
      "stateIndex": 25,
      "time": 6.617647058823529,
      "velocity": 0.5672727272727273,
      "waveform": "saw"
    },
    {
      "pan": 0.21671999999999997,
      "source": "ETQ orbit 7, q=2",
      "time": 6.617647058823529,
      "velocity": 0.4254545454545454,
      "voice": "kick"
    },
    {
      "curvature": 1,
      "cutoff": 7566.254545454546,
      "degree": 30,
      "degreePotential": -0.15772581384685924,
      "duration": 0.09485294117647058,
      "endFrequency": 69.92561826916547,
      "frequency": 69.92561826916547,
      "midi": 37,
      "pan": -0.6192,
      "phase": 0,
      "role": "lead",
      "source": "ETQ orbit 17, q=0",
      "stateIndex": 53,
      "time": 6.727941176470588,
      "velocity": 0.4521212121212122,
      "waveform": "saw"
    },
    {
      "curvature": 1,
      "cutoff": 7947.618181818182,
      "degree": 32,
      "degreePotential": -0.0651077487391105,
      "duration": 0.09485294117647058,
      "endFrequency": 78.48885271170678,
      "frequency": 78.48885271170678,
      "midi": 39,
      "pan": -0.6192,
      "phase": 0,
      "role": "lead",
      "source": "ETQ orbit 13, q=0",
      "stateIndex": 41,
      "time": 6.838235294117647,
      "velocity": 0.4751515151515152,
      "waveform": "saw"
    },
    {
      "curvature": -2,
      "cutoff": 8847.636363636364,
      "degree": 42,
      "degreePotential": 0.39798257679963317,
      "duration": 0.09485294117647058,
      "endFrequency": 117.60040347388178,
      "frequency": 117.60040347388178,
      "midi": 46,
      "pan": 0,
      "phase": 0,
      "role": "lead",
      "source": "ETQ orbit 3, q=1",
      "stateIndex": 12,
      "time": 6.948529411764706,
      "velocity": 0.6703030303030304,
      "waveform": "saw"
    },
    {
      "curvature": -2,
      "cutoff": 6940.818181818182,
      "degree": 32,
      "degreePotential": -0.0651077487391105,
      "duration": 0.09485294117647058,
      "endFrequency": 78.48885271170678,
      "frequency": 78.48885271170678,
      "midi": 39,
      "pan": 0,
      "phase": 0,
      "role": "stab",
      "source": "ETQ orbit 13, q=1",
      "stateIndex": 42,
      "time": 7.0588235294117645,
      "velocity": 0.5551515151515152,
      "waveform": "saw"
    },
    {
      "pan": 0,
      "source": "ETQ orbit 13, q=1",
      "time": 7.0588235294117645,
      "velocity": 0.4163636363636364,
      "voice": "snare"
    },
    {
      "curvature": 1,
      "cutoff": 9473.072727272725,
      "degree": 40,
      "degreePotential": 0.30536451169188444,
      "duration": 0.09485294117647058,
      "endFrequency": 111,
      "frequency": 111,
      "midi": 45,
      "pan": -0.6192,
      "phase": 0,
      "role": "lead",
      "source": "ETQ orbit 7, q=0",
      "stateIndex": 23,
      "time": 7.169117647058823,
      "velocity": 0.5672727272727273,
      "waveform": "saw"
    },
    {
      "curvature": 1,
      "cutoff": 7566.254545454546,
      "degree": 30,
      "degreePotential": -0.15772581384685924,
      "duration": 0.09485294117647058,
      "endFrequency": 69.92561826916547,
      "frequency": 69.92561826916547,
      "midi": 37,
      "pan": 0.6192,
      "phase": 0,
      "role": "lead",
      "source": "ETQ orbit 17, q=2",
      "stateIndex": 55,
      "time": 7.279411764705882,
      "velocity": 0.4521212121212122,
      "waveform": "saw"
    },
    {
      "curvature": 1,
      "cutoff": 7947.618181818182,
      "degree": 32,
      "degreePotential": -0.0651077487391105,
      "duration": 0.09485294117647058,
      "endFrequency": 78.48885271170678,
      "frequency": 78.48885271170678,
      "midi": 39,
      "pan": 0.6192,
      "phase": 0,
      "role": "lead",
      "source": "ETQ orbit 15, q=2",
      "stateIndex": 49,
      "time": 7.389705882352941,
      "velocity": 0.4751515151515152,
      "waveform": "saw"
    },
    {
      "curvature": 0,
      "cutoff": 12333.3,
      "degree": 55,
      "degreePotential": 1,
      "duration": 0.09485294117647058,
      "endFrequency": 49.44487885678883,
      "frequency": 49.44487885678883,
      "midi": 31,
      "pan": 0,
      "phase": 0,
      "role": "stab",
      "source": "ETQ singlet 0",
      "stateIndex": 0,
      "time": 7.5,
      "velocity": 0.66,
      "waveform": "saw"
    },
    {
      "pan": 0,
      "source": "ETQ singlet 0",
      "time": 7.5,
      "velocity": 0.495,
      "voice": "kick"
    },
    {
      "curvature": 1,
      "cutoff": 7947.618181818182,
      "degree": 32,
      "degreePotential": -0.0651077487391105,
      "duration": 0.09485294117647058,
      "endFrequency": 78.48885271170678,
      "frequency": 78.48885271170678,
      "midi": 39,
      "pan": 0.6192,
      "phase": 0,
      "role": "lead",
      "source": "ETQ orbit 16, q=2",
      "stateIndex": 52,
      "time": 7.610294117647059,
      "velocity": 0.4751515151515152,
      "waveform": "saw"
    },
    {
      "curvature": -2,
      "cutoff": 6559.454545454546,
      "degree": 30,
      "degreePotential": -0.15772581384685924,
      "duration": 0.09485294117647058,
      "endFrequency": 69.92561826916547,
      "frequency": 69.92561826916547,
      "midi": 37,
      "pan": 0,
      "phase": 0,
      "role": "lead",
      "source": "ETQ orbit 18, q=1",
      "stateIndex": 57,
      "time": 7.720588235294118,
      "velocity": 0.5321212121212122,
      "waveform": "saw"
    },
    {
      "pan": 0,
      "source": "ETQ orbit 18, q=1",
      "time": 7.720588235294118,
      "velocity": 0.39909090909090916,
      "voice": "snare"
    },
    {
      "curvature": 1,
      "cutoff": 7947.618181818182,
      "degree": 32,
      "degreePotential": -0.0651077487391105,
      "duration": 0.09485294117647058,
      "endFrequency": 78.48885271170678,
      "frequency": 78.48885271170678,
      "midi": 39,
      "pan": 0.6192,
      "phase": 0,
      "role": "lead",
      "source": "ETQ orbit 15, q=2",
      "stateIndex": 49,
      "time": 7.830882352941177,
      "velocity": 0.4751515151515152,
      "waveform": "saw"
    },
    {
      "curvature": 1,
      "cutoff": 7947.618181818182,
      "degree": 32,
      "degreePotential": -0.0651077487391105,
      "duration": 0.09485294117647058,
      "endFrequency": 78.48885271170678,
      "frequency": 78.48885271170678,
      "midi": 39,
      "pan": -0.6192,
      "phase": 0,
      "role": "stab",
      "source": "ETQ orbit 16, q=0",
      "stateIndex": 50,
      "time": 7.9411764705882355,
      "velocity": 0.4751515151515152,
      "waveform": "saw"
    },
    {
      "pan": -0.21671999999999997,
      "source": "ETQ orbit 16, q=0",
      "time": 7.9411764705882355,
      "velocity": 0.35636363636363644,
      "voice": "kick"
    },
    {
      "curvature": 1,
      "cutoff": 6040.8,
      "degree": 22,
      "degreePotential": -0.5281980742778541,
      "duration": 0.09485294117647058,
      "endFrequency": 49.44487885678883,
      "frequency": 49.44487885678883,
      "midi": 31,
      "pan": -0.6192,
      "phase": 0,
      "role": "lead",
      "source": "ETQ orbit 32, q=0",
      "stateIndex": 98,
      "time": 8.051470588235293,
      "velocity": 0.36000000000000004,
      "waveform": "saw"
    },
    {
      "curvature": 1,
      "cutoff": 9473.072727272725,
      "degree": 40,
      "degreePotential": 0.30536451169188444,
      "duration": 0.09485294117647058,
      "endFrequency": 111,
      "frequency": 111,
      "midi": 45,
      "pan": -0.6192,
      "phase": 0,
      "role": "lead",
      "source": "ETQ orbit 8, q=0",
      "stateIndex": 26,
      "time": 8.161764705882353,
      "velocity": 0.5672727272727273,
      "waveform": "saw"
    },
    {
      "curvature": 1,
      "cutoff": 8328.981818181817,
      "degree": 34,
      "degreePotential": 0.027510316368638238,
      "duration": 0.09485294117647058,
      "endFrequency": 83.15604276665583,
      "frequency": 83.15604276665583,
      "midi": 40,
      "pan": -0.6192,
      "phase": 0,
      "role": "lead",
      "source": "ETQ orbit 10, q=0",
      "stateIndex": 32,
      "time": 8.272058823529411,
      "velocity": 0.4981818181818182,
      "waveform": "saw"
    },
    {
      "curvature": 1,
      "cutoff": 6040.8,
      "degree": 22,
      "degreePotential": -0.5281980742778541,
      "duration": 0.09485294117647058,
      "endFrequency": 49.44487885678883,
      "frequency": 49.44487885678883,
      "midi": 31,
      "pan": -0.6192,
      "phase": 0,
      "role": "stab",
      "source": "ETQ orbit 29, q=0",
      "stateIndex": 89,
      "time": 8.382352941176471,
      "velocity": 0.36000000000000004,
      "waveform": "saw"
    },
    {
      "pan": -0.21671999999999997,
      "source": "ETQ orbit 29, q=0",
      "time": 8.382352941176471,
      "velocity": 0.27,
      "voice": "kick"
    },
    {
      "curvature": 1,
      "cutoff": 7947.618181818182,
      "degree": 32,
      "degreePotential": -0.0651077487391105,
      "duration": 0.09485294117647058,
      "endFrequency": 78.48885271170678,
      "frequency": 78.48885271170678,
      "midi": 39,
      "pan": -0.6192,
      "phase": 0,
      "role": "lead",
      "source": "ETQ orbit 13, q=0",
      "stateIndex": 41,
      "time": 8.492647058823529,
      "velocity": 0.4751515151515152,
      "waveform": "saw"
    },
    {
      "curvature": 1,
      "cutoff": 7947.618181818182,
      "degree": 32,
      "degreePotential": -0.0651077487391105,
      "duration": 0.09485294117647058,
      "endFrequency": 78.48885271170678,
      "frequency": 78.48885271170678,
      "midi": 39,
      "pan": -0.6192,
      "phase": 0,
      "role": "lead",
      "source": "ETQ orbit 14, q=0",
      "stateIndex": 44,
      "time": 8.602941176470589,
      "velocity": 0.4751515151515152,
      "waveform": "saw"
    },
    {
      "curvature": 0,
      "cutoff": 12333.3,
      "degree": 55,
      "degreePotential": 1,
      "duration": 0.09485294117647058,
      "endFrequency": 49.44487885678883,
      "frequency": 49.44487885678883,
      "midi": 31,
      "pan": 0,
      "phase": 0,
      "role": "lead",
      "source": "ETQ singlet 0",
      "stateIndex": 0,
      "time": 8.713235294117647,
      "velocity": 0.66,
      "waveform": "saw"
    },
    {
      "curvature": 1,
      "cutoff": 7566.254545454546,
      "degree": 30,
      "degreePotential": -0.15772581384685924,
      "duration": 0.09485294117647058,
      "endFrequency": 69.92561826916547,
      "frequency": 69.92561826916547,
      "midi": 37,
      "pan": 0.6192,
      "phase": 0,
      "role": "stab",
      "source": "ETQ orbit 18, q=2",
      "stateIndex": 58,
      "time": 8.823529411764707,
      "velocity": 0.4521212121212122,
      "waveform": "saw"
    },
    {
      "pan": 0.21671999999999997,
      "source": "ETQ orbit 18, q=2",
      "time": 8.823529411764707,
      "velocity": 0.33909090909090916,
      "voice": "kick"
    },
    {
      "curvature": -2,
      "cutoff": 8847.636363636364,
      "degree": 42,
      "degreePotential": 0.39798257679963317,
      "duration": 0.09485294117647058,
      "endFrequency": 117.60040347388178,
      "frequency": 117.60040347388178,
      "midi": 46,
      "pan": 0,
      "phase": 0,
      "role": "lead",
      "source": "ETQ orbit 5, q=1",
      "stateIndex": 18,
      "time": 8.933823529411764,
      "velocity": 0.6703030303030304,
      "waveform": "saw"
    },
    {
      "curvature": -2,
      "cutoff": 5224.681818181818,
      "degree": 23,
      "degreePotential": -0.48188904172397984,
      "duration": 0.09485294117647058,
      "endFrequency": 52.385024353833984,
      "frequency": 52.385024353833984,
      "midi": 32,
      "pan": 0,
      "phase": 0,
      "role": "lead",
      "source": "ETQ orbit 28, q=1",
      "stateIndex": 87,
      "time": 9.044117647058822,
      "velocity": 0.45151515151515154,
      "waveform": "saw"
    },
    {
      "pan": 0,
      "source": "ETQ orbit 28, q=1",
      "time": 9.044117647058822,
      "velocity": 0.3386363636363636,
      "voice": "snare"
    },
    {
      "curvature": -2,
      "cutoff": 7131.5,
      "degree": 33,
      "degreePotential": -0.01879871618523613,
      "duration": 0.09485294117647058,
      "endFrequency": 78.48885271170678,
      "frequency": 78.48885271170678,
      "midi": 39,
      "pan": 0,
      "phase": 0,
      "role": "lead",
      "source": "ETQ orbit 19, q=1",
      "stateIndex": 60,
      "time": 9.154411764705882,
      "velocity": 0.5666666666666667,
      "waveform": "saw"
    },
    {
      "curvature": 1,
      "cutoff": 8328.981818181817,
      "degree": 34,
      "degreePotential": 0.027510316368638238,
      "duration": 0.09485294117647058,
      "endFrequency": 83.15604276665583,
      "frequency": 83.15604276665583,
      "midi": 40,
      "pan": -0.6192,
      "phase": 0,
      "role": "stab",
      "source": "ETQ orbit 10, q=0",
      "stateIndex": 32,
      "time": 9.26470588235294,
      "velocity": 0.4981818181818182,
      "waveform": "saw"
    },
    {
      "pan": -0.21671999999999997,
      "source": "ETQ orbit 10, q=0",
      "time": 9.26470588235294,
      "velocity": 0.37363636363636366,
      "voice": "kick"
    },
    {
      "curvature": 1,
      "cutoff": 6231.481818181818,
      "degree": 23,
      "degreePotential": -0.48188904172397984,
      "duration": 0.09485294117647058,
      "endFrequency": 52.385024353833984,
      "frequency": 52.385024353833984,
      "midi": 32,
      "pan": -0.6192,
      "phase": 0,
      "role": "lead",
      "source": "ETQ orbit 28, q=0",
      "stateIndex": 86,
      "time": 9.375,
      "velocity": 0.3715151515151516,
      "waveform": "saw"
    },
    {
      "curvature": 1,
      "cutoff": 8328.981818181817,
      "degree": 34,
      "degreePotential": 0.027510316368638238,
      "duration": 0.09485294117647058,
      "endFrequency": 83.15604276665583,
      "frequency": 83.15604276665583,
      "midi": 40,
      "pan": -0.6192,
      "phase": 0,
      "role": "lead",
      "source": "ETQ orbit 10, q=0",
      "stateIndex": 32,
      "time": 9.485294117647058,
      "velocity": 0.4981818181818182,
      "waveform": "saw"
    },
    {
      "curvature": 1,
      "cutoff": 8328.981818181817,
      "degree": 34,
      "degreePotential": 0.027510316368638238,
      "duration": 0.09485294117647058,
      "endFrequency": 83.15604276665583,
      "frequency": 83.15604276665583,
      "midi": 40,
      "pan": -0.6192,
      "phase": 0,
      "role": "lead",
      "source": "ETQ orbit 9, q=0",
      "stateIndex": 29,
      "time": 9.595588235294118,
      "velocity": 0.4981818181818182,
      "waveform": "saw"
    },
    {
      "curvature": 1,
      "cutoff": 10045.118181818181,
      "degree": 43,
      "degreePotential": 0.4442916093535076,
      "duration": 0.09485294117647058,
      "endFrequency": 124.5932873623404,
      "frequency": 124.5932873623404,
      "midi": 47,
      "pan": -0.6192,
      "phase": 0,
      "role": "stab",
      "source": "ETQ orbit 2, q=0",
      "stateIndex": 8,
      "time": 9.705882352941176,
      "velocity": 0.6018181818181818,
      "waveform": "saw"
    },
    {
      "pan": -0.21671999999999997,
      "source": "ETQ orbit 2, q=0",
      "time": 9.705882352941176,
      "velocity": 0.45136363636363636,
      "voice": "kick"
    },
    {
      "curvature": 1,
      "cutoff": 6040.8,
      "degree": 22,
      "degreePotential": -0.5281980742778541,
      "duration": 0.09485294117647058,
      "endFrequency": 49.44487885678883,
      "frequency": 49.44487885678883,
      "midi": 31,
      "pan": -0.6192,
      "phase": 0,
      "role": "lead",
      "source": "ETQ orbit 31, q=0",
      "stateIndex": 95,
      "time": 9.816176470588236,
      "velocity": 0.36000000000000004,
      "waveform": "saw"
    },
    {
      "curvature": 1,
      "cutoff": 7566.254545454546,
      "degree": 30,
      "degreePotential": -0.15772581384685924,
      "duration": 0.09485294117647058,
      "endFrequency": 69.92561826916547,
      "frequency": 69.92561826916547,
      "midi": 37,
      "pan": -0.6192,
      "phase": 0,
      "role": "lead",
      "source": "ETQ orbit 17, q=0",
      "stateIndex": 53,
      "time": 9.926470588235293,
      "velocity": 0.4521212121212122,
      "waveform": "saw"
    },
    {
      "curvature": 1,
      "cutoff": 10235.8,
      "degree": 44,
      "degreePotential": 0.49060064190738195,
      "duration": 0.09485294117647058,
      "endFrequency": 132.00198976530203,
      "frequency": 132.00198976530203,
      "midi": 48,
      "pan": -0.6192,
      "phase": 0,
      "role": "lead",
      "source": "ETQ orbit 0, q=0",
      "stateIndex": 2,
      "time": 10.036764705882353,
      "velocity": 0.6133333333333333,
      "waveform": "saw"
    },
    {
      "curvature": 1,
      "cutoff": 9473.072727272725,
      "degree": 40,
      "degreePotential": 0.30536451169188444,
      "duration": 0.09485294117647058,
      "endFrequency": 111,
      "frequency": 111,
      "midi": 45,
      "pan": -0.6192,
      "phase": 0,
      "role": "stab",
      "source": "ETQ orbit 8, q=0",
      "stateIndex": 26,
      "time": 10.147058823529411,
      "velocity": 0.5672727272727273,
      "waveform": "saw"
    },
    {
      "pan": -0.21671999999999997,
      "source": "ETQ orbit 8, q=0",
      "time": 10.147058823529411,
      "velocity": 0.4254545454545454,
      "voice": "kick"
    },
    {
      "curvature": -2,
      "cutoff": 6559.454545454546,
      "degree": 30,
      "degreePotential": -0.15772581384685924,
      "duration": 0.09485294117647058,
      "endFrequency": 69.92561826916547,
      "frequency": 69.92561826916547,
      "midi": 37,
      "pan": 0,
      "phase": 0,
      "role": "lead",
      "source": "ETQ orbit 26, q=1",
      "stateIndex": 81,
      "time": 10.257352941176471,
      "velocity": 0.5321212121212122,
      "waveform": "saw"
    },
    {
      "curvature": 1,
      "cutoff": 7566.254545454546,
      "degree": 30,
      "degreePotential": -0.15772581384685924,
      "duration": 0.09485294117647058,
      "endFrequency": 69.92561826916547,
      "frequency": 69.92561826916547,
      "midi": 37,
      "pan": -0.6192,
      "phase": 0,
      "role": "lead",
      "source": "ETQ orbit 25, q=0",
      "stateIndex": 77,
      "time": 10.367647058823529,
      "velocity": 0.4521212121212122,
      "waveform": "saw"
    },
    {
      "curvature": 1,
      "cutoff": 9473.072727272725,
      "degree": 40,
      "degreePotential": 0.30536451169188444,
      "duration": 0.09485294117647058,
      "endFrequency": 111,
      "frequency": 111,
      "midi": 45,
      "pan": -0.6192,
      "phase": 0,
      "role": "lead",
      "source": "ETQ orbit 8, q=0",
      "stateIndex": 26,
      "time": 10.477941176470589,
      "velocity": 0.5672727272727273,
      "waveform": "saw"
    },
    {
      "curvature": -2,
      "cutoff": 6940.818181818182,
      "degree": 32,
      "degreePotential": -0.0651077487391105,
      "duration": 0.09485294117647058,
      "endFrequency": 78.48885271170678,
      "frequency": 78.48885271170678,
      "midi": 39,
      "pan": 0,
      "phase": 0,
      "role": "stab",
      "source": "ETQ orbit 24, q=1",
      "stateIndex": 75,
      "time": 10.588235294117647,
      "velocity": 0.5551515151515152,
      "waveform": "saw"
    },
    {
      "pan": 0,
      "source": "ETQ orbit 24, q=1",
      "time": 10.588235294117647,
      "velocity": 0.4163636363636364,
      "voice": "snare"
    },
    {
      "curvature": -2,
      "cutoff": 7131.5,
      "degree": 33,
      "degreePotential": -0.01879871618523613,
      "duration": 0.09485294117647058,
      "endFrequency": 78.48885271170678,
      "frequency": 78.48885271170678,
      "midi": 39,
      "pan": 0,
      "phase": 0,
      "role": "lead",
      "source": "ETQ orbit 20, q=1",
      "stateIndex": 63,
      "time": 10.698529411764705,
      "velocity": 0.5666666666666667,
      "waveform": "saw"
    },
    {
      "curvature": 1,
      "cutoff": 8138.3,
      "degree": 33,
      "degreePotential": -0.01879871618523613,
      "duration": 0.09485294117647058,
      "endFrequency": 78.48885271170678,
      "frequency": 78.48885271170678,
      "midi": 39,
      "pan": 0.6192,
      "phase": 0,
      "role": "lead",
      "source": "ETQ orbit 20, q=2",
      "stateIndex": 64,
      "time": 10.808823529411764,
      "velocity": 0.4866666666666667,
      "waveform": "saw"
    },
    {
      "curvature": 1,
      "cutoff": 6040.8,
      "degree": 22,
      "degreePotential": -0.5281980742778541,
      "duration": 0.09485294117647058,
      "endFrequency": 49.44487885678883,
      "frequency": 49.44487885678883,
      "midi": 31,
      "pan": 0.6192,
      "phase": 0,
      "role": "lead",
      "source": "ETQ orbit 30, q=2",
      "stateIndex": 94,
      "time": 10.919117647058822,
      "velocity": 0.36000000000000004,
      "waveform": "saw"
    },
    {
      "curvature": -2,
      "cutoff": 8847.636363636364,
      "degree": 42,
      "degreePotential": 0.39798257679963317,
      "duration": 0.09485294117647058,
      "endFrequency": 117.60040347388178,
      "frequency": 117.60040347388178,
      "midi": 46,
      "pan": 0,
      "phase": 0,
      "role": "stab",
      "source": "ETQ orbit 5, q=1",
      "stateIndex": 18,
      "time": 11.029411764705882,
      "velocity": 0.6703030303030304,
      "waveform": "saw"
    },
    {
      "pan": 0,
      "source": "ETQ orbit 5, q=1",
      "time": 11.029411764705882,
      "velocity": 0.5027272727272728,
      "voice": "snare"
    },
    {
      "curvature": -2,
      "cutoff": 6940.818181818182,
      "degree": 32,
      "degreePotential": -0.0651077487391105,
      "duration": 0.09485294117647058,
      "endFrequency": 78.48885271170678,
      "frequency": 78.48885271170678,
      "midi": 39,
      "pan": 0,
      "phase": 0,
      "role": "lead",
      "source": "ETQ orbit 14, q=1",
      "stateIndex": 45,
      "time": 11.13970588235294,
      "velocity": 0.5551515151515152,
      "waveform": "saw"
    },
    {
      "curvature": 1,
      "cutoff": 7566.254545454546,
      "degree": 30,
      "degreePotential": -0.15772581384685924,
      "duration": 0.09485294117647058,
      "endFrequency": 69.92561826916547,
      "frequency": 69.92561826916547,
      "midi": 37,
      "pan": -0.6192,
      "phase": 0,
      "role": "lead",
      "source": "ETQ orbit 17, q=0",
      "stateIndex": 53,
      "time": 11.25,
      "velocity": 0.4521212121212122,
      "waveform": "saw"
    },
    {
      "curvature": 1,
      "cutoff": 7947.618181818182,
      "degree": 32,
      "degreePotential": -0.0651077487391105,
      "duration": 0.09485294117647058,
      "endFrequency": 78.48885271170678,
      "frequency": 78.48885271170678,
      "midi": 39,
      "pan": -0.6192,
      "phase": 0,
      "role": "lead",
      "source": "ETQ orbit 15, q=0",
      "stateIndex": 47,
      "time": 11.360294117647058,
      "velocity": 0.4751515151515152,
      "waveform": "saw"
    },
    {
      "curvature": 1,
      "cutoff": 6040.8,
      "degree": 22,
      "degreePotential": -0.5281980742778541,
      "duration": 0.09485294117647058,
      "endFrequency": 49.44487885678883,
      "frequency": 49.44487885678883,
      "midi": 31,
      "pan": -0.6192,
      "phase": 0,
      "role": "stab",
      "source": "ETQ orbit 31, q=0",
      "stateIndex": 95,
      "time": 11.470588235294118,
      "velocity": 0.36000000000000004,
      "waveform": "saw"
    },
    {
      "pan": -0.21671999999999997,
      "source": "ETQ orbit 31, q=0",
      "time": 11.470588235294118,
      "velocity": 0.27,
      "voice": "kick"
    },
    {
      "curvature": 1,
      "cutoff": 7947.618181818182,
      "degree": 32,
      "degreePotential": -0.0651077487391105,
      "duration": 0.09485294117647058,
      "endFrequency": 78.48885271170678,
      "frequency": 78.48885271170678,
      "midi": 39,
      "pan": -0.6192,
      "phase": 0,
      "role": "lead",
      "source": "ETQ orbit 16, q=0",
      "stateIndex": 50,
      "time": 11.580882352941176,
      "velocity": 0.4751515151515152,
      "waveform": "saw"
    },
    {
      "curvature": 1,
      "cutoff": 7947.618181818182,
      "degree": 32,
      "degreePotential": -0.0651077487391105,
      "duration": 0.09485294117647058,
      "endFrequency": 78.48885271170678,
      "frequency": 78.48885271170678,
      "midi": 39,
      "pan": 0.6192,
      "phase": 0,
      "role": "lead",
      "source": "ETQ orbit 15, q=2",
      "stateIndex": 49,
      "time": 11.691176470588236,
      "velocity": 0.4751515151515152,
      "waveform": "saw"
    },
    {
      "curvature": 1,
      "cutoff": 7566.254545454546,
      "degree": 30,
      "degreePotential": -0.15772581384685924,
      "duration": 0.09485294117647058,
      "endFrequency": 69.92561826916547,
      "frequency": 69.92561826916547,
      "midi": 37,
      "pan": -0.6192,
      "phase": 0,
      "role": "lead",
      "source": "ETQ orbit 17, q=0",
      "stateIndex": 53,
      "time": 11.801470588235293,
      "velocity": 0.4521212121212122,
      "waveform": "saw"
    },
    {
      "curvature": 1,
      "cutoff": 7947.618181818182,
      "degree": 32,
      "degreePotential": -0.0651077487391105,
      "duration": 0.09485294117647058,
      "endFrequency": 78.48885271170678,
      "frequency": 78.48885271170678,
      "midi": 39,
      "pan": -0.6192,
      "phase": 0,
      "role": "stab",
      "source": "ETQ orbit 13, q=0",
      "stateIndex": 41,
      "time": 11.911764705882353,
      "velocity": 0.4751515151515152,
      "waveform": "saw"
    },
    {
      "pan": -0.21671999999999997,
      "source": "ETQ orbit 13, q=0",
      "time": 11.911764705882353,
      "velocity": 0.35636363636363644,
      "voice": "kick"
    },
    {
      "curvature": 1,
      "cutoff": 7947.618181818182,
      "degree": 32,
      "degreePotential": -0.0651077487391105,
      "duration": 0.09485294117647058,
      "endFrequency": 78.48885271170678,
      "frequency": 78.48885271170678,
      "midi": 39,
      "pan": 0.6192,
      "phase": 0,
      "role": "lead",
      "source": "ETQ orbit 14, q=2",
      "stateIndex": 46,
      "time": 12.022058823529411,
      "velocity": 0.4751515151515152,
      "waveform": "saw"
    },
    {
      "curvature": 1,
      "cutoff": 9854.436363636363,
      "degree": 42,
      "degreePotential": 0.39798257679963317,
      "duration": 0.09485294117647058,
      "endFrequency": 117.60040347388178,
      "frequency": 117.60040347388178,
      "midi": 46,
      "pan": 0.6192,
      "phase": 0,
      "role": "lead",
      "source": "ETQ orbit 6, q=2",
      "stateIndex": 22,
      "time": 12.132352941176471,
      "velocity": 0.5903030303030303,
      "waveform": "saw"
    },
    {
      "curvature": 1,
      "cutoff": 7947.618181818182,
      "degree": 32,
      "degreePotential": -0.0651077487391105,
      "duration": 0.09485294117647058,
      "endFrequency": 78.48885271170678,
      "frequency": 78.48885271170678,
      "midi": 39,
      "pan": -0.6192,
      "phase": 0,
      "role": "lead",
      "source": "ETQ orbit 23, q=0",
      "stateIndex": 71,
      "time": 12.242647058823529,
      "velocity": 0.4751515151515152,
      "waveform": "saw"
    },
    {
      "curvature": 1,
      "cutoff": 7947.618181818182,
      "degree": 32,
      "degreePotential": -0.0651077487391105,
      "duration": 0.09485294117647058,
      "endFrequency": 78.48885271170678,
      "frequency": 78.48885271170678,
      "midi": 39,
      "pan": 0.6192,
      "phase": 0,
      "role": "stab",
      "source": "ETQ orbit 21, q=2",
      "stateIndex": 67,
      "time": 12.352941176470587,
      "velocity": 0.4751515151515152,
      "waveform": "saw"
    },
    {
      "pan": 0.21671999999999997,
      "source": "ETQ orbit 21, q=2",
      "time": 12.352941176470587,
      "velocity": 0.35636363636363644,
      "voice": "kick"
    },
    {
      "curvature": -2,
      "cutoff": 8847.636363636364,
      "degree": 42,
      "degreePotential": 0.39798257679963317,
      "duration": 0.09485294117647058,
      "endFrequency": 117.60040347388178,
      "frequency": 117.60040347388178,
      "midi": 46,
      "pan": 0,
      "phase": 0,
      "role": "lead",
      "source": "ETQ orbit 3, q=1",
      "stateIndex": 12,
      "time": 12.463235294117647,
      "velocity": 0.6703030303030304,
      "waveform": "saw"
    },
    {
      "curvature": -2,
      "cutoff": 6940.818181818182,
      "degree": 32,
      "degreePotential": -0.0651077487391105,
      "duration": 0.09485294117647058,
      "endFrequency": 78.48885271170678,
      "frequency": 78.48885271170678,
      "midi": 39,
      "pan": 0,
      "phase": 0,
      "role": "lead",
      "source": "ETQ orbit 21, q=1",
      "stateIndex": 66,
      "time": 12.573529411764705,
      "velocity": 0.5551515151515152,
      "waveform": "saw"
    },
    {
      "pan": 0,
      "source": "ETQ orbit 21, q=1",
      "time": 12.573529411764705,
      "velocity": 0.4163636363636364,
      "voice": "snare"
    },
    {
      "curvature": -2,
      "cutoff": 7131.5,
      "degree": 33,
      "degreePotential": -0.01879871618523613,
      "duration": 0.09485294117647058,
      "endFrequency": 78.48885271170678,
      "frequency": 78.48885271170678,
      "midi": 39,
      "pan": 0,
      "phase": 0,
      "role": "lead",
      "source": "ETQ orbit 19, q=1",
      "stateIndex": 60,
      "time": 12.683823529411764,
      "velocity": 0.5666666666666667,
      "waveform": "saw"
    },
    {
      "curvature": 1,
      "cutoff": 7947.618181818182,
      "degree": 32,
      "degreePotential": -0.0651077487391105,
      "duration": 0.09485294117647058,
      "endFrequency": 78.48885271170678,
      "frequency": 78.48885271170678,
      "midi": 39,
      "pan": 0.6192,
      "phase": 0,
      "role": "stab",
      "source": "ETQ orbit 22, q=2",
      "stateIndex": 70,
      "time": 12.794117647058822,
      "velocity": 0.4751515151515152,
      "waveform": "saw"
    },
    {
      "pan": 0.21671999999999997,
      "source": "ETQ orbit 22, q=2",
      "time": 12.794117647058822,
      "velocity": 0.35636363636363644,
      "voice": "kick"
    },
    {
      "curvature": 0,
      "cutoff": 12333.3,
      "degree": 55,
      "degreePotential": 1,
      "duration": 0.09485294117647058,
      "endFrequency": 197.77951542715533,
      "frequency": 197.77951542715533,
      "midi": 55,
      "pan": 0,
      "phase": 0,
      "role": "lead",
      "source": "ETQ singlet 1",
      "stateIndex": 1,
      "time": 12.904411764705882,
      "velocity": 0.66,
      "waveform": "saw"
    },
    {
      "curvature": 1,
      "cutoff": 9854.436363636363,
      "degree": 42,
      "degreePotential": 0.39798257679963317,
      "duration": 0.09485294117647058,
      "endFrequency": 117.60040347388178,
      "frequency": 117.60040347388178,
      "midi": 46,
      "pan": -0.6192,
      "phase": 0,
      "role": "lead",
      "source": "ETQ orbit 4, q=0",
      "stateIndex": 14,
      "time": 13.01470588235294,
      "velocity": 0.5903030303030303,
      "waveform": "saw"
    },
    {
      "curvature": 1,
      "cutoff": 9854.436363636363,
      "degree": 42,
      "degreePotential": 0.39798257679963317,
      "duration": 0.09485294117647058,
      "endFrequency": 117.60040347388178,
      "frequency": 117.60040347388178,
      "midi": 46,
      "pan": 0.6192,
      "phase": 0,
      "role": "lead",
      "source": "ETQ orbit 6, q=2",
      "stateIndex": 22,
      "time": 13.125,
      "velocity": 0.5903030303030303,
      "waveform": "saw"
    },
    {
      "curvature": 1,
      "cutoff": 9854.436363636363,
      "degree": 42,
      "degreePotential": 0.39798257679963317,
      "duration": 0.09485294117647058,
      "endFrequency": 117.60040347388178,
      "frequency": 117.60040347388178,
      "midi": 46,
      "pan": -0.6192,
      "phase": 0,
      "role": "stab",
      "source": "ETQ orbit 4, q=0",
      "stateIndex": 14,
      "time": 13.235294117647058,
      "velocity": 0.5903030303030303,
      "waveform": "saw"
    },
    {
      "pan": -0.21671999999999997,
      "source": "ETQ orbit 4, q=0",
      "time": 13.235294117647058,
      "velocity": 0.44272727272727275,
      "voice": "kick"
    },
    {
      "curvature": -2,
      "cutoff": 5034,
      "degree": 22,
      "degreePotential": -0.5281980742778541,
      "duration": 0.09485294117647058,
      "endFrequency": 49.44487885678883,
      "frequency": 49.44487885678883,
      "midi": 31,
      "pan": 0,
      "phase": 0,
      "role": "lead",
      "source": "ETQ orbit 31, q=1",
      "stateIndex": 96,
      "time": 13.345588235294118,
      "velocity": 0.44000000000000006,
      "waveform": "saw"
    },
    {
      "curvature": -2,
      "cutoff": 8847.636363636364,
      "degree": 42,
      "degreePotential": 0.39798257679963317,
      "duration": 0.09485294117647058,
      "endFrequency": 117.60040347388178,
      "frequency": 117.60040347388178,
      "midi": 46,
      "pan": 0,
      "phase": 0,
      "role": "lead",
      "source": "ETQ orbit 5, q=1",
      "stateIndex": 18,
      "time": 13.455882352941176,
      "velocity": 0.6703030303030304,
      "waveform": "saw"
    },
    {
      "pan": 0,
      "source": "ETQ orbit 5, q=1",
      "time": 13.455882352941176,
      "velocity": 0.5027272727272728,
      "voice": "snare"
    },
    {
      "curvature": 1,
      "cutoff": 9854.436363636363,
      "degree": 42,
      "degreePotential": 0.39798257679963317,
      "duration": 0.09485294117647058,
      "endFrequency": 117.60040347388178,
      "frequency": 117.60040347388178,
      "midi": 46,
      "pan": -0.6192,
      "phase": 0,
      "role": "lead",
      "source": "ETQ orbit 4, q=0",
      "stateIndex": 14,
      "time": 13.566176470588236,
      "velocity": 0.5903030303030303,
      "waveform": "saw"
    },
    {
      "curvature": -2,
      "cutoff": 6940.818181818182,
      "degree": 32,
      "degreePotential": -0.0651077487391105,
      "duration": 0.09485294117647058,
      "endFrequency": 78.48885271170678,
      "frequency": 78.48885271170678,
      "midi": 39,
      "pan": 0,
      "phase": 0,
      "role": "stab",
      "source": "ETQ orbit 23, q=1",
      "stateIndex": 72,
      "time": 13.676470588235293,
      "velocity": 0.5551515151515152,
      "waveform": "saw"
    },
    {
      "pan": 0,
      "source": "ETQ orbit 23, q=1",
      "time": 13.676470588235293,
      "velocity": 0.4163636363636364,
      "voice": "snare"
    },
    {
      "curvature": -2,
      "cutoff": 6940.818181818182,
      "degree": 32,
      "degreePotential": -0.0651077487391105,
      "duration": 0.09485294117647058,
      "endFrequency": 78.48885271170678,
      "frequency": 78.48885271170678,
      "midi": 39,
      "pan": 0,
      "phase": 0,
      "role": "lead",
      "source": "ETQ orbit 21, q=1",
      "stateIndex": 66,
      "time": 13.786764705882353,
      "velocity": 0.5551515151515152,
      "waveform": "saw"
    },
    {
      "curvature": -2,
      "cutoff": 8466.272727272724,
      "degree": 40,
      "degreePotential": 0.30536451169188444,
      "duration": 0.09485294117647058,
      "endFrequency": 111,
      "frequency": 111,
      "midi": 45,
      "pan": 0,
      "phase": 0,
      "role": "lead",
      "source": "ETQ orbit 7, q=1",
      "stateIndex": 24,
      "time": 13.897058823529411,
      "velocity": 0.6472727272727273,
      "waveform": "saw"
    },
    {
      "pan": 0,
      "source": "ETQ orbit 7, q=1",
      "time": 13.897058823529411,
      "velocity": 0.48545454545454547,
      "voice": "snare"
    },
    {
      "curvature": -2,
      "cutoff": 7322.181818181818,
      "degree": 34,
      "degreePotential": 0.027510316368638238,
      "duration": 0.09485294117647058,
      "endFrequency": 83.15604276665583,
      "frequency": 83.15604276665583,
      "midi": 40,
      "pan": 0,
      "phase": 0,
      "role": "lead",
      "source": "ETQ orbit 9, q=1",
      "stateIndex": 30,
      "time": 14.007352941176471,
      "velocity": 0.5781818181818182,
      "waveform": "saw"
    },
    {
      "curvature": -2,
      "cutoff": 8466.272727272724,
      "degree": 40,
      "degreePotential": 0.30536451169188444,
      "duration": 0.09485294117647058,
      "endFrequency": 111,
      "frequency": 111,
      "midi": 45,
      "pan": 0,
      "phase": 0,
      "role": "stab",
      "source": "ETQ orbit 8, q=1",
      "stateIndex": 27,
      "time": 14.117647058823529,
      "velocity": 0.6472727272727273,
      "waveform": "saw"
    },
    {
      "pan": 0,
      "source": "ETQ orbit 8, q=1",
      "time": 14.117647058823529,
      "velocity": 0.48545454545454547,
      "voice": "snare"
    },
    {
      "curvature": 1,
      "cutoff": 7566.254545454546,
      "degree": 30,
      "degreePotential": -0.15772581384685924,
      "duration": 0.09485294117647058,
      "endFrequency": 69.92561826916547,
      "frequency": 69.92561826916547,
      "midi": 37,
      "pan": -0.6192,
      "phase": 0,
      "role": "lead",
      "source": "ETQ orbit 26, q=0",
      "stateIndex": 80,
      "time": 14.227941176470587,
      "velocity": 0.4521212121212122,
      "waveform": "saw"
    },
    {
      "curvature": 1,
      "cutoff": 7566.254545454546,
      "degree": 30,
      "degreePotential": -0.15772581384685924,
      "duration": 0.09485294117647058,
      "endFrequency": 69.92561826916547,
      "frequency": 69.92561826916547,
      "midi": 37,
      "pan": 0.6192,
      "phase": 0,
      "role": "lead",
      "source": "ETQ orbit 25, q=2",
      "stateIndex": 79,
      "time": 14.338235294117647,
      "velocity": 0.4521212121212122,
      "waveform": "saw"
    },
    {
      "curvature": 0,
      "cutoff": 12333.3,
      "degree": 55,
      "degreePotential": 1,
      "duration": 0.09485294117647058,
      "endFrequency": 197.77951542715533,
      "frequency": 197.77951542715533,
      "midi": 55,
      "pan": 0,
      "phase": 0,
      "role": "lead",
      "source": "ETQ singlet 1",
      "stateIndex": 1,
      "time": 14.448529411764705,
      "velocity": 0.66,
      "waveform": "saw"
    },
    {
      "curvature": 1,
      "cutoff": 9854.436363636363,
      "degree": 42,
      "degreePotential": 0.39798257679963317,
      "duration": 0.09485294117647058,
      "endFrequency": 117.60040347388178,
      "frequency": 117.60040347388178,
      "midi": 46,
      "pan": -0.6192,
      "phase": 0,
      "role": "stab",
      "source": "ETQ orbit 4, q=0",
      "stateIndex": 14,
      "time": 14.558823529411764,
      "velocity": 0.5903030303030303,
      "waveform": "saw"
    },
    {
      "pan": -0.21671999999999997,
      "source": "ETQ orbit 4, q=0",
      "time": 14.558823529411764,
      "velocity": 0.44272727272727275,
      "voice": "kick"
    },
    {
      "curvature": 1,
      "cutoff": 10045.118181818181,
      "degree": 43,
      "degreePotential": 0.4442916093535076,
      "duration": 0.09485294117647058,
      "endFrequency": 124.5932873623404,
      "frequency": 124.5932873623404,
      "midi": 47,
      "pan": 0.6192,
      "phase": 0,
      "role": "lead",
      "source": "ETQ orbit 1, q=2",
      "stateIndex": 7,
      "time": 14.669117647058822,
      "velocity": 0.6018181818181818,
      "waveform": "saw"
    },
    {
      "curvature": -2,
      "cutoff": 8847.636363636364,
      "degree": 42,
      "degreePotential": 0.39798257679963317,
      "duration": 0.09485294117647058,
      "endFrequency": 117.60040347388178,
      "frequency": 117.60040347388178,
      "midi": 46,
      "pan": 0,
      "phase": 0,
      "role": "lead",
      "source": "ETQ orbit 5, q=1",
      "stateIndex": 18,
      "time": 14.779411764705882,
      "velocity": 0.6703030303030304,
      "waveform": "saw"
    },
    {
      "pan": 0,
      "source": "ETQ orbit 5, q=1",
      "time": 14.779411764705882,
      "velocity": 0.5027272727272728,
      "voice": "snare"
    },
    {
      "curvature": 1,
      "cutoff": 7947.618181818182,
      "degree": 32,
      "degreePotential": -0.0651077487391105,
      "duration": 0.09485294117647058,
      "endFrequency": 78.48885271170678,
      "frequency": 78.48885271170678,
      "midi": 39,
      "pan": 0.6192,
      "phase": 0,
      "role": "lead",
      "source": "ETQ orbit 22, q=2",
      "stateIndex": 70,
      "time": 14.88970588235294,
      "velocity": 0.4751515151515152,
      "waveform": "saw"
    },
    {
      "curvature": 1,
      "cutoff": 9854.436363636363,
      "degree": 42,
      "degreePotential": 0.39798257679963317,
      "duration": 0.09485294117647058,
      "endFrequency": 117.60040347388178,
      "frequency": 117.60040347388178,
      "midi": 46,
      "pan": 0.6192,
      "phase": 0,
      "role": "stab",
      "source": "ETQ orbit 5, q=2",
      "stateIndex": 19,
      "time": 15,
      "velocity": 0.5903030303030303,
      "waveform": "saw"
    },
    {
      "pan": 0.21671999999999997,
      "source": "ETQ orbit 5, q=2",
      "time": 15,
      "velocity": 0.44272727272727275,
      "voice": "kick"
    },
    {
      "curvature": 1,
      "cutoff": 7947.618181818182,
      "degree": 32,
      "degreePotential": -0.0651077487391105,
      "duration": 0.09485294117647058,
      "endFrequency": 78.48885271170678,
      "frequency": 78.48885271170678,
      "midi": 39,
      "pan": -0.6192,
      "phase": 0,
      "role": "lead",
      "source": "ETQ orbit 14, q=0",
      "stateIndex": 44,
      "time": 15.110294117647058,
      "velocity": 0.4751515151515152,
      "waveform": "saw"
    },
    {
      "curvature": 1,
      "cutoff": 7947.618181818182,
      "degree": 32,
      "degreePotential": -0.0651077487391105,
      "duration": 0.09485294117647058,
      "endFrequency": 78.48885271170678,
      "frequency": 78.48885271170678,
      "midi": 39,
      "pan": -0.6192,
      "phase": 0,
      "role": "lead",
      "source": "ETQ orbit 16, q=0",
      "stateIndex": 50,
      "time": 15.220588235294118,
      "velocity": 0.4751515151515152,
      "waveform": "saw"
    },
    {
      "curvature": 1,
      "cutoff": 7947.618181818182,
      "degree": 32,
      "degreePotential": -0.0651077487391105,
      "duration": 0.09485294117647058,
      "endFrequency": 78.48885271170678,
      "frequency": 78.48885271170678,
      "midi": 39,
      "pan": -0.6192,
      "phase": 0,
      "role": "lead",
      "source": "ETQ orbit 24, q=0",
      "stateIndex": 74,
      "time": 15.330882352941176,
      "velocity": 0.4751515151515152,
      "waveform": "saw"
    },
    {
      "curvature": 1,
      "cutoff": 7566.254545454546,
      "degree": 30,
      "degreePotential": -0.15772581384685924,
      "duration": 0.09485294117647058,
      "endFrequency": 69.92561826916547,
      "frequency": 69.92561826916547,
      "midi": 37,
      "pan": -0.6192,
      "phase": 0,
      "role": "stab",
      "source": "ETQ orbit 25, q=0",
      "stateIndex": 77,
      "time": 15.441176470588236,
      "velocity": 0.4521212121212122,
      "waveform": "saw"
    },
    {
      "pan": -0.21671999999999997,
      "source": "ETQ orbit 25, q=0",
      "time": 15.441176470588236,
      "velocity": 0.33909090909090916,
      "voice": "kick"
    },
    {
      "curvature": 1,
      "cutoff": 9854.436363636363,
      "degree": 42,
      "degreePotential": 0.39798257679963317,
      "duration": 0.09485294117647058,
      "endFrequency": 117.60040347388178,
      "frequency": 117.60040347388178,
      "midi": 46,
      "pan": -0.6192,
      "phase": 0,
      "role": "lead",
      "source": "ETQ orbit 5, q=0",
      "stateIndex": 17,
      "time": 15.551470588235293,
      "velocity": 0.5903030303030303,
      "waveform": "saw"
    },
    {
      "curvature": 1,
      "cutoff": 6040.8,
      "degree": 22,
      "degreePotential": -0.5281980742778541,
      "duration": 0.09485294117647058,
      "endFrequency": 49.44487885678883,
      "frequency": 49.44487885678883,
      "midi": 31,
      "pan": -0.6192,
      "phase": 0,
      "role": "lead",
      "source": "ETQ orbit 31, q=0",
      "stateIndex": 95,
      "time": 15.661764705882353,
      "velocity": 0.36000000000000004,
      "waveform": "saw"
    },
    {
      "curvature": 1,
      "cutoff": 8138.3,
      "degree": 33,
      "degreePotential": -0.01879871618523613,
      "duration": 0.09485294117647058,
      "endFrequency": 78.48885271170678,
      "frequency": 78.48885271170678,
      "midi": 39,
      "pan": -0.6192,
      "phase": 0,
      "role": "lead",
      "source": "ETQ orbit 11, q=0",
      "stateIndex": 35,
      "time": 15.772058823529411,
      "velocity": 0.4866666666666667,
      "waveform": "saw"
    },
    {
      "curvature": 1,
      "cutoff": 8328.981818181817,
      "degree": 34,
      "degreePotential": 0.027510316368638238,
      "duration": 0.09485294117647058,
      "endFrequency": 83.15604276665583,
      "frequency": 83.15604276665583,
      "midi": 40,
      "pan": 0.6192,
      "phase": 0,
      "role": "stab",
      "source": "ETQ orbit 9, q=2",
      "stateIndex": 31,
      "time": 15.882352941176471,
      "velocity": 0.4981818181818182,
      "waveform": "saw"
    },
    {
      "pan": 0.21671999999999997,
      "source": "ETQ orbit 9, q=2",
      "time": 15.882352941176471,
      "velocity": 0.37363636363636366,
      "voice": "kick"
    },
    {
      "curvature": 1,
      "cutoff": 6040.8,
      "degree": 22,
      "degreePotential": -0.5281980742778541,
      "duration": 0.09485294117647058,
      "endFrequency": 49.44487885678883,
      "frequency": 49.44487885678883,
      "midi": 31,
      "pan": 0.6192,
      "phase": 0,
      "role": "lead",
      "source": "ETQ orbit 30, q=2",
      "stateIndex": 94,
      "time": 15.992647058823529,
      "velocity": 0.36000000000000004,
      "waveform": "saw"
    },
    {
      "curvature": 1,
      "cutoff": 7947.618181818182,
      "degree": 32,
      "degreePotential": -0.0651077487391105,
      "duration": 0.09485294117647058,
      "endFrequency": 78.48885271170678,
      "frequency": 78.48885271170678,
      "midi": 39,
      "pan": -0.6192,
      "phase": 0,
      "role": "lead",
      "source": "ETQ orbit 15, q=0",
      "stateIndex": 47,
      "time": 16.102941176470587,
      "velocity": 0.4751515151515152,
      "waveform": "saw"
    },
    {
      "curvature": 1,
      "cutoff": 7566.254545454546,
      "degree": 30,
      "degreePotential": -0.15772581384685924,
      "duration": 0.09485294117647058,
      "endFrequency": 69.92561826916547,
      "frequency": 69.92561826916547,
      "midi": 37,
      "pan": 0.6192,
      "phase": 0,
      "role": "lead",
      "source": "ETQ orbit 18, q=2",
      "stateIndex": 58,
      "time": 16.213235294117645,
      "velocity": 0.4521212121212122,
      "waveform": "saw"
    },
    {
      "curvature": 1,
      "cutoff": 7566.254545454546,
      "degree": 30,
      "degreePotential": -0.15772581384685924,
      "duration": 0.09485294117647058,
      "endFrequency": 69.92561826916547,
      "frequency": 69.92561826916547,
      "midi": 37,
      "pan": -0.6192,
      "phase": 0,
      "role": "stab",
      "source": "ETQ orbit 17, q=0",
      "stateIndex": 53,
      "time": 16.323529411764707,
      "velocity": 0.4521212121212122,
      "waveform": "saw"
    },
    {
      "pan": -0.21671999999999997,
      "source": "ETQ orbit 17, q=0",
      "time": 16.323529411764707,
      "velocity": 0.33909090909090916,
      "voice": "kick"
    },
    {
      "curvature": 1,
      "cutoff": 7947.618181818182,
      "degree": 32,
      "degreePotential": -0.0651077487391105,
      "duration": 0.09485294117647058,
      "endFrequency": 78.48885271170678,
      "frequency": 78.48885271170678,
      "midi": 39,
      "pan": 0.6192,
      "phase": 0,
      "role": "lead",
      "source": "ETQ orbit 15, q=2",
      "stateIndex": 49,
      "time": 16.433823529411764,
      "velocity": 0.4751515151515152,
      "waveform": "saw"
    },
    {
      "curvature": -2,
      "cutoff": 6940.818181818182,
      "degree": 32,
      "degreePotential": -0.0651077487391105,
      "duration": 0.09485294117647058,
      "endFrequency": 78.48885271170678,
      "frequency": 78.48885271170678,
      "midi": 39,
      "pan": 0,
      "phase": 0,
      "role": "lead",
      "source": "ETQ orbit 13, q=1",
      "stateIndex": 42,
      "time": 16.544117647058822,
      "velocity": 0.5551515151515152,
      "waveform": "saw"
    },
    {
      "pan": 0,
      "source": "ETQ orbit 13, q=1",
      "time": 16.544117647058822,
      "velocity": 0.4163636363636364,
      "voice": "snare"
    },
    {
      "curvature": 1,
      "cutoff": 6040.8,
      "degree": 22,
      "degreePotential": -0.5281980742778541,
      "duration": 0.09485294117647058,
      "endFrequency": 49.44487885678883,
      "frequency": 49.44487885678883,
      "midi": 31,
      "pan": -0.6192,
      "phase": 0,
      "role": "lead",
      "source": "ETQ orbit 29, q=0",
      "stateIndex": 89,
      "time": 16.65441176470588,
      "velocity": 0.36000000000000004,
      "waveform": "saw"
    },
    {
      "curvature": 1,
      "cutoff": 9854.436363636363,
      "degree": 42,
      "degreePotential": 0.39798257679963317,
      "duration": 0.09485294117647058,
      "endFrequency": 117.60040347388178,
      "frequency": 117.60040347388178,
      "midi": 46,
      "pan": -0.6192,
      "phase": 0,
      "role": "stab",
      "source": "ETQ orbit 3, q=0",
      "stateIndex": 11,
      "time": 16.764705882352942,
      "velocity": 0.5903030303030303,
      "waveform": "saw"
    },
    {
      "pan": -0.21671999999999997,
      "source": "ETQ orbit 3, q=0",
      "time": 16.764705882352942,
      "velocity": 0.44272727272727275,
      "voice": "kick"
    },
    {
      "curvature": 1,
      "cutoff": 7947.618181818182,
      "degree": 32,
      "degreePotential": -0.0651077487391105,
      "duration": 0.09485294117647058,
      "endFrequency": 78.48885271170678,
      "frequency": 78.48885271170678,
      "midi": 39,
      "pan": -0.6192,
      "phase": 0,
      "role": "lead",
      "source": "ETQ orbit 23, q=0",
      "stateIndex": 71,
      "time": 16.875,
      "velocity": 0.4751515151515152,
      "waveform": "saw"
    },
    {
      "curvature": 1,
      "cutoff": 8328.981818181817,
      "degree": 34,
      "degreePotential": 0.027510316368638238,
      "duration": 0.09485294117647058,
      "endFrequency": 83.15604276665583,
      "frequency": 83.15604276665583,
      "midi": 40,
      "pan": 0.6192,
      "phase": 0,
      "role": "lead",
      "source": "ETQ orbit 10, q=2",
      "stateIndex": 34,
      "time": 16.985294117647058,
      "velocity": 0.4981818181818182,
      "waveform": "saw"
    },
    {
      "curvature": 1,
      "cutoff": 7947.618181818182,
      "degree": 32,
      "degreePotential": -0.0651077487391105,
      "duration": 0.09485294117647058,
      "endFrequency": 78.48885271170678,
      "frequency": 78.48885271170678,
      "midi": 39,
      "pan": -0.6192,
      "phase": 0,
      "role": "lead",
      "source": "ETQ orbit 22, q=0",
      "stateIndex": 68,
      "time": 17.095588235294116,
      "velocity": 0.4751515151515152,
      "waveform": "saw"
    },
    {
      "curvature": 1,
      "cutoff": 9473.072727272725,
      "degree": 40,
      "degreePotential": 0.30536451169188444,
      "duration": 0.09485294117647058,
      "endFrequency": 111,
      "frequency": 111,
      "midi": 45,
      "pan": 0.6192,
      "phase": 0,
      "role": "stab",
      "source": "ETQ orbit 8, q=2",
      "stateIndex": 28,
      "time": 17.205882352941178,
      "velocity": 0.5672727272727273,
      "waveform": "saw"
    },
    {
      "pan": 0.21671999999999997,
      "source": "ETQ orbit 8, q=2",
      "time": 17.205882352941178,
      "velocity": 0.4254545454545454,
      "voice": "kick"
    },
    {
      "curvature": 1,
      "cutoff": 9473.072727272725,
      "degree": 40,
      "degreePotential": 0.30536451169188444,
      "duration": 0.09485294117647058,
      "endFrequency": 111,
      "frequency": 111,
      "midi": 45,
      "pan": 0.6192,
      "phase": 0,
      "role": "lead",
      "source": "ETQ orbit 7, q=2",
      "stateIndex": 25,
      "time": 17.316176470588236,
      "velocity": 0.5672727272727273,
      "waveform": "saw"
    },
    {
      "curvature": 1,
      "cutoff": 7947.618181818182,
      "degree": 32,
      "degreePotential": -0.0651077487391105,
      "duration": 0.09485294117647058,
      "endFrequency": 78.48885271170678,
      "frequency": 78.48885271170678,
      "midi": 39,
      "pan": 0.6192,
      "phase": 0,
      "role": "lead",
      "source": "ETQ orbit 22, q=2",
      "stateIndex": 70,
      "time": 17.426470588235293,
      "velocity": 0.4751515151515152,
      "waveform": "saw"
    },
    {
      "curvature": 1,
      "cutoff": 7947.618181818182,
      "degree": 32,
      "degreePotential": -0.0651077487391105,
      "duration": 0.09485294117647058,
      "endFrequency": 78.48885271170678,
      "frequency": 78.48885271170678,
      "midi": 39,
      "pan": 0.6192,
      "phase": 0,
      "role": "lead",
      "source": "ETQ orbit 21, q=2",
      "stateIndex": 67,
      "time": 17.53676470588235,
      "velocity": 0.4751515151515152,
      "waveform": "saw"
    },
    {
      "curvature": 1,
      "cutoff": 7566.254545454546,
      "degree": 30,
      "degreePotential": -0.15772581384685924,
      "duration": 0.09485294117647058,
      "endFrequency": 69.92561826916547,
      "frequency": 69.92561826916547,
      "midi": 37,
      "pan": 0.6192,
      "phase": 0,
      "role": "stab",
      "source": "ETQ orbit 26, q=2",
      "stateIndex": 82,
      "time": 17.647058823529413,
      "velocity": 0.4521212121212122,
      "waveform": "saw"
    },
    {
      "pan": 0.21671999999999997,
      "source": "ETQ orbit 26, q=2",
      "time": 17.647058823529413,
      "velocity": 0.33909090909090916,
      "voice": "kick"
    },
    {
      "curvature": 1,
      "cutoff": 10235.8,
      "degree": 44,
      "degreePotential": 0.49060064190738195,
      "duration": 0.09485294117647058,
      "endFrequency": 132.00198976530203,
      "frequency": 132.00198976530203,
      "midi": 48,
      "pan": 0.6192,
      "phase": 0,
      "role": "lead",
      "source": "ETQ orbit 0, q=2",
      "stateIndex": 4,
      "time": 17.75735294117647,
      "velocity": 0.6133333333333333,
      "waveform": "saw"
    },
    {
      "curvature": 1,
      "cutoff": 9854.436363636363,
      "degree": 42,
      "degreePotential": 0.39798257679963317,
      "duration": 0.09485294117647058,
      "endFrequency": 117.60040347388178,
      "frequency": 117.60040347388178,
      "midi": 46,
      "pan": 0.6192,
      "phase": 0,
      "role": "lead",
      "source": "ETQ orbit 5, q=2",
      "stateIndex": 19,
      "time": 17.86764705882353,
      "velocity": 0.5903030303030303,
      "waveform": "saw"
    },
    {
      "curvature": 1,
      "cutoff": 10045.118181818181,
      "degree": 43,
      "degreePotential": 0.4442916093535076,
      "duration": 0.09485294117647058,
      "endFrequency": 124.5932873623404,
      "frequency": 124.5932873623404,
      "midi": 47,
      "pan": 0.6192,
      "phase": 0,
      "role": "lead",
      "source": "ETQ orbit 1, q=2",
      "stateIndex": 7,
      "time": 17.977941176470587,
      "velocity": 0.6018181818181818,
      "waveform": "saw"
    },
    {
      "curvature": 1,
      "cutoff": 6040.8,
      "degree": 22,
      "degreePotential": -0.5281980742778541,
      "duration": 0.09485294117647058,
      "endFrequency": 49.44487885678883,
      "frequency": 49.44487885678883,
      "midi": 31,
      "pan": 0.6192,
      "phase": 0,
      "role": "stab",
      "source": "ETQ orbit 29, q=2",
      "stateIndex": 91,
      "time": 18.088235294117645,
      "velocity": 0.36000000000000004,
      "waveform": "saw"
    },
    {
      "pan": 0.21671999999999997,
      "source": "ETQ orbit 29, q=2",
      "time": 18.088235294117645,
      "velocity": 0.27,
      "voice": "kick"
    },
    {
      "curvature": 1,
      "cutoff": 6231.481818181818,
      "degree": 23,
      "degreePotential": -0.48188904172397984,
      "duration": 0.09485294117647058,
      "endFrequency": 52.385024353833984,
      "frequency": 52.385024353833984,
      "midi": 32,
      "pan": 0.6192,
      "phase": 0,
      "role": "lead",
      "source": "ETQ orbit 27, q=2",
      "stateIndex": 85,
      "time": 18.198529411764707,
      "velocity": 0.3715151515151516,
      "waveform": "saw"
    },
    {
      "curvature": 1,
      "cutoff": 8328.981818181817,
      "degree": 34,
      "degreePotential": 0.027510316368638238,
      "duration": 0.09485294117647058,
      "endFrequency": 83.15604276665583,
      "frequency": 83.15604276665583,
      "midi": 40,
      "pan": 0.6192,
      "phase": 0,
      "role": "lead",
      "source": "ETQ orbit 10, q=2",
      "stateIndex": 34,
      "time": 18.308823529411764,
      "velocity": 0.4981818181818182,
      "waveform": "saw"
    },
    {
      "curvature": 1,
      "cutoff": 6040.8,
      "degree": 22,
      "degreePotential": -0.5281980742778541,
      "duration": 0.09485294117647058,
      "endFrequency": 49.44487885678883,
      "frequency": 49.44487885678883,
      "midi": 31,
      "pan": 0.6192,
      "phase": 0,
      "role": "lead",
      "source": "ETQ orbit 31, q=2",
      "stateIndex": 97,
      "time": 18.419117647058822,
      "velocity": 0.36000000000000004,
      "waveform": "saw"
    },
    {
      "curvature": 1,
      "cutoff": 8328.981818181817,
      "degree": 34,
      "degreePotential": 0.027510316368638238,
      "duration": 0.09485294117647058,
      "endFrequency": 83.15604276665583,
      "frequency": 83.15604276665583,
      "midi": 40,
      "pan": 0.6192,
      "phase": 0,
      "role": "stab",
      "source": "ETQ orbit 10, q=2",
      "stateIndex": 34,
      "time": 18.52941176470588,
      "velocity": 0.4981818181818182,
      "waveform": "saw"
    },
    {
      "pan": 0.21671999999999997,
      "source": "ETQ orbit 10, q=2",
      "time": 18.52941176470588,
      "velocity": 0.37363636363636366,
      "voice": "kick"
    },
    {
      "curvature": 1,
      "cutoff": 7947.618181818182,
      "degree": 32,
      "degreePotential": -0.0651077487391105,
      "duration": 0.09485294117647058,
      "endFrequency": 78.48885271170678,
      "frequency": 78.48885271170678,
      "midi": 39,
      "pan": 0.6192,
      "phase": 0,
      "role": "lead",
      "source": "ETQ orbit 21, q=2",
      "stateIndex": 67,
      "time": 18.639705882352942,
      "velocity": 0.4751515151515152,
      "waveform": "saw"
    },
    {
      "curvature": 0,
      "cutoff": 12333.3,
      "degree": 55,
      "degreePotential": 1,
      "duration": 0.09485294117647058,
      "endFrequency": 197.77951542715533,
      "frequency": 197.77951542715533,
      "midi": 55,
      "pan": 0,
      "phase": 0,
      "role": "lead",
      "source": "ETQ singlet 1",
      "stateIndex": 1,
      "time": 18.75,
      "velocity": 0.66,
      "waveform": "saw"
    },
    {
      "curvature": 1,
      "cutoff": 7566.254545454546,
      "degree": 30,
      "degreePotential": -0.15772581384685924,
      "duration": 0.09485294117647058,
      "endFrequency": 69.92561826916547,
      "frequency": 69.92561826916547,
      "midi": 37,
      "pan": 0.6192,
      "phase": 0,
      "role": "lead",
      "source": "ETQ orbit 25, q=2",
      "stateIndex": 79,
      "time": 18.860294117647058,
      "velocity": 0.4521212121212122,
      "waveform": "saw"
    },
    {
      "curvature": -2,
      "cutoff": 6559.454545454546,
      "degree": 30,
      "degreePotential": -0.15772581384685924,
      "duration": 0.09485294117647058,
      "endFrequency": 69.92561826916547,
      "frequency": 69.92561826916547,
      "midi": 37,
      "pan": 0,
      "phase": 0,
      "role": "stab",
      "source": "ETQ orbit 26, q=1",
      "stateIndex": 81,
      "time": 18.970588235294116,
      "velocity": 0.5321212121212122,
      "waveform": "saw"
    },
    {
      "pan": 0,
      "source": "ETQ orbit 26, q=1",
      "time": 18.970588235294116,
      "velocity": 0.39909090909090916,
      "voice": "snare"
    },
    {
      "curvature": -2,
      "cutoff": 6559.454545454546,
      "degree": 30,
      "degreePotential": -0.15772581384685924,
      "duration": 0.09485294117647058,
      "endFrequency": 69.92561826916547,
      "frequency": 69.92561826916547,
      "midi": 37,
      "pan": 0,
      "phase": 0,
      "role": "lead",
      "source": "ETQ orbit 18, q=1",
      "stateIndex": 57,
      "time": 19.080882352941178,
      "velocity": 0.5321212121212122,
      "waveform": "saw"
    },
    {
      "curvature": -2,
      "cutoff": 6559.454545454546,
      "degree": 30,
      "degreePotential": -0.15772581384685924,
      "duration": 0.09485294117647058,
      "endFrequency": 69.92561826916547,
      "frequency": 69.92561826916547,
      "midi": 37,
      "pan": 0,
      "phase": 0,
      "role": "lead",
      "source": "ETQ orbit 17, q=1",
      "stateIndex": 54,
      "time": 19.191176470588236,
      "velocity": 0.5321212121212122,
      "waveform": "saw"
    },
    {
      "pan": 0,
      "source": "ETQ orbit 17, q=1",
      "time": 19.191176470588236,
      "velocity": 0.39909090909090916,
      "voice": "snare"
    },
    {
      "curvature": -2,
      "cutoff": 8847.636363636364,
      "degree": 42,
      "degreePotential": 0.39798257679963317,
      "duration": 0.09485294117647058,
      "endFrequency": 117.60040347388178,
      "frequency": 117.60040347388178,
      "midi": 46,
      "pan": 0,
      "phase": 0,
      "role": "lead",
      "source": "ETQ orbit 5, q=1",
      "stateIndex": 18,
      "time": 19.301470588235293,
      "velocity": 0.6703030303030304,
      "waveform": "saw"
    },
    {
      "curvature": -2,
      "cutoff": 9038.31818181818,
      "degree": 43,
      "degreePotential": 0.4442916093535076,
      "duration": 0.09485294117647058,
      "endFrequency": 124.5932873623404,
      "frequency": 124.5932873623404,
      "midi": 47,
      "pan": 0,
      "phase": 0,
      "role": "stab",
      "source": "ETQ orbit 1, q=1",
      "stateIndex": 6,
      "time": 19.41176470588235,
      "velocity": 0.6818181818181819,
      "waveform": "saw"
    },
    {
      "pan": 0,
      "source": "ETQ orbit 1, q=1",
      "time": 19.41176470588235,
      "velocity": 0.5113636363636365,
      "voice": "snare"
    },
    {
      "curvature": 1,
      "cutoff": 10045.118181818181,
      "degree": 43,
      "degreePotential": 0.4442916093535076,
      "duration": 0.09485294117647058,
      "endFrequency": 124.5932873623404,
      "frequency": 124.5932873623404,
      "midi": 47,
      "pan": -0.6192,
      "phase": 0,
      "role": "lead",
      "source": "ETQ orbit 2, q=0",
      "stateIndex": 8,
      "time": 19.52205882352941,
      "velocity": 0.6018181818181818,
      "waveform": "saw"
    },
    {
      "curvature": 1,
      "cutoff": 9854.436363636363,
      "degree": 42,
      "degreePotential": 0.39798257679963317,
      "duration": 0.09485294117647058,
      "endFrequency": 117.60040347388178,
      "frequency": 117.60040347388178,
      "midi": 46,
      "pan": 0.6192,
      "phase": 0,
      "role": "lead",
      "source": "ETQ orbit 6, q=2",
      "stateIndex": 22,
      "time": 19.63235294117647,
      "velocity": 0.5903030303030303,
      "waveform": "saw"
    },
    {
      "curvature": 1,
      "cutoff": 7947.618181818182,
      "degree": 32,
      "degreePotential": -0.0651077487391105,
      "duration": 0.09485294117647058,
      "endFrequency": 78.48885271170678,
      "frequency": 78.48885271170678,
      "midi": 39,
      "pan": -0.6192,
      "phase": 0,
      "role": "lead",
      "source": "ETQ orbit 24, q=0",
      "stateIndex": 74,
      "time": 19.74264705882353,
      "velocity": 0.4751515151515152,
      "waveform": "saw"
    },
    {
      "curvature": 1,
      "cutoff": 10235.8,
      "degree": 44,
      "degreePotential": 0.49060064190738195,
      "duration": 0.09485294117647058,
      "endFrequency": 132.00198976530203,
      "frequency": 132.00198976530203,
      "midi": 48,
      "pan": -0.6192,
      "phase": 0,
      "role": "stab",
      "source": "ETQ orbit 0, q=0",
      "stateIndex": 2,
      "time": 19.852941176470587,
      "velocity": 0.6133333333333333,
      "waveform": "saw"
    },
    {
      "pan": -0.21671999999999997,
      "source": "ETQ orbit 0, q=0",
      "time": 19.852941176470587,
      "velocity": 0.45999999999999996,
      "voice": "kick"
    },
    {
      "curvature": 1,
      "cutoff": 9854.436363636363,
      "degree": 42,
      "degreePotential": 0.39798257679963317,
      "duration": 0.09485294117647058,
      "endFrequency": 117.60040347388178,
      "frequency": 117.60040347388178,
      "midi": 46,
      "pan": 0.6192,
      "phase": 0,
      "role": "lead",
      "source": "ETQ orbit 6, q=2",
      "stateIndex": 22,
      "time": 19.963235294117645,
      "velocity": 0.5903030303030303,
      "waveform": "saw"
    },
    {
      "curvature": 1,
      "cutoff": 7947.618181818182,
      "degree": 32,
      "degreePotential": -0.0651077487391105,
      "duration": 0.09485294117647058,
      "endFrequency": 78.48885271170678,
      "frequency": 78.48885271170678,
      "midi": 39,
      "pan": 0.6192,
      "phase": 0,
      "role": "lead",
      "source": "ETQ orbit 16, q=2",
      "stateIndex": 52,
      "time": 20.073529411764707,
      "velocity": 0.4751515151515152,
      "waveform": "saw"
    },
    {
      "curvature": 0,
      "cutoff": 12333.3,
      "degree": 55,
      "degreePotential": 1,
      "duration": 0.09485294117647058,
      "endFrequency": 49.44487885678883,
      "frequency": 49.44487885678883,
      "midi": 31,
      "pan": 0,
      "phase": 0,
      "role": "lead",
      "source": "ETQ singlet 0",
      "stateIndex": 0,
      "time": 20.183823529411764,
      "velocity": 0.66,
      "waveform": "saw"
    },
    {
      "curvature": -2,
      "cutoff": 7322.181818181818,
      "degree": 34,
      "degreePotential": 0.027510316368638238,
      "duration": 0.09485294117647058,
      "endFrequency": 83.15604276665583,
      "frequency": 83.15604276665583,
      "midi": 40,
      "pan": 0,
      "phase": 0,
      "role": "stab",
      "source": "ETQ orbit 9, q=1",
      "stateIndex": 30,
      "time": 20.294117647058822,
      "velocity": 0.5781818181818182,
      "waveform": "saw"
    },
    {
      "pan": 0,
      "source": "ETQ orbit 9, q=1",
      "time": 20.294117647058822,
      "velocity": 0.4336363636363637,
      "voice": "snare"
    },
    {
      "curvature": 1,
      "cutoff": 10235.8,
      "degree": 44,
      "degreePotential": 0.49060064190738195,
      "duration": 0.09485294117647058,
      "endFrequency": 132.00198976530203,
      "frequency": 132.00198976530203,
      "midi": 48,
      "pan": 0.6192,
      "phase": 0,
      "role": "lead",
      "source": "ETQ orbit 0, q=2",
      "stateIndex": 4,
      "time": 20.40441176470588,
      "velocity": 0.6133333333333333,
      "waveform": "saw"
    },
    {
      "curvature": 1,
      "cutoff": 7947.618181818182,
      "degree": 32,
      "degreePotential": -0.0651077487391105,
      "duration": 0.09485294117647058,
      "endFrequency": 78.48885271170678,
      "frequency": 78.48885271170678,
      "midi": 39,
      "pan": 0.6192,
      "phase": 0,
      "role": "lead",
      "source": "ETQ orbit 24, q=2",
      "stateIndex": 76,
      "time": 20.514705882352942,
      "velocity": 0.4751515151515152,
      "waveform": "saw"
    },
    {
      "curvature": -2,
      "cutoff": 7131.5,
      "degree": 33,
      "degreePotential": -0.01879871618523613,
      "duration": 0.09485294117647058,
      "endFrequency": 78.48885271170678,
      "frequency": 78.48885271170678,
      "midi": 39,
      "pan": 0,
      "phase": 0,
      "role": "lead",
      "source": "ETQ orbit 20, q=1",
      "stateIndex": 63,
      "time": 20.625,
      "velocity": 0.5666666666666667,
      "waveform": "saw"
    },
    {
      "curvature": -2,
      "cutoff": 6940.818181818182,
      "degree": 32,
      "degreePotential": -0.0651077487391105,
      "duration": 0.09485294117647058,
      "endFrequency": 78.48885271170678,
      "frequency": 78.48885271170678,
      "midi": 39,
      "pan": 0,
      "phase": 0,
      "role": "stab",
      "source": "ETQ orbit 21, q=1",
      "stateIndex": 66,
      "time": 20.735294117647058,
      "velocity": 0.5551515151515152,
      "waveform": "saw"
    },
    {
      "pan": 0,
      "source": "ETQ orbit 21, q=1",
      "time": 20.735294117647058,
      "velocity": 0.4163636363636364,
      "voice": "snare"
    },
    {
      "curvature": 1,
      "cutoff": 7947.618181818182,
      "degree": 32,
      "degreePotential": -0.0651077487391105,
      "duration": 0.09485294117647058,
      "endFrequency": 78.48885271170678,
      "frequency": 78.48885271170678,
      "midi": 39,
      "pan": 0.6192,
      "phase": 0,
      "role": "lead",
      "source": "ETQ orbit 23, q=2",
      "stateIndex": 73,
      "time": 20.845588235294116,
      "velocity": 0.4751515151515152,
      "waveform": "saw"
    },
    {
      "curvature": 1,
      "cutoff": 6040.8,
      "degree": 22,
      "degreePotential": -0.5281980742778541,
      "duration": 0.09485294117647058,
      "endFrequency": 49.44487885678883,
      "frequency": 49.44487885678883,
      "midi": 31,
      "pan": 0.6192,
      "phase": 0,
      "role": "lead",
      "source": "ETQ orbit 32, q=2",
      "stateIndex": 100,
      "time": 20.955882352941178,
      "velocity": 0.36000000000000004,
      "waveform": "saw"
    },
    {
      "curvature": 1,
      "cutoff": 9854.436363636363,
      "degree": 42,
      "degreePotential": 0.39798257679963317,
      "duration": 0.09485294117647058,
      "endFrequency": 117.60040347388178,
      "frequency": 117.60040347388178,
      "midi": 46,
      "pan": 0.6192,
      "phase": 0,
      "role": "lead",
      "source": "ETQ orbit 6, q=2",
      "stateIndex": 22,
      "time": 21.066176470588236,
      "velocity": 0.5903030303030303,
      "waveform": "saw"
    },
    {
      "curvature": -2,
      "cutoff": 8847.636363636364,
      "degree": 42,
      "degreePotential": 0.39798257679963317,
      "duration": 0.09485294117647058,
      "endFrequency": 117.60040347388178,
      "frequency": 117.60040347388178,
      "midi": 46,
      "pan": 0,
      "phase": 0,
      "role": "stab",
      "source": "ETQ orbit 5, q=1",
      "stateIndex": 18,
      "time": 21.176470588235293,
      "velocity": 0.6703030303030304,
      "waveform": "saw"
    },
    {
      "pan": 0,
      "source": "ETQ orbit 5, q=1",
      "time": 21.176470588235293,
      "velocity": 0.5027272727272728,
      "voice": "snare"
    },
    {
      "curvature": 1,
      "cutoff": 7947.618181818182,
      "degree": 32,
      "degreePotential": -0.0651077487391105,
      "duration": 0.09485294117647058,
      "endFrequency": 78.48885271170678,
      "frequency": 78.48885271170678,
      "midi": 39,
      "pan": -0.6192,
      "phase": 0,
      "role": "lead",
      "source": "ETQ orbit 15, q=0",
      "stateIndex": 47,
      "time": 21.28676470588235,
      "velocity": 0.4751515151515152,
      "waveform": "saw"
    },
    {
      "curvature": 1,
      "cutoff": 6040.8,
      "degree": 22,
      "degreePotential": -0.5281980742778541,
      "duration": 0.09485294117647058,
      "endFrequency": 49.44487885678883,
      "frequency": 49.44487885678883,
      "midi": 31,
      "pan": 0.6192,
      "phase": 0,
      "role": "lead",
      "source": "ETQ orbit 30, q=2",
      "stateIndex": 94,
      "time": 21.39705882352941,
      "velocity": 0.36000000000000004,
      "waveform": "saw"
    },
    {
      "curvature": 1,
      "cutoff": 8138.3,
      "degree": 33,
      "degreePotential": -0.01879871618523613,
      "duration": 0.09485294117647058,
      "endFrequency": 78.48885271170678,
      "frequency": 78.48885271170678,
      "midi": 39,
      "pan": 0.6192,
      "phase": 0,
      "role": "lead",
      "source": "ETQ orbit 12, q=2",
      "stateIndex": 40,
      "time": 21.50735294117647,
      "velocity": 0.4866666666666667,
      "waveform": "saw"
    },
    {
      "curvature": -2,
      "cutoff": 7322.181818181818,
      "degree": 34,
      "degreePotential": 0.027510316368638238,
      "duration": 0.09485294117647058,
      "endFrequency": 83.15604276665583,
      "frequency": 83.15604276665583,
      "midi": 40,
      "pan": 0,
      "phase": 0,
      "role": "stab",
      "source": "ETQ orbit 9, q=1",
      "stateIndex": 30,
      "time": 21.61764705882353,
      "velocity": 0.5781818181818182,
      "waveform": "saw"
    },
    {
      "pan": 0,
      "source": "ETQ orbit 9, q=1",
      "time": 21.61764705882353,
      "velocity": 0.4336363636363637,
      "voice": "snare"
    },
    {
      "curvature": -2,
      "cutoff": 6559.454545454546,
      "degree": 30,
      "degreePotential": -0.15772581384685924,
      "duration": 0.09485294117647058,
      "endFrequency": 69.92561826916547,
      "frequency": 69.92561826916547,
      "midi": 37,
      "pan": 0,
      "phase": 0,
      "role": "lead",
      "source": "ETQ orbit 18, q=1",
      "stateIndex": 57,
      "time": 21.727941176470587,
      "velocity": 0.5321212121212122,
      "waveform": "saw"
    },
    {
      "curvature": -2,
      "cutoff": 8847.636363636364,
      "degree": 42,
      "degreePotential": 0.39798257679963317,
      "duration": 0.09485294117647058,
      "endFrequency": 117.60040347388178,
      "frequency": 117.60040347388178,
      "midi": 46,
      "pan": 0,
      "phase": 0,
      "role": "lead",
      "source": "ETQ orbit 4, q=1",
      "stateIndex": 15,
      "time": 21.838235294117645,
      "velocity": 0.6703030303030304,
      "waveform": "saw"
    },
    {
      "pan": 0,
      "source": "ETQ orbit 4, q=1",
      "time": 21.838235294117645,
      "velocity": 0.5027272727272728,
      "voice": "snare"
    },
    {
      "curvature": 1,
      "cutoff": 9854.436363636363,
      "degree": 42,
      "degreePotential": 0.39798257679963317,
      "duration": 0.09485294117647058,
      "endFrequency": 117.60040347388178,
      "frequency": 117.60040347388178,
      "midi": 46,
      "pan": 0.6192,
      "phase": 0,
      "role": "lead",
      "source": "ETQ orbit 3, q=2",
      "stateIndex": 13,
      "time": 21.948529411764707,
      "velocity": 0.5903030303030303,
      "waveform": "saw"
    },
    {
      "curvature": 1,
      "cutoff": 8328.981818181817,
      "degree": 34,
      "degreePotential": 0.027510316368638238,
      "duration": 0.09485294117647058,
      "endFrequency": 83.15604276665583,
      "frequency": 83.15604276665583,
      "midi": 40,
      "pan": 0.6192,
      "phase": 0,
      "role": "stab",
      "source": "ETQ orbit 9, q=2",
      "stateIndex": 31,
      "time": 22.058823529411764,
      "velocity": 0.4981818181818182,
      "waveform": "saw"
    },
    {
      "pan": 0.21671999999999997,
      "source": "ETQ orbit 9, q=2",
      "time": 22.058823529411764,
      "velocity": 0.37363636363636366,
      "voice": "kick"
    },
    {
      "curvature": 1,
      "cutoff": 7566.254545454546,
      "degree": 30,
      "degreePotential": -0.15772581384685924,
      "duration": 0.09485294117647058,
      "endFrequency": 69.92561826916547,
      "frequency": 69.92561826916547,
      "midi": 37,
      "pan": -0.6192,
      "phase": 0,
      "role": "lead",
      "source": "ETQ orbit 18, q=0",
      "stateIndex": 56,
      "time": 22.169117647058822,
      "velocity": 0.4521212121212122,
      "waveform": "saw"
    },
    {
      "curvature": 1,
      "cutoff": 9854.436363636363,
      "degree": 42,
      "degreePotential": 0.39798257679963317,
      "duration": 0.09485294117647058,
      "endFrequency": 117.60040347388178,
      "frequency": 117.60040347388178,
      "midi": 46,
      "pan": 0.6192,
      "phase": 0,
      "role": "lead",
      "source": "ETQ orbit 6, q=2",
      "stateIndex": 22,
      "time": 22.27941176470588,
      "velocity": 0.5903030303030303,
      "waveform": "saw"
    },
    {
      "curvature": 1,
      "cutoff": 7947.618181818182,
      "degree": 32,
      "degreePotential": -0.0651077487391105,
      "duration": 0.09485294117647058,
      "endFrequency": 78.48885271170678,
      "frequency": 78.48885271170678,
      "midi": 39,
      "pan": -0.6192,
      "phase": 0,
      "role": "lead",
      "source": "ETQ orbit 23, q=0",
      "stateIndex": 71,
      "time": 22.389705882352942,
      "velocity": 0.4751515151515152,
      "waveform": "saw"
    },
    {
      "curvature": 1,
      "cutoff": 9473.072727272725,
      "degree": 40,
      "degreePotential": 0.30536451169188444,
      "duration": 0.09485294117647058,
      "endFrequency": 111,
      "frequency": 111,
      "midi": 45,
      "pan": -0.6192,
      "phase": 0,
      "role": "stab",
      "source": "ETQ orbit 8, q=0",
      "stateIndex": 26,
      "time": 22.5,
      "velocity": 0.5672727272727273,
      "waveform": "saw"
    },
    {
      "pan": -0.21671999999999997,
      "source": "ETQ orbit 8, q=0",
      "time": 22.5,
      "velocity": 0.4254545454545454,
      "voice": "kick"
    },
    {
      "curvature": 1,
      "cutoff": 7947.618181818182,
      "degree": 32,
      "degreePotential": -0.0651077487391105,
      "duration": 0.09485294117647058,
      "endFrequency": 78.48885271170678,
      "frequency": 78.48885271170678,
      "midi": 39,
      "pan": -0.6192,
      "phase": 0,
      "role": "lead",
      "source": "ETQ orbit 15, q=0",
      "stateIndex": 47,
      "time": 22.610294117647058,
      "velocity": 0.4751515151515152,
      "waveform": "saw"
    },
    {
      "curvature": 1,
      "cutoff": 6040.8,
      "degree": 22,
      "degreePotential": -0.5281980742778541,
      "duration": 0.09485294117647058,
      "endFrequency": 49.44487885678883,
      "frequency": 49.44487885678883,
      "midi": 31,
      "pan": -0.6192,
      "phase": 0,
      "role": "lead",
      "source": "ETQ orbit 32, q=0",
      "stateIndex": 98,
      "time": 22.720588235294116,
      "velocity": 0.36000000000000004,
      "waveform": "saw"
    },
    {
      "curvature": 1,
      "cutoff": 7566.254545454546,
      "degree": 30,
      "degreePotential": -0.15772581384685924,
      "duration": 0.09485294117647058,
      "endFrequency": 69.92561826916547,
      "frequency": 69.92561826916547,
      "midi": 37,
      "pan": -0.6192,
      "phase": 0,
      "role": "lead",
      "source": "ETQ orbit 26, q=0",
      "stateIndex": 80,
      "time": 22.830882352941178,
      "velocity": 0.4521212121212122,
      "waveform": "saw"
    },
    {
      "curvature": 1,
      "cutoff": 7566.254545454546,
      "degree": 30,
      "degreePotential": -0.15772581384685924,
      "duration": 0.09485294117647058,
      "endFrequency": 69.92561826916547,
      "frequency": 69.92561826916547,
      "midi": 37,
      "pan": 0.6192,
      "phase": 0,
      "role": "stab",
      "source": "ETQ orbit 26, q=2",
      "stateIndex": 82,
      "time": 22.941176470588236,
      "velocity": 0.4521212121212122,
      "waveform": "saw"
    },
    {
      "pan": 0.21671999999999997,
      "source": "ETQ orbit 26, q=2",
      "time": 22.941176470588236,
      "velocity": 0.33909090909090916,
      "voice": "kick"
    },
    {
      "curvature": 1,
      "cutoff": 7566.254545454546,
      "degree": 30,
      "degreePotential": -0.15772581384685924,
      "duration": 0.09485294117647058,
      "endFrequency": 69.92561826916547,
      "frequency": 69.92561826916547,
      "midi": 37,
      "pan": -0.6192,
      "phase": 0,
      "role": "lead",
      "source": "ETQ orbit 26, q=0",
      "stateIndex": 80,
      "time": 23.051470588235293,
      "velocity": 0.4521212121212122,
      "waveform": "saw"
    },
    {
      "curvature": 1,
      "cutoff": 9854.436363636363,
      "degree": 42,
      "degreePotential": 0.39798257679963317,
      "duration": 0.09485294117647058,
      "endFrequency": 117.60040347388178,
      "frequency": 117.60040347388178,
      "midi": 46,
      "pan": -0.6192,
      "phase": 0,
      "role": "lead",
      "source": "ETQ orbit 4, q=0",
      "stateIndex": 14,
      "time": 23.16176470588235,
      "velocity": 0.5903030303030303,
      "waveform": "saw"
    },
    {
      "curvature": 1,
      "cutoff": 7566.254545454546,
      "degree": 30,
      "degreePotential": -0.15772581384685924,
      "duration": 0.09485294117647058,
      "endFrequency": 69.92561826916547,
      "frequency": 69.92561826916547,
      "midi": 37,
      "pan": -0.6192,
      "phase": 0,
      "role": "lead",
      "source": "ETQ orbit 26, q=0",
      "stateIndex": 80,
      "time": 23.27205882352941,
      "velocity": 0.4521212121212122,
      "waveform": "saw"
    },
    {
      "curvature": 1,
      "cutoff": 7947.618181818182,
      "degree": 32,
      "degreePotential": -0.0651077487391105,
      "duration": 0.09485294117647058,
      "endFrequency": 78.48885271170678,
      "frequency": 78.48885271170678,
      "midi": 39,
      "pan": 0.6192,
      "phase": 0,
      "role": "stab",
      "source": "ETQ orbit 24, q=2",
      "stateIndex": 76,
      "time": 23.38235294117647,
      "velocity": 0.4751515151515152,
      "waveform": "saw"
    },
    {
      "pan": 0.21671999999999997,
      "source": "ETQ orbit 24, q=2",
      "time": 23.38235294117647,
      "velocity": 0.35636363636363644,
      "voice": "kick"
    },
    {
      "curvature": -2,
      "cutoff": 6940.818181818182,
      "degree": 32,
      "degreePotential": -0.0651077487391105,
      "duration": 0.09485294117647058,
      "endFrequency": 78.48885271170678,
      "frequency": 78.48885271170678,
      "midi": 39,
      "pan": 0,
      "phase": 0,
      "role": "lead",
      "source": "ETQ orbit 23, q=1",
      "stateIndex": 72,
      "time": 23.49264705882353,
      "velocity": 0.5551515151515152,
      "waveform": "saw"
    },
    {
      "curvature": -2,
      "cutoff": 5224.681818181818,
      "degree": 23,
      "degreePotential": -0.48188904172397984,
      "duration": 0.09485294117647058,
      "endFrequency": 52.385024353833984,
      "frequency": 52.385024353833984,
      "midi": 32,
      "pan": 0,
      "phase": 0,
      "role": "lead",
      "source": "ETQ orbit 27, q=1",
      "stateIndex": 84,
      "time": 23.602941176470587,
      "velocity": 0.45151515151515154,
      "waveform": "saw"
    },
    {
      "pan": 0,
      "source": "ETQ orbit 27, q=1",
      "time": 23.602941176470587,
      "velocity": 0.3386363636363636,
      "voice": "snare"
    },
    {
      "curvature": -2,
      "cutoff": 7322.181818181818,
      "degree": 34,
      "degreePotential": 0.027510316368638238,
      "duration": 0.09485294117647058,
      "endFrequency": 83.15604276665583,
      "frequency": 83.15604276665583,
      "midi": 40,
      "pan": 0,
      "phase": 0,
      "role": "lead",
      "source": "ETQ orbit 9, q=1",
      "stateIndex": 30,
      "time": 23.713235294117645,
      "velocity": 0.5781818181818182,
      "waveform": "saw"
    },
    {
      "curvature": -2,
      "cutoff": 8847.636363636364,
      "degree": 42,
      "degreePotential": 0.39798257679963317,
      "duration": 0.09485294117647058,
      "endFrequency": 117.60040347388178,
      "frequency": 117.60040347388178,
      "midi": 46,
      "pan": 0,
      "phase": 0,
      "role": "stab",
      "source": "ETQ orbit 6, q=1",
      "stateIndex": 21,
      "time": 23.823529411764707,
      "velocity": 0.6703030303030304,
      "waveform": "saw"
    },
    {
      "pan": 0,
      "source": "ETQ orbit 6, q=1",
      "time": 23.823529411764707,
      "velocity": 0.5027272727272728,
      "voice": "snare"
    },
    {
      "curvature": 1,
      "cutoff": 9473.072727272725,
      "degree": 40,
      "degreePotential": 0.30536451169188444,
      "duration": 0.09485294117647058,
      "endFrequency": 111,
      "frequency": 111,
      "midi": 45,
      "pan": -0.6192,
      "phase": 0,
      "role": "lead",
      "source": "ETQ orbit 8, q=0",
      "stateIndex": 26,
      "time": 23.933823529411764,
      "velocity": 0.5672727272727273,
      "waveform": "saw"
    }
  ],
  "mathematicalSource": "ETQ-101-v2.0.0-studio-extension",
  "receipt": {
    "eventCount": 289,
    "fixtures": {
      "etq": {
        "ambientFixedRoots": 12,
        "ambientThreeCycles": 76,
        "degreeSum": 3374,
        "fullQutritStates": null,
        "graphEdges": 1687,
        "states": 101
      },
      "roots": {
        "halfInteger": 128,
        "integer": 112,
        "rank": 8,
        "total": 240,
        "valid": true
      },
      "uniqueProjectionValues": 156
    },
    "peak": 0.92,
    "rms": 0.2283472902928053,
    "wavBytes": 4233644,
    "wavSha256": "1b03e66a376ee10523c1c23a4db7a639464f22e5b387b2daa9741d34838ee0df"
  },
  "recipe": {
    "baseMidi": 31,
    "bitDepth": 16,
    "bpm": 136,
    "channels": 2,
    "cutoff": 8390,
    "density": 0.66,
    "description": "A deterministic walk over the 1,687-edge selected graph; degree potential drives register and brightness.",
    "drive": 2.2,
    "duration": 24,
    "etqExperiment": "graph",
    "family": "ETQ-101 experiments",
    "grit": 0.25,
    "label": "ETQ-101 Degree Graph Walk",
    "modelMode": "etq101",
    "pitchSpan": 25,
    "presetId": "etqGraph",
    "projection": "golden",
    "renderMode": "arrangement",
    "sampleRate": 44100,
    "scale": "chromatic",
    "seed": "ETQ101-GRAPH-1687",
    "space": 0.33,
    "traversal": "lexicographic",
    "tuning": 444,
    "waveform": "saw",
    "width": 0.86
  },
  "schema": "https://qsol-imc.example/schemas/e8-workbench-recipe-v1.json",
  "workbench": {
    "engineVersion": "1.0.0",
    "name": "E8 Sonification Workbench Studio"
  }
}